<?xml version="1.0" encoding="utf-8"?>
<!-- Generator: Adobe Illustrator 24.1.2, SVG Export Plug-In . SVG Version: 6.00 Build 0)  -->
<svg version="1.2" baseProfile="tiny" xmlns="http://www.w3.org/2000/svg" xmlns:xlink="http://www.w3.org/1999/xlink" x="0px"
	 y="0px" viewBox="0 0 10000 10000" overflow="visible" xml:space="preserve">
<g id="bag">
	<path fill="#BA9B7E" stroke="#66472B" stroke-width="4" stroke-miterlimit="10" d="M2841.5,5044.5c-32,95-135,436-135,579
		s8,377-83,468s-254,317-266,380s-39,198-91,222s-305,174-321,313s-3,369,131,432s240,31,314-20s126-21,312,55s638,183,943,179
		s365-28,480,0s630-4,824-20s773-91,856-83s98,15,293-28s127-59,254-75s185-39,289-99s36-84,131-52s318,102,397-8s87-257,51-392
		s-132-254-143-341s-90-154-126-154s-67,15-103-64s-104-207-92-448s-19-277-19-376s-8-488-40-674s-83-591-983-444
		s-2830,471-2842,531S2841.5,5044.5,2841.5,5044.5z"/>
	<path fill="#BA9B7E" stroke="#66472B" stroke-width="4" stroke-miterlimit="10" d="M2413,3632c20,162,68,284,56,463s54,570,122,650
		s405,384,805,428s1221,92,1296,84s527-16,642-36s326-67,484-111s625-249,665-293s114-164,214-195s163-39,179-59s175-174,218-436
		s78-425,39-583s-111-415-190-459s-191-48-222-64s-114-35-154-31s-2529-179-2731-167s-888,72-1011,171s-135,130-190,150
		s-154,80-178,163S2413,3632,2413,3632z"/>
	<path fill="#BD4400" d="M2960.5,3137.5c0,58-18,61,0,71s-53-3-24,37s10,45-7,98s25,61,17,87s-20,61-2,82s4,5,19,58s-9,72,36,82
		s28-29,72,16s36,56,84,45s74,8,86,12s28,11,58,6s59,41,83,39s42-15,59,5s41,37,66,26s34,4,56,23s23,46,70,26s92-21,120,17
		s55,42,81,27s92-9,115,19s104,0,117,8s112,144,169,114s34-36,125-28s112,11,132-10s259-10,282-12s438-28,635-99s459-147,647-240
		s381-194,406-249s72-95,26-151s-169-56-227-52s307-744,277-800s18-418-324-326s-943,374-982,421s-360,284-395,256s-88-40-151-31
		s-261,20-277,11s-97-50-124-19s-30,48-41,36s-78-106-136-43s-37,51-66,53s-123,5-143,28s-36,23-77,27s-62.6,47.1-121.3,46.5
		c-58.7-0.5-179.7,25.5-183.7,48.5s-67,48-103,43s-124,12-171,57s-84,14-116,36s-21,77-65,79S2960.5,3137.5,2960.5,3137.5z"/>
	<path fill="#BD8770" d="M4850.5,2754c10.5,19,33.5,32,61.5,22s11-8,57-22s12,39,47-14s22-71,58-67s54-3,65-30s37-82,67-86
		s74,6,89,15s14,20,39,3s51-6,43-43s4-59,9-77s12-39,44-41s47-36,66-15s15,45,44,23s32-60,52-83s27-58,70-33s45,44,79,9s34-12,48-18
		s17-95,70-91s80-15,94,7s40,43,52,22s124-73,179-9s-3,76,61,76s102,67,102,80s2.8,72.1-22.1,93.5C6300,2497,5545,3113,5537,3125
		s-60,84,8,51s1043-657,1057-698s-218-448-333-465s-187-80-305-29S4850.5,2754,4850.5,2754z"/>
	<path fill="#F0DFCF" d="M5960,1898c-93,67-784,546-834,584s-271,216-291,238s-69,98,0,66s259-170,297-191s516-354,563-374
		s269-184,299-190s84-33,160,12s246,213,260,247s19,89-32,135s-332,291-376,329s-192.7,170.1-247.9,208
		c-55.1,38-213.1,166-252.1,212s-174,149-148,155s123-11,226,10s79,58,212,27s321-98,394-144s419-267,478-315s98-43,166-191
		s46-175,119-255s160-199,303-268s528-227,601-277s178-129,196-240s18-145-20-244s-86-183-143-253s-203-176-356-135s-202,95-315,198
		s-208,258-349,337s-213,178-410,198s-364,41-432,81S5960,1898,5960,1898z"/>
</g>
</svg>
