<?xml version="1.0" encoding="utf-8"?>
<!-- Generator: Adobe Illustrator 24.1.2, SVG Export Plug-In . SVG Version: 6.00 Build 0)  -->
<svg version="1.1" xmlns="http://www.w3.org/2000/svg" xmlns:xlink="http://www.w3.org/1999/xlink" x="0px" y="0px"
	 viewBox="0 0 8192 8192" style="enable-background:new 0 0 8192 8192;" xml:space="preserve">
<style type="text/css">
	.st0{display:none;}
	.st1{fill:#F57E20;stroke:#231F20;stroke-width:50;stroke-miterlimit:10;}
	.st2{fill:none;stroke:#231F20;stroke-width:50;stroke-miterlimit:10;}
	.st3{fill:#4F5424;stroke:#231F20;stroke-width:50;stroke-miterlimit:10;}
</style>
<g id="pumpkin">
	<path class="st1" d="M2309.7,2748.3c-111,74-422.8,264.2-570.7,729.2s-211.4,766.2-89.8,1263c121.5,496.7,194.9,665.8,298.3,739.8
		c103.4,74,119.2,126.8,177.3,211.4c58.1,84.6,359.3,438.6,576,475.6c216.7,37,290.6,84.6,375.2,169.1
		c84.6,84.6,359.3,269.5,565.4,200.8s264.2-169.1,417.5-116.3c153.2,52.8,443.9,42.3,639.4-79.3s354.1-311.8,544.3-369.9
		c190.2-58.1,730.7-486.2,856.1-1199.6c125.4-713.4,68.7-1130.9-68.7-1331.7s-449.2-480.9-581.3-655.3
		c-132.1-174.4-586.6-417.5-813.8-385.8c-227.2,31.7-306.5,0-380.5-42.3c-74-42.3-396.3-274.8-724-116.3s-327.6,163.8-480.9,137.4
		c-153.2-26.4-428,74-470.3,174.4c-42.3,100.4-116.3,185-153.2,179.7C2389,2727.2,2309.7,2748.3,2309.7,2748.3z"/>
	<path class="st2" d="M3340.2,3319c-116.3,84.6-491.4,486.2-597.1,1072.7c-105.7,586.6-100.4,1315.8,89.8,1627.6
		s607.7,686.4,885.1,488.5s647.4-604.8,710.8-1355.1c63.4-750.4-10.6-1458.5-211.4-1654c-200.8-195.5-242.8-285.4-340.7-264.2
		c-97.9,21.1-161.3,36.2-214.2-3s-206.1-28.7-264.2,29.4S3340.2,3319,3340.2,3319z"/>
	<path class="st2" d="M3398.3,3260.9c-21.1-63.4-116.3-148-301.2-211.4s-502,84.6-775,290.6s-424.5,776.8-461.5,1268.3
		S2225.1,5734,2322,5917.1"/>
	<path class="st2" d="M2467.2,2701.1c30.4-15.4,92.1-45.6,152.6-46.6c60.4-1,271.5,13.9,332.9,46.6s256.6,152.6,327,226.9
		c70.3,74.3,89.2,106.7,89.2,106.7"/>
	<path class="st2" d="M3150.9,2398.9c43.6-5,200.1,6.9,357.7,145.7"/>
	<path class="st2" d="M4476.6,2412.4c-115.9,22.1-378.5,85.5-457.8,319.4"/>
	<path class="st2" d="M5641.4,3002.7c-62-42-385-266.9-664.4-224.3c-279.4,42.6-485.5,103-619.3,245.7
		c-133.8,142.7-128.8,135.7-128.8,135.7"/>
	<path class="st2" d="M4150.7,3294.6c104-55.5,307.2-142.7,429-144.7s363.6,28.7,444.9,80.3s380.5,311.1,433,433
		C5510.1,3785,5626,4117,5620,4251.7c-5.9,134.8-39.3,1366-480.6,1728c-441.2,362-489.8,389-489.8,389"/>
	<path class="st3" d="M3794.6,1559.3c-105.7,174.4-258.9,602.4-301.2,914.2c-42.3,311.8-297.6,614.5-274,627
		c23.6,12.5,133.7,157.9,226.3,130.1c92.6-27.8,187.7-23.9,226.1-5.4c38.3,18.5,88.5,21.7,165.1,8.9s220.6,53.2,240.4,79.6
		c19.8,26.4,27.7,75.3,87.2,13.2c59.4-62.1,175.7-134.8,211.4-141.4c35.7-6.6,70-10.6,13.2-43.6c-56.8-33-391-337.1-359.3-683.8
		c31.7-346.7-4-505.2,206.1-667.7c210.1-162.5,321-202.1,416.1-214s83.2-31.7,83.2-83.2s-4.4-125.1,4.8-155s28.2-146.2-51.1-173.1
		s-75.7-59.4-125.9-76.2c-50.2-16.7-297.2-43.2-472.5,107C3915.3,1346.2,3794.6,1559.3,3794.6,1559.3z"/>
</g>
</svg>
