<?xml version="1.0" encoding="utf-8"?>
<!-- Generator: Adobe Illustrator 24.1.2, SVG Export Plug-In . SVG Version: 6.00 Build 0)  -->
<svg version="1.1" xmlns="http://www.w3.org/2000/svg" xmlns:xlink="http://www.w3.org/1999/xlink" x="0px" y="0px"
	 viewBox="0 0 8192 8192" style="enable-background:new 0 0 8192 8192;" xml:space="preserve">
<style type="text/css">
	.st0{fill:#D1A059;stroke:#231F20;stroke-width:18;stroke-miterlimit:10;}
	.st1{fill:#D8AA68;stroke:#231F20;stroke-width:18;stroke-miterlimit:10;}
	.st2{fill:#B58035;stroke:#231F20;stroke-width:18;stroke-miterlimit:10;}
	.st3{fill:#991520;stroke:#231F20;stroke-width:18;stroke-miterlimit:10;}
	.st4{fill:#9B2331;stroke:#231F20;stroke-width:10;stroke-miterlimit:10;}
	.st5{fill:#FCBC38;stroke:#231F20;stroke-width:10;stroke-miterlimit:10;}
	.st6{fill:#FFFFFF;}
</style>
<g id="pie">
	<path class="st0" d="M6635.4,3929.6h-3c-2-5,0-11-2-16h-4c-2-5,0-11-2-16c0,0-3,0-4,0c-1-3,1-8-1-9c-7-9-11-17-9-28c-2,0-5,1-5,0
		c-2-3,0-8-2-9c-1-2-7,0-8-2c-2-2,0-7-1-10c-1,0-4,1-5,0s1-4,0-5s-5,1-6,0s1-4,0-6c-1-1-4,0-5,0c-1-3,1-7,0-10c-3-6-7-6-11-5
		c0-2,1-4,0-6c-3-6-10-8-11-16s-17-11-15-21c-2,0-4,1-5,0s1-4,0-5c-10-7-14-22-27-21c1-6-2-9-5-11c-1-1-4,1-5,0s1-4,0-5s-5,1-6,0
		c-7-9-15-13-26-11c0-2,0-4,0-4c-5-2-11,0-16-2c0,0,0-3,0-4c-3-1-7,1-10,0c0-1,0-4,0-5c-3-1-8,1-11,0c-12-4-24-11-37-12
		c-2,0-3-3-5-4s-4,1-6,0c-8-6-14-8-21-6c0-2,0-3,0-5c-8,1-13-3-16-3c-23-2-42-10-64-16c-10-3-19-9-26-11c-27-6-54-15-79-28
		c-3-1-7,1-10,0c-7-4-14-5-21-6c-2,0-4-4-6-4c-7-2-14,0-21-1c-2-1-3-4-5-4c-8-1-13-1-16-6c-1-1-4,1-5,0c-6-6-11-5-16-6c-2,0-3-4-5-5
		c-3-1-7,1-11,0c-2-1-3-4-5-4c-8-1-13-3-17-5c-6-3-13-2-21-6c-7-3-17,0-26-1c-2-1-3-4-5-5c-1,0-4,0-5,0c-2-1-3-4-5-4c-7-1-8-3-11-6
		c-1-1-4,1-5,0c-11-8-21-12-32-16c-2-1-3-5-5-6c-5-1-11,1-16,0c-2-1-3-4-5-5c-25-6-50-13-70-31c-10-9-28-6-40-12c-22-13-44-15-65-26
		c-4-2-6-7-10-10c-2-1-4,1-6,0c-1-1,1-4,0-5s-4,1-5,0c-7-13-21-14-33-19c-17-8-34-17-52-24c-3-1-7,1-10,0c0-1,0-4,0-5c-3-1-7,1-11,0
		s-7-4-10-4c-9-1-15-3-21-5c-5-2-11,0-16-1c-2-1-4-4-6-6c-1,0-4,0-5,0c-2-1-3-4-5-5c-6-1-11,0-17-4c-5-4-14,0-21-6c-4-3-14,1-20-2
		c-12-5-21-2-32-4c-4-1-7-4-10-4c-9-1-15-3-22-6c-3-1-7,1-10-1c-10-5-18-5-27-6c-3,0-6-3-10-4c-7-1-14,1-21-1c-8-2-14-4-21-5
		c-4,0-7-4-11-5s-7,0-11,0c-5-1-10-4-15-5c-9-1-18,1-27-1c-13-2-25-4-37-5c-18-2-34-12-53-11c-5,0-10-6-16-9c-3-1-7,0-10,0
		c-13-2-23-12-37-12c-7,0-14-6-21-9c-5-1-11,1-16-1c-5-1-5-8-6-9c-16-12-34-17-52-27c-3-1-9,1-10-1c-8-7-12-6-17-5c0-2,0-4,0-5
		c-3-1-7,1-10-1c-12-7-24-13-37-17c-9-2-18-9-27-14c-3-1-7,1-10,0c-7-4-15-4-20-6c-10-5-16-11-28-11c-2,1-3-3-5-4c-7-1-14-1-21-4
		c-10-3-21-2-32-5c-16-3-31,0-47-2c-2,0-4-4-6-4c-7-2-14-4-21-5c-50-5-99,2-148-10c-23-6-46-1-69-2c-3-1-6-4-10-5c-16-3-33,3-48-4
		c-6-3-15,1-21-2c-13-6-24-2-37-4c-4-1-7-5-10-5c-15-1-29-3-43-10c-5-2-11,0-16-1c-2-1-3-4-5-6c-1-1-4,0-5,0c-2-1-3-4-5-4
		c-8-1-13-2-17-5c-2-2-7,0-10-2c-8-4-14-3-21-4c-4-1-6-5-10-6c-5-1-11,1-16-1c-7-2-15-3-21-5c-17-6-34-12-48-25c-1-1-4,1-5,0
		s0-4,0-6c-7,1-8-2-11-5c-1-1-4,1-5,0c-4-3-7-10-11-10c-12,0-20-8-31-12v-3c-5-2-11,0-16-2v-4c-8.2-1.8-16.3-1.2-24.5-1
		c-10.7,47.1,9.5,76.4-118.5,84.9c-158.5,10.6-142.7,10.6-206.1,105.7c-63.4,95.1-100.4,258.9-338.2,290.6s-317.1,111-396.3,148
		s-105.7,111-258.9,126.8s-311.8,111-369.9,163.8c-58.1,52.8,10.6,216.7-111,200.8c-121.5-15.9-153.2-105.7-232.5-42.3
		c-79.3,63.4-137.4,174.4-206.1,163.8s-121.5-52.8-232.5,0c-111,52.8-84.6,63.4-158.5,74c-74,10.6-79.3-5.3-163.8,79.3
		c-84.6,84.6-148,169.1-148,232.5c0,26.5,0,53,0,74.9c10.3,1.4,20.8,1.6,31.9-0.8c31,24,74,13,111,16c5,1,11,4,16,4c28,1,56,3,84,5
		c49,3,99,3,148,0c25-1,43-21,74-16c4,1,7-3,11-4c3-1,7,1,10,0c33-8,62-23,95-28c14-2,28-9,43-10c3,0,7-4,10-3c14,1,25-7,37-11
		c8-3,17-1,27-5c6-3,14,0,21-1c2-1,3-4,5-4c19-2,38-1,58-6c9-3,18,0,27-1c4-1,6-4,10-5c7-1,14,1,21,0c4-1,7-4,11-5c13-2,23,0,37-3
		c19-5,39-1,58-2c7-1,14-5,21-6c18-1,35,1,53,0c9-1,17-4,26-4c245-2,490,0,735-2c9,0,17-3,26-4c20-1,38-1,59-4c20-3,39,1,58-2
		c6-1,10-8,16-9c30-3,59,0,89-1c7-1,14-4,21-5c25-1,49,1,74-1c7,0,15-4,22-4c17-1,34-2,52-6c7-1,15,1,22,0c9-1,17-4,26-5
		c5,0,11,1,16,0c14-4,27-5,42-6c7,0,14-4,21-5c9-1,19,3,26-1c25-15,53-14,80-15c7-1,14-4,21-5c5,0,11,1,16-1c12-3,24-4,37-5
		c4,0,7-3,11-4c5-1,11,1,15-1c8-4,16-6,27-6c2,0,3-3,5-4c9-1,19,2,27-1c11-5,24-2,36-5c2,0,4-4,6-5c5-1,11,1,16,0c4-1,7-4,10-4
		c14-1,28,0,42-6c3-1,7,1,11,0s7-4,11-5c14-1,28,1,42,0c6-1,10-5,16-6c12-1,25,2,37-1c19-6,39,0,58-6c15-4,31,0,47-3c4-1,7-5,11-6
		c14-2,27-1,42-3c50-8,98,0,148-5c66-6,130,2,196-4c40-4,80,0,121-3c7-1,14-5,21-5c21-2,42,1,64-2c25-4,49-2,74-5c9-1,17-8,26-9
		c27-3,53,3,80-3c12-3,24-1,37-3c4-1,6-4,10-5c11-1,20,0,32-4s24-1,37-6c6-3,14,0,21-1c13-3,24-5,37-6c3,0,6-3,10-4c5-1,11,1,16,0
		c6-1,11-5,16-5c14-1,27-2,42-6c5-1,11,0,16,0c7-1,14-4,21-5c5,0,11,1,16,0c6-1,10-4,16-5c5-1,11,1,16,0c7-1,14-3,21-6
		c10-6,20-14,32-15c11-1,21-2,32-6c5-1,10,1,15,0c10-2,18-6,27-9c5-2,11,0,16-2c13-5,24-13,42-11c4,1,7-3,11-4c3-1,7,1,10,0
		c7-3,13-9,21-10c7-1,13-3,21-5c7-2,14-2,22-6c3-1,7,1,10,0c4-1,7-6,11-5c14,1,24-7,37-11c5-1,11,1,15-1c26-12,54-15,80-25
		c6-3,15,1,21-2c31-14,61-23,95-31c9-2,17-8,26-9c21-4,39-9,59-16c46-16,92-25,138-42c37-13,76-17,115-29c40-13,79-24,122-31
		c9-1,17-6,26-9c5-2,11,0,16-2c22-11,46-13,68-22c44-17,86-38,133-44c42-5,82-19,121-32c7-3,15,0,22-1c4-1,6-4,10-5s8,1,11,0
		c17-9,34-11,52-12c2,0,4-3,6-3c2.1-0.2,4.1-0.6,6.1-1.1C6635.4,3963.4,6639.9,3947.7,6635.4,3929.6z"/>
	<path class="st1" d="M6625.4,3986.6c-18,1-35,3-52,12c-3,1-7-1-11,0s-6,4-10,5c-7,1-15-2-22,1c-39,13-79,27-121,32
		c-47,6-89,27-133,44c-22,9-46,11-68,22c-5,2-11,0-16,2c-9,3-17,8-26,9c-43,7-82,18-122,31c-39,12-78,16-115,29c-46,17-92,26-138,42
		c-20,7-38,12-59,16c-9,1-17,7-26,9c-34,8-64,17-95,31c-6,3-15-1-21,2c-26,10-54,13-80,25c-4,2-10,0-15,1c-13,4-23,12-37,11
		c-4-1-7,4-11,5c-3,1-7-1-10,0c-8,4-15,4-22,6c-8,2-14,4-21,5c-8,1-14,7-21,10c-3,1-7-1-10,0c-4,1-7,5-11,4c-18-2-29,6-42,11
		c-5,2-11,0-16,2c-9,3-17,7-27,9c-5,1-10-1-15,0c-11,4-21,5-32,6c-12,1-22,9-32,15c-7,3-14,5-21,6c-5,1-11-1-16,0c-6,1-10,4-16,5
		c-5,1-11,0-16,0c-7,1-14,4-21,5c-5,0-11-1-16,0c-15,4-28,5-42,6c-5,0-10,4-16,5c-5,1-11-1-16,0c-4,1-7,4-10,4c-13,1-24,3-37,6
		c-7,1-15-2-21,1c-13,5-25,2-37,6s-21,3-32,4c-4,1-6,4-10,5c-13,2-25,0-37,3c-27,6-53,0-80,3c-9,1-17,8-26,9c-25,3-49,1-74,5
		c-22,3-43,0-64,2c-7,0-14,4-21,5c-41,3-81-1-121,3c-66,6-130-2-196,4c-50,5-98-3-148,5c-15,2-28,1-42,3c-4,1-7,5-11,6
		c-16,3-32-1-47,3c-19,6-39,0-58,6c-12,3-25,0-37,1c-6,1-10,5-16,6c-14,1-28-1-42,0c-4,1-7,4-11,5s-8-1-11,0c-14,6-28,5-42,6
		c-3,0-6,3-10,4c-5,1-11-1-16,0c-2,1-4,5-6,5c-12,3-25,0-36,5c-8,3-18,0-27,1c-2,1-3,4-5,4c-11,0-19,2-27,6c-4,2-10,0-15,1
		c-4,1-7,4-11,4c-13,1-25,2-37,5c-5,2-11,1-16,1c-7,1-14,4-21,5c-27,1-55,0-80,15c-7,4-17,0-26,1c-7,1-14,5-21,5c-15,1-28,2-42,6
		c-5,1-11,0-16,0c-9,1-17,4-26,5c-7,1-15-1-22,0c-18,4-35,5-52,6c-7,0-15,4-22,4c-25,2-49,0-74,1c-7,1-14,4-21,5c-30,1-59-2-89,1
		c-6,1-10,8-16,9c-19,3-38-1-58,2c-21,3-39,3-59,4c-9,1-17,4-26,4c-245,2-490,0-735,2c-9,0-17,3-26,4c-18,1-35-1-53,0
		c-7,1-14,5-21,6c-19,1-39-3-58,2c-14,3-24,1-37,3c-4,1-7,4-11,5c-7,1-14-1-21,0c-4,1-6,4-10,5c-9,1-18-2-27,1c-20,5-39,4-58,6
		c-2,0-3,3-5,4c-7,1-15-2-21,1c-10,4-19,2-27,5c-12,4-23,12-37,11c-3-1-7,3-10,3c-15,1-29,8-43,10c-33,5-62,20-95,28c-3,1-7-1-10,0
		c-4,1-7,5-11,4c-31-5-49,15-74,16c-49,3-99,3-148,0c-28-2-56-4-84-5c-5,0-11-3-16-4c-37-3-80,8-111-16c-11,2.4-21.5,2.2-31.9,0.8
		c0,30.5,0,52,0,52c-26.4,52.8-26.4,26.4-68.7,116.3c-42.3,89.8-63.4,52.8-31.7,137.4s52.8,132.1,15.9,174.4s-52.8-37-5.3,89.8
		c16.3,43.4,40.6,84.4,65.2,122.6c4.8-0.1,9.6-0.3,14.5-1.2c2-1,3-4,5-4c111-2,222-2,333,0c3,0,6,3,10,4c27,4,54-4,80,4
		c10,3,21,0,31,1c4,1,7,5,11,6c7,1,14-1,21,0c4,1,7,4,11,4c8,1,14,4,21,5c10,3,21,0,31,1c6,1,11,5,16,5c34,2,69,6,101,8
		c101,8,201,4,301,2c3,0,7-3,10-4c14-1,29,2,43-1c8-2,15-3,20-5c16-7,32-9,48-11c11-2,21-4,32-5c25-2,48-15,74-17c6,0,10-11,16-13
		c41-12,80-22,122-26c19-2,36-6,53-16c4-3,10,0,15-1c4-1,7-5,11-6c5-1,11,0,16,0c17-1,31-13,47-14c12-1,22-5,32-5c206-5,412-1,618-3
		c9,0,18-3,27-4c35-2,69,2,105-4c25-4,49,0,74-2c4,0,7-4,11-4c23-4,46,0,69-4c27-5,53-1,79-2c5-1,11-4,16-5c35-1,70,3,105-2
		c37-5,70,1,106-4c7-1,14-8,21-9c46-5,91,3,138-6c7-1,14,1,21,0s14-5,21-6c11-1,21,1,32,0c5-1,10-4,15-5c7-1,15,1,22,0
		c5-1,10-4,15-4c12-1,21-3,32-5c13-3,25,0,37-2c4,0,7-4,11-5c3-1,7,1,10,0c10-5,18-5,27-6c3,0,6-3,10-4c15-2,29,1,44-5
		c10-4,24,2,35-2c13-5,24-2,37-4c4-1,7-4,11-5c14-1,28,2,42-1c20-6,39,0,58-5c30-9,56-1,85-6c6-1,10-7,16-8c9-2,17,0,26-2
		c13-2,25-3,37-5c21-6,42-11,64-11c5,1,11-3,16-4c18-1,34,0,52-5c29-6,57,1,85-4c34-6,67-1,100-3c4,0,7-3,11-3c67-2,134,0,201-2
		c5,0,11-3,16-4c14-1,28,0,42-5c10-3,21,1,32-2c6-1,9-7,15-8c11-3,22,1,32-2c17-5,32-4,48-5c5-1,11-4,16-5c14-1,28,1,42,0
		c3-1,7-4,10-4c9-1,15-3,22-5c5-2,10,0,15-2c21-7,43-7,64-14c5-2,11,0,16-2c20-6,39-4,58-5c3-1,7-4,10-4c15-1,29-2,43-5
		c23-5,46,2,68-5c9-3,18,0,27-2c6-1,10-8,16-9c25-6,49-4,74-8c18-3,35-3,52-4c4-1,7-4,11-5c16-2,33,3,48-4c6-3,14,0,21-2
		c8-3,14-4,21-5c2,0,3-4,5-4c7-2,15,1,21-2c24-10,49-8,74-10c2,0,3-4,5-4c9-1,15-3,22-5c5-2,11,0,15-2c17-9,32,0,48-4c2-1,3-4,5-4
		c16-2,32,0,48-2c3,0,6-4,10-5c13-2,25,0,37-3c21-6,43-1,64-3c2,0,3-3,5-4c4-1,8,1,11,0c12-5,25-9,37-12c20-6,38-16,58-26
		c13-6,24-14,37-20c5-3,6-7,5-11c2,0,4,1,5,0s-1-4,0-5c4-4,8-7,6-11c2,0,4,1,5,0s-1-4,0-5c8-6,3-11,5-16c1-2,5-3,5-5c2-12-2-26,3-36
		c5-13,0-22,3-33c1-2,4-3,5-5c3-11-3-23,4-33c7-11-3-29,6-42c4-6,0-17,1-26c1-2,4-3,5-5c1-9-2-18,1-26c5-12,2-21,5-32c0-2,4-3,4-5
		c3-11,1-22,5-32c4-12,0-25,1-37c1-2,4-3,4-5c1-8,3-13,5-17c5-11-2-24,6-37c3-3,0-10,1-15c1-2,4-3,5-5c1-9-3-19,1-26c7-12,1-19,5-27
		c0-1,4,0,4,0c3-11,2-21,4-32c6-27,1-53,3-79c0-2,3-3,3-5c0-17,6-32,11-48c2-7,0-14,1-21c1-2,4-3,5-5c2-9-2-19,4-28c4-7,1-17,5-25
		c3-10,0-21,2-32c0-2,4-3,4-5c2-9,1-18,5-27c2-5,0-11,1-16c1-2,4-3,4-5c2-39,6-77-2-115c-0.4-2.1-0.7-4.1-0.9-6.1
		c-2,0.5-4,0.9-6.1,1.1C6629.4,3983.6,6627.4,3986.6,6625.4,3986.6z"/>
	<path class="st2" d="M7127.9,3892.6c-84.6-100.6-74-201-195.5-201c-121.5,0-158.5-42.3-185-105.7
		c-26.4-63.4-105.7-132.1-264.2-137.4c-158.5-5.3-200.8-74-216.7-100.4c-15.9-26.4-126.8-79.3-185-74
		c-58.1,5.3-132.1-58.1-174.4-95.1s-68.7-58.1-206.1-58.1s-142.7,42.3-243.1-42.3c-100.4-84.6-158.5-100.4-211.4-100.4
		s-174.4-63.4-195.5-100.4s-111-58.1-179.7-42.3c-68.7,15.9-179.7,58-269.5-5.3c-89.8-63.4-142.7-79.2-206.1-52.8
		s-133.4-77.3-198.8-12.2c-65.4,65.1-77.9,139.1-121.9,207.8c-8.4,13.2-12.7,25.4-15.3,36.6c8.2-0.1,16.3-0.8,24.5,1v4
		c5,2,11,0,16,2v3c11,4,19,12,31,12c4,0,7,7,11,10c1,1,4-1,5,0c3,3,4,6,11,5c0,2-1,5,0,6s4-1,5,0c14,13,31,19,48,25c6,2,14,3,21,5
		c5,2,11,0,16,1c4,1,6,5,10,6c7,1,13,0,21,4c3,2,8,0,10,2c4,3,9,4,17,5c2,0,3,3,5,4c1,0,4-1,5,0c2,2,3,5,5,6c5,1,11-1,16,1
		c14,7,28,9,43,10c3,0,6,4,10,5c13,2,24-2,37,4c6,3,15-1,21,2c15,7,32,1,48,4c4,1,7,4,10,5c23,1,46-4,69,2c49,12,98,5,148,10
		c7,1,14,3,21,5c2,0,4,4,6,4c16,2,31-1,47,2c11,3,22,2,32,5c7,3,14,3,21,4c2,1,3,5,5,4c12,0,18,6,28,11c5,2,13,2,20,6c3,1,7-1,10,0
		c9,5,18,12,27,14c13,4,25,10,37,17c3,2,7,0,10,1c0,1,0,3,0,5c5-1,9-2,17,5c1,2,7,0,10,1c18,10,36,15,52,27c1,1,1,8,6,9
		c5,2,11,0,16,1c7,3,14,9,21,9c14,0,24,10,37,12c3,0,7-1,10,0c6,3,11,9,16,9c19-1,35,9,53,11c12,1,24,3,37,5c9,2,18,0,27,1
		c5,1,10,4,15,5c4,0,7-1,11,0s7,5,11,5c7,1,13,3,21,5c7,2,14,0,21,1c4,1,7,4,10,4c9,1,17,1,27,6c3,2,7,0,10,1c7,3,13,5,22,6
		c3,0,6,3,10,4c11,2,20-1,32,4c6,3,16-1,20,2c7,6,16,2,21,6c6,4,11,3,17,4c2,1,3,4,5,5c1,0,4,0,5,0c2,2,4,5,6,6c5,1,11-1,16,1
		c6,2,12,4,21,5c3,0,6,3,10,4s8-1,11,0c0,1,0,4,0,5c3,1,7-1,10,0c18,7,35,16,52,24c12,5,26,6,33,19c1,1,4-1,5,0s-1,4,0,5
		c2,1,4-1,6,0c4,3,6,8,10,10c21,11,43,13,65,26c12,6,30,3,40,12c20,18,45,25,70,31c2,1,3,4,5,5c5,1,11-1,16,0c2,1,3,5,5,6
		c11,4,21,8,32,16c1,1,4-1,5,0c3,3,4,5,11,6c2,0,3,3,5,4c1,0,4,0,5,0c2,1,3,4,5,5c9,1,19-2,26,1c8,4,15,3,21,6c4,2,9,4,17,5
		c2,0,3,3,5,4c4,1,8-1,11,0c2,1,3,5,5,5c5,1,10,0,16,6c1,1,4-1,5,0c3,5,8,5,16,6c2,0,3,3,5,4c7,1,14-1,21,1c2,0,4,4,6,4
		c7,1,14,2,21,6c3,1,7-1,10,0c25,13,52,22,79,28c7,2,16,8,26,11c22,6,41,14,64,16c3,0,8,4,16,3c0,2,0,3,0,5c7-2,13,0,21,6
		c2,1,4-1,6,0s3,4,5,4c13,1,25,8,37,12c3,1,8-1,11,0c0,1,0,4,0,5c3,1,7-1,10,0c0,1,0,4,0,4c5,2,11,0,16,2c0,0,0,2,0,4
		c11-2,19,2,26,11c1,1,5-1,6,0s-1,4,0,5s4-1,5,0c3,2,6,5,5,11c13-1,17,14,27,21c1,1-1,4,0,5s3,0,5,0c-2,10,14,13,15,21s8,10,11,16
		c1,2,0,4,0,6c4-1,8-1,11,5c1,3-1,7,0,10c1,0,4-1,5,0c1,2-1,5,0,6s5-1,6,0s-1,4,0,5s4,0,5,0c1,3-1,8,1,10c1,2,7,0,8,2c2,1,0,6,2,9
		c0,1,3,0,5,0c-2,11,2,19,9,28c2,1,0,6,1,9c1,0,4,0,4,0c2,5,0,11,2,16h4c2,5,0,11,2,16h3c5,20-1,37,3,59c8,38,4,76,2,115
		c0,2-3,3-4,5c-1,5,1,11-1,16c-4,9-3,18-5,27c0,2-4,3-4,5c-2,11,1,22-2,32c-4,8-1,18-5,25c-6,9-2,19-4,28c-1,2-4,3-5,5
		c-1,7,1,14-1,21c-5,16-11,31-11,48c0,2-3,3-3,5c-2,26,3,52-3,79c-2,11-1,21-4,32c0,0-4-1-4,0c-4,8,2,15-5,27c-4,7,0,17-1,26
		c-1,2-4,3-5,5c-1,5,2,12-1,15c-8,13-1,26-6,37c-2,4-4,9-5,17c0,2-3,3-4,5c-1,12,3,25-1,37c-4,10-2,21-5,32c0,2-4,3-4,5
		c-3,11,0,20-5,32c-3,8,0,17-1,26c-1,2-4,3-5,5c-1,9,3,20-1,26c-9,13,1,31-6,42c-7,10-1,22-4,33c-1,2-4,3-5,5c-3,11,2,20-3,33
		c-5,10-1,24-3,36c0,2-4,3-5,5c-2,5,3,10-5,16c-1,1,1,4,0,5s-3,0-5,0c2,4-2,7-6,11c-1,1,1,4,0,5s-3,0-5,0c1,4,0,8-5,11
		c-13,6-24,14-37,20c-20,10-38,20-58,26c-12,3-25,7-37,12c-3,1-7-1-11,0c-2,1-3,4-5,4c-21,2-43-3-64,3c-12,3-24,1-37,3
		c-4,1-7,5-10,5c-16,2-32,0-48,2c-2,0-3,3-5,4c-16,4-31-5-48,4c-4,2-10,0-15,2c-7,2-13,4-22,5c-2,0-3,4-5,4c-25,2-50,0-74,10
		c-6,3-14,0-21,2c-2,0-3,4-5,4c-7,1-13,2-21,5c-7,2-15-1-21,2c-15,7-32,2-48,4c-4,1-7,4-11,5c-17,1-34,1-52,4c-25,4-49,2-74,8
		c-6,1-10,8-16,9c-9,2-18-1-27,2c-22,7-45,0-68,5c-14,3-28,4-43,5c-3,0-7,3-10,4c-19,1-38-1-58,5c-5,2-11,0-16,2c-21,7-43,7-64,14
		c-5,2-10,0-15,2c-7,2-13,4-22,5c-3,0-7,3-10,4c-14,1-28-1-42,0c-5,1-11,4-16,5c-16,1-31,0-48,5c-10,3-21-1-32,2c-6,1-9,7-15,8
		c-11,3-22-1-32,2c-14,5-28,4-42,5c-5,1-11,4-16,4c-67,2-134,0-201,2c-4,0-7,3-11,3c-33,2-66-3-100,3c-28,5-56-2-85,4
		c-18,5-34,4-52,5c-5,1-11,5-16,4c-22,0-43,5-64,11c-12,2-24,3-37,5c-9,2-17,0-26,2c-6,1-10,7-16,8c-29,5-55-3-85,6c-19,5-38-1-58,5
		c-14,3-28,0-42,1c-4,1-7,4-11,5c-13,2-24-1-37,4c-11,4-25-2-35,2c-15,6-29,3-44,5c-4,1-7,4-10,4c-9,1-17,1-27,6c-3,1-7-1-10,0
		c-4,1-7,5-11,5c-12,2-24-1-37,2c-11,2-20,4-32,5c-5,0-10,3-15,4c-7,1-15-1-22,0c-5,1-10,4-15,5c-11,1-21-1-32,0c-7,1-14,5-21,6
		s-14-1-21,0c-47,9-92,1-138,6c-7,1-14,8-21,9c-36,5-69-1-106,4c-35,5-70,1-105,2c-5,1-11,4-16,5c-26,1-52-3-79,2c-23,4-46,0-69,4
		c-4,0-7,4-11,4c-25,2-49-2-74,2c-36,6-70,2-105,4c-9,1-18,4-27,4c-206,2-412-2-618,3c-10,0-20,4-32,5c-16,1-30,13-47,14
		c-5,0-11-1-16,0c-4,1-7,5-11,6c-5,1-11-2-15,1c-17,10-34,14-53,16c-42,4-81,14-122,26c-6,2-10,13-16,13c-26,2-49,15-74,17
		c-11,1-21,3-32,5c-16,2-32,4-48,11c-5,2-12,3-20,5c-14,3-29,0-43,1c-3,1-7,4-10,4c-100,2-200,6-301-2c-32-2-67-6-101-8
		c-5,0-10-4-16-5c-10-1-21,2-31-1c-7-1-13-4-21-5c-4,0-7-3-11-4c-7-1-14,1-21,0c-4-1-7-5-11-6c-10-1-21,2-31-1c-26-8-53,0-80-4
		c-4-1-7-4-10-4c-111-2-222-2-333,0c-2,0-3,3-5,4c-4.9,0.9-9.7,1.2-14.5,1.2c47.1,73.5,95,137,88.1,189.2
		c-10.6,79.3,142.7,116.3,237.8,79.3s295.9-63.4,422.8-58.1c126.8,5.3,200.8,0,311.8-15.9c111-15.9,258.9-42.3,338.2-42.3
		s126.8,15.9,237.8-5.3s221.9-74,322.3-58.1c100.4,15.9,169.1,31.7,269.5,10.6c100.4-21.1,274.8,42.3,343.5,31.7
		s343.5-47.6,385.8-58.1c42.3-10.6,232.5-63.4,264.2-79.3s74-5.3,169.1,5.3s227.2-31.7,295.9-47.6c68.7-15.9,169.1-74,237.8-52.8
		s216.7,31.7,269.5,10.6c52.8-21.1,137.4-42.3,216.7-42.3s158.5,9.1,264.2-45.6c105.7-54.8,369.9-75.9,449.2-97
		c79.3-21.1,375.2-47.6,412.2-47.6s-21.1,95.1,105.7-31.7s116.3-343.5,158.5-422.8s63.4-169.1,100.4-332.9
		S7212.4,3993.2,7127.9,3892.6z"/>
	<g id="rasp_x5B_">
		<path class="st3" d="M2086.5,4123.6c19.8,4,118.9,9.4,87.2,91.9c-31.7,82.5-130.8,141.9-87.2,173.6c43.6,31.7,78.5,87.2,41.2,103
			c-37.3,15.9-116.6-18.5-108.6,81.9c7.9,100.4,91.2,167.8,63.4,183.6s-162.5,75.3-241.8,71.3c-79.3-4-245.7-31.3-301.2,0.2
			c-55.5,31.5-134.8,16-218,0s-158.5,50.5-170.4-38.3c-11.9-88.8-99.1-5.5-59.4-100.6c39.6-95.1,0-214,39.6-245.7
			c39.6-31.7,126.8-134.1,202.1-148.3c75.3-14.2,170.4-68.2,265.5-80.8s71.3,64.2,170.4,0c99.1-64.2,166.5-218.7,241.8-155.3
			C2086.5,4123.6,2086.5,4123.6,2086.5,4123.6z"/>
		<path class="st3" d="M4646.8,4135.5c46.5-11.6,79.3,67.7,162.5,127s202.1,221.8,206.1,265.4s43.6,55.5,130.8,63.4
			c87.2,7.9,174.4,59.4,233.8,35.7c59.4-23.8,174.4-35.7,237.8-91.2c63.4-55.5,59.4-99.1,138.7-122.9s118.9-31.7,162.5-63.4
			c43.6-31.7,111-134.8,130.8-182.3s83.2,47.6,122.9-31.7c39.6-79.3,75.3-86.4,63.4-191.8c-11.9-105.4,79.3-105.4-71.3-168.8
			s-281.4-4-325-79.3c-43.6-75.3-47.6-186.3-126.8-229.9c-79.3-43.6-305.2-114.9-392.4-150.6c-87.2-35.7-352.7-55.5-439.9-114.9
			c-87.2-59.4-273.5-158.5-356.7-122.9c-83.2,35.7-348.7,0-326.9,39.6c21.8,39.6,86.7,91.2-1.3,142.7
			c-87.9,51.5-163.3,111-214.8,178.3s-150.6,122.9-130.8,194.2c19.8,71.3-79.3,67.4,146.6,126.8
			C4222.8,3818.4,4615.1,4143.4,4646.8,4135.5z"/>
		<path class="st4" d="M4681.1,4064.2c13.7-60.9,61.8-116.9,98.5-104c36.7,12.9,62.4-68.4,107-59.4c44.6,8.9,93.1-89.2,142.7-70.3
			c49.5,18.8,125.8-70.4,173.4-39.2s117.9-27.8,163.5-6.7c45.6,21.1,140.7,47.9,236.8,48.9c96.1,1,157.5,57.5,163.5,76.3
			s134.8,118.9,109,159.5c-25.8,40.6,5.9,82.2-3,119.9c-8.9,37.7,97.1,72.3,52.5,128.8c-44.6,56.5-155.6,92.1-184.3,105
			c-28.7,12.9-102.1,108-155.6,134.8c-53.5,26.8-237.8,81.2-290.3,63.4c-52.5-17.8-219-27.7-237.8-57.5
			c-18.8-29.7-49.5-102.1-34.7-145.7c14.9-43.6-36.7-77.3-30.7-123.9s-2-131.8-38.6-144.7c-36.7-12.9-259.2-19.8-265.5-52.5
			C4681.1,4064.2,4677.8,4079,4681.1,4064.2z"/>
	</g>
	<g id="peach">
		<path class="st5" d="M2329.6,4790.8c-94.5-11.8-84.6-327.6-26.4-401.6c58.1-74,354.1-280.1,491.4-327.6
			c137.4-47.6,449.2-211.4,639.4-243.1c190.2-31.7,712.1-10.6,763,0s40.3,68.7,45.5,132.1c5.3,63.4-74,121.5-121.5,105.7
			c-47.6-15.9-792.7,17.3-972.3,159.3s-258.9,126.1-290.6,247.6c-31.7,121.5-37,174.4-116.3,190.2c-79.3,15.9-243.1,37-306.5,47.6
			S2371.9,4796,2329.6,4790.8z"/>
		<path class="st5" d="M2842.2,4722.1c0,0,84.6-84.6,169.1-84.6s280.1-21.1,475.6,0s190.2,65.8,174.4-9.4
			c-15.9-75.2-47.6-353.7,68.7-412.6c116.3-58.9,422.8-154,491.4-159.3s74-158.2,0-163.6c-74-5.5-554.9-10.7-634.1,42.1
			s-512.6,185-597.1,311.8c-84.6,126.8-169.1,264.2-163.8,348.8C2831.6,4679.8,2842.2,4722.1,2842.2,4722.1z"/>
		<path class="st5" d="M3344.2,4494.8c0,0,824.4,211.4,824.4,163.8s-79.3-406.9,0-475.6s438.6-79.3,396.3-153.2
			c-42.3-74-161.5-200.8-421.6-163.8c-260.1,37-667,212.9-730.4,349.5C3349.5,4352.2,3344.2,4494.8,3344.2,4494.8z"/>
		<path class="st5" d="M4469.8,4505.4c0,0-111-190.2-37-264.2c74-74,80.9-105.7,135.6-105.7s134-142.7,107.5-153.2
			c-26.4-10.6-332.9-100.4-576,37c-243.1,137.4-295.9,258.9-306.5,354.1s-21.1,200.8,0,200.8c21.1,0,253.7-74,375.2-58.1
			C4290.1,4531.8,4427.5,4553,4469.8,4505.4z"/>
	</g>
	<g id="sugar">
		<path class="st6" d="M3580.7,3628.2c34.2,6.4,1.3,48.1-6.1,35C3567.2,3650.2,3578.6,3627.8,3580.7,3628.2z"/>
		<path class="st6" d="M3523.7,3753.9c10.8-1.1,14.3-18.5,6.4-16.1c-7.9,2.4-16.5,7.7-11.4,11.9
			C3523.7,3753.9,3520.1,3754.3,3523.7,3753.9z"/>
		<path class="st6" d="M3588.2,3714.1c4.4,2.4,9,0.4,4.6-3.3c-4.4-3.7-8.1,1.1-6.4,2.2C3588.2,3714.1,3588.2,3714.1,3588.2,3714.1z"
			/>
		<path class="st6" d="M2786.1,4201.5c17,12.4,37-15.2,25.1-23.1S2776.2,4194.3,2786.1,4201.5z"/>
		<path class="st6" d="M2664.5,4084.6c25.8-14.7-6.6-39-7.9-20.5S2657.6,4088.6,2664.5,4084.6z"/>
		<path class="st6" d="M2783.7,4021.2c10.7,14.1,43.4-17.2,21.6-19.8C2783.4,3998.8,2776.6,4012,2783.7,4021.2z"/>
		<path class="st6" d="M2741.8,4142.1c7.5-4.2,14.5-26.4,0-21.1C2727.3,4126.2,2737.2,4144.7,2741.8,4142.1z"/>
		<path class="st6" d="M4591.4,4320.4c25-15-15.6-52.8-23-30.4C4561,4312.5,4582.1,4326,4591.4,4320.4z"/>
		<path class="st6" d="M4531.9,4344.2c24.1-7.3,1.3-34.5-13.2-22.5S4501.5,4353.5,4531.9,4344.2z"/>
		<path class="st6" d="M4619.1,4365.4c8.6-10.1-30.1-4-19.7,0C4609.9,4369.3,4611.2,4374.6,4619.1,4365.4z"/>
		<path class="st6" d="M2179.9,4378.6c17.6-23.8-63.5-23.8-40.6,0C2162.4,4402.4,2179.9,4378.6,2179.9,4378.6z"/>
		<path class="st6" d="M2205,4309.4c15.9,7.9,10.6-23.8,0-17.6C2194.4,4298,2205,4309.4,2205,4309.4z"/>
		<path class="st6" d="M2215,4356.6c7.2-7.9-16.6-10.6-10.9-4.4C2209.9,4358.3,2211.8,4360.1,2215,4356.6z"/>
		<path class="st6" d="M2233.6,4324.4c5.7-5.7-12.8-3.1-8.8,0C2228.8,4327.5,2229.7,4328.4,2233.6,4324.4z"/>
		<path class="st6" d="M2151.7,4333.7c11.2,0-11.4-11.9-7-6.6C2149.1,4332.3,2145.1,4333.7,2151.7,4333.7z"/>
		<path class="st6" d="M3855.5,3316.4c18.6-11.7-46.2-9.2-27.7,0S3844.9,3323,3855.5,3316.4z"/>
		<path class="st6" d="M3912.3,3330.9c6.6-11.9-38.3-14.5-27.7,0C3895.1,3345.5,3912.3,3330.9,3912.3,3330.9z"/>
		<path class="st6" d="M3904.4,3231.9c14.9-2.1-25.4-34.3-25.9-14.5C3878,3237.1,3895.1,3233.2,3904.4,3231.9z"/>
		<path class="st6" d="M3913,3278.1c9.9-9.2-10.9-26.4-15-14.5S3913,3278.1,3913,3278.1z"/>
		<path class="st6" d="M4031.5,3222.2c6.5,17.2-24.8,17-20.1,9.2C4016.1,3223.7,4031.1,3221.2,4031.5,3222.2z"/>
		<path class="st6" d="M3949.2,3239.9c3.7,4.4,13.8,0,10.3-2.7c-3.5-2.7-8.8-4.7-9.5-1C3949.2,3239.9,3948,3238.5,3949.2,3239.9z"/>
		<path class="st6" d="M3988.6,3254.8c0,2.8,2.4,4.1,3.1,0.9c0.7-3.2-2.9-3.2-3-2.1C3988.6,3254.8,3988.6,3254.8,3988.6,3254.8z"/>
		<path class="st6" d="M2548.5,4096.6c18.6-11.7-46.2-9.2-27.7,0C2539.3,4105.9,2537.9,4103.2,2548.5,4096.6z"/>
		<path class="st6" d="M2605.3,4111.2c6.6-11.9-38.3-14.5-27.7,0C2588.1,4125.7,2605.3,4111.2,2605.3,4111.2z"/>
		<path class="st6" d="M2597.4,4012.1c14.9-2.1-25.4-34.3-25.9-14.5C2571,4017.4,2588.1,4013.4,2597.4,4012.1z"/>
		<path class="st6" d="M2606,4058.3c9.9-9.2-10.9-26.4-15-14.5S2606,4058.3,2606,4058.3z"/>
		<path class="st6" d="M2724.5,4002.4c6.5,17.2-24.8,17-20.1,9.2C2709.1,4004,2724.1,4001.4,2724.5,4002.4z"/>
		<path class="st6" d="M2642.2,4020.1c3.7,4.4,13.8,0,10.3-2.7c-3.5-2.7-8.8-4.7-9.5-1C2642.2,4020.1,2641,4018.7,2642.2,4020.1z"/>
		<path class="st6" d="M2681.6,4035c0,2.8,2.4,4.1,3.1,0.9c0.7-3.2-2.9-3.2-3-2.1C2681.6,4035,2681.6,4035,2681.6,4035z"/>
		<path class="st6" d="M4729,4388.3c17,12.4,37-15.2,25.1-23.1C4742.2,4357.2,4719.1,4381,4729,4388.3z"/>
		<path class="st6" d="M4607.4,4271.4c25.8-14.7-6.6-39-7.9-20.5C4598.2,4269.4,4600.5,4275.3,4607.4,4271.4z"/>
		<path class="st6" d="M4726.6,4207.9c10.7,14.1,43.4-17.2,21.6-19.8C4726.3,4185.5,4719.5,4198.7,4726.6,4207.9z"/>
		<path class="st6" d="M4684.7,4328.8c7.5-4.2,14.5-26.4,0-21.1C4670.2,4313,4680.1,4331.4,4684.7,4328.8z"/>
		<path class="st6" d="M4491.4,4283.4c18.6-11.7-46.2-9.2-27.7,0C4482.2,4292.6,4480.8,4290,4491.4,4283.4z"/>
		<path class="st6" d="M4548.2,4297.9c6.6-11.9-38.3-14.5-27.7,0S4548.2,4297.9,4548.2,4297.9z"/>
		<path class="st6" d="M4540.3,4198.8c14.9-2.1-25.4-34.3-25.9-14.5S4531,4200.1,4540.3,4198.8z"/>
		<path class="st6" d="M4548.9,4245c9.9-9.2-10.9-26.4-15-14.5C4529.7,4242.4,4548.9,4245,4548.9,4245z"/>
		<path class="st6" d="M4667.4,4189.2c6.5,17.2-24.8,17-20.1,9.2C4652,4190.7,4667,4188.1,4667.4,4189.2z"/>
		<path class="st6" d="M4585.1,4206.9c3.7,4.4,13.8,0,10.3-2.7c-3.5-2.7-8.8-4.7-9.5-1S4583.9,4205.4,4585.1,4206.9z"/>
		<path class="st6" d="M4624.5,4221.8c0,2.8,2.4,4.1,3.1,0.9c0.7-3.2-2.9-3.2-3-2.1C4624.5,4221.8,4624.5,4221.8,4624.5,4221.8z"/>
		<path class="st6" d="M3339.8,3677.1c24.1-7.3,1.3-34.5-13.2-22.5C3312,3666.5,3309.4,3686.3,3339.8,3677.1z"/>
		<path class="st6" d="M3427,3698.2c8.6-10.1-30.1-4-19.7,0C3417.7,3702.2,3419,3707.5,3427,3698.2z"/>
		<path class="st6" d="M3536.8,3721.1c17,12.4,37-15.2,25.1-23.1C3550,3690.1,3526.9,3713.9,3536.8,3721.1z"/>
		<path class="st6" d="M3415.3,3604.2c25.8-14.7-6.6-39-7.9-20.5S3408.4,3608.2,3415.3,3604.2z"/>
		<path class="st6" d="M3534.4,3540.8c10.7,14.1,43.4-17.2,21.6-19.8C3534.2,3518.3,3527.4,3531.5,3534.4,3540.8z"/>
		<path class="st6" d="M3299.3,3616.2c18.6-11.7-46.2-9.2-27.7,0C3290,3625.5,3288.7,3622.8,3299.3,3616.2z"/>
		<path class="st6" d="M3356.1,3630.7c6.6-11.9-38.3-14.5-27.7,0C3338.9,3645.3,3356.1,3630.7,3356.1,3630.7z"/>
		<path class="st6" d="M3348.2,3531.7c14.9-2.1-25.4-34.3-25.9-14.5C3321.7,3536.9,3338.9,3533,3348.2,3531.7z"/>
		<path class="st6" d="M3356.7,3577.9c9.9-9.2-10.9-26.4-15-14.5S3356.7,3577.9,3356.7,3577.9z"/>
		<path class="st6" d="M3475.2,3522c6.5,17.2-24.8,17-20.1,9.2C3459.8,3523.5,3474.8,3521,3475.2,3522z"/>
		<path class="st6" d="M3392.9,3539.7c3.7,4.4,13.8,0,10.3-2.7c-3.5-2.7-8.8-4.7-9.5-1S3391.7,3538.3,3392.9,3539.7z"/>
		<path class="st6" d="M3432.4,3554.6c0,2.8,2.4,4.1,3.1,0.9c0.7-3.2-2.9-3.2-3-2.1C3432.4,3554.6,3432.4,3554.6,3432.4,3554.6z"/>
		<path class="st6" d="M2774.5,3965.7c-25.2,23.9-39.7-27.1-24.8-25.5C2764.7,3941.8,2776,3964.2,2774.5,3965.7z"/>
		<path class="st6" d="M2706.2,3845.7c-5.5,9.4,6.6,22.4,9.3,14.6c2.7-7.8,3.5-17.9-2.9-16.2S2708,3842.6,2706.2,3845.7z"/>
		<path class="st6" d="M2700.6,3921.3c-4.5,2.1-5.7,7.1,0,5.7c5.6-1.4,3.9-7.2,2-6.5S2700.6,3921.3,2700.6,3921.3z"/>
		<path class="st6" d="M2876.3,3741.9c-8.2,23.9,27.2,21.3,26,2.5S2886.7,3711.9,2876.3,3741.9z"/>
		<path class="st6" d="M2808.1,3800.1c3.1,12.9,20.9-22.1,11.6-15.9C2810.3,3790.3,2805.2,3788.3,2808.1,3800.1z"/>
		<path class="st6" d="M2725,3875.6c-20,6.4-9.4,38.9,4,33.9C2742.4,3904.5,2736.7,3871.8,2725,3875.6z"/>
		<path class="st6" d="M2891,3845.8c-3.2,29.5,35.4,17.5,21.2,5.6C2898,3839.5,2891.9,3837.9,2891,3845.8z"/>
		<path class="st6" d="M2872.4,3979.5c-17.7,0.4-11.5,45.2,3.4,29.1C2890.7,3992.5,2884,3979.2,2872.4,3979.5z"/>
		<path class="st6" d="M2949.4,3744.9c-1.5,21.9,34.6-32,16.3-22.5C2947.3,3732,2950.3,3732.4,2949.4,3744.9z"/>
		<path class="st6" d="M2904.3,3782.3c5.7,12.3,34.3-22.5,16.3-22.5C2902.6,3759.9,2904.3,3782.3,2904.3,3782.3z"/>
		<path class="st6" d="M2989.2,3834.1c-7,13.3,42.7-0.4,27-12.4C3000.4,3809.6,2993.5,3825.8,2989.2,3834.1z"/>
		<path class="st6" d="M2946.7,3813.9c1.7,13.4,27.8,6.7,20.6-3.6C2960.1,3799.9,2946.7,3813.9,2946.7,3813.9z"/>
		<path class="st6" d="M2922.4,3942.6c-17.8-4.9,0.8-30.1,4.3-21.7S2923.4,3942.9,2922.4,3942.6z"/>
		<path class="st6" d="M2956.3,3865.6c-5.7,0.4-8.1,11.2-3.9,9.9c4.2-1.3,8.9-4.4,6.4-7.1
			C2956.3,3865.6,2958.2,3865.4,2956.3,3865.6z"/>
		<path class="st6" d="M2921.1,3888.8c-2.2-1.6-4.7-0.5-2.5,1.9s4.3-0.4,3.4-1.2C2921.1,3888.8,2921.1,3888.8,2921.1,3888.8z"/>
		<path class="st6" d="M6489.3,3871.4c34.2,6.4,1.3,48.1-6.1,35S6487.2,3871,6489.3,3871.4z"/>
		<path class="st6" d="M6432.3,3997.1c10.8-1.1,14.3-18.5,6.4-16.1c-7.9,2.4-16.5,7.7-11.4,11.9
			C6432.3,3997.1,6428.7,3997.5,6432.3,3997.1z"/>
		<path class="st6" d="M6496.8,3957.3c4.4,2.4,9,0.4,4.6-3.3s-8.1,1.1-6.4,2.2C6496.8,3957.3,6496.8,3957.3,6496.8,3957.3z"/>
		<path class="st6" d="M6248.3,3920.3c24.1-7.3,1.3-34.5-13.2-22.5C6220.6,3909.7,6217.9,3929.5,6248.3,3920.3z"/>
		<path class="st6" d="M6335.5,3941.4c8.6-10.1-30.1-4-19.7,0C6326.3,3945.4,6327.6,3950.7,6335.5,3941.4z"/>
		<path class="st6" d="M6445.4,3964.3c17,12.4,37-15.2,25.1-23.1C6458.6,3933.3,6435.5,3957.1,6445.4,3964.3z"/>
		<path class="st6" d="M6323.9,3847.4c25.8-14.7-6.6-39-7.9-20.5C6314.6,3845.4,6316.9,3851.4,6323.9,3847.4z"/>
		<path class="st6" d="M6443,3784c10.7,14.1,43.4-17.2,21.6-19.8C6442.8,3761.5,6436,3774.7,6443,3784z"/>
		<path class="st6" d="M6207.8,3859.4c18.6-11.7-46.2-9.2-27.7,0C6198.6,3868.6,6197.3,3866,6207.8,3859.4z"/>
		<path class="st6" d="M6264.7,3873.9c6.6-11.9-38.3-14.5-27.7,0C6247.5,3888.5,6264.7,3873.9,6264.7,3873.9z"/>
		<path class="st6" d="M6256.7,3774.9c14.9-2.1-25.4-34.3-25.9-14.5C6230.3,3780.1,6247.5,3776.2,6256.7,3774.9z"/>
		<path class="st6" d="M6265.3,3821.1c9.9-9.2-10.9-26.4-15-14.5C6246.2,3818.4,6265.3,3821.1,6265.3,3821.1z"/>
		<path class="st6" d="M6383.8,3765.2c6.5,17.2-24.8,17-20.1,9.2S6383.4,3764.2,6383.8,3765.2z"/>
		<path class="st6" d="M6301.5,3782.9c3.7,4.4,13.8,0,10.3-2.7s-8.8-4.7-9.5-1C6301.5,3782.9,6300.3,3781.5,6301.5,3782.9z"/>
		<path class="st6" d="M6340.9,3797.8c0,2.8,2.4,4.1,3.1,0.9c0.7-3.2-2.9-3.2-3-2.1C6340.9,3797.8,6340.9,3797.8,6340.9,3797.8z"/>
		<path class="st6" d="M6427.7,3759.7c34.2,6.4,1.3,48.1-6.1,35S6425.7,3759.3,6427.7,3759.7z"/>
		<path class="st6" d="M6370.7,3885.4c10.8-1.1,14.3-18.5,6.4-16.1c-7.9,2.4-16.5,7.7-11.4,11.9
			C6370.7,3885.4,6367.2,3885.7,6370.7,3885.4z"/>
		<path class="st6" d="M6435.2,3845.5c4.4,2.4,9,0.4,4.6-3.3s-8.1,1.1-6.4,2.2C6435.2,3845.5,6435.2,3845.5,6435.2,3845.5z"/>
		<path class="st6" d="M6186.8,3808.6c24.1-7.3,1.3-34.5-13.2-22.5C6159,3798,6156.4,3817.8,6186.8,3808.6z"/>
		<path class="st6" d="M6274,3829.7c8.6-10.1-30.1-4-19.7,0C6264.7,3833.7,6266.1,3838.9,6274,3829.7z"/>
		<path class="st6" d="M6383.9,3852.6c17,12.4,37-15.2,25.1-23.1C6397.1,3821.6,6374,3845.3,6383.9,3852.6z"/>
		<path class="st6" d="M6262.3,3735.7c25.8-14.7-6.6-39-7.9-20.5C6253.1,3733.7,6255.4,3739.6,6262.3,3735.7z"/>
		<path class="st6" d="M6381.5,3672.3c10.7,14.1,43.4-17.2,21.6-19.8S6374.4,3663,6381.5,3672.3z"/>
		<path class="st6" d="M6146.3,3747.7c18.6-11.7-46.2-9.2-27.7,0C6137.1,3756.9,6135.7,3754.3,6146.3,3747.7z"/>
		<path class="st6" d="M6203.1,3762.2c6.6-11.9-38.3-14.5-27.7,0C6185.9,3776.7,6203.1,3762.2,6203.1,3762.2z"/>
		<path class="st6" d="M6195.2,3663.1c14.9-2.1-25.4-34.3-25.9-14.5C6168.8,3668.4,6185.9,3664.4,6195.2,3663.1z"/>
		<path class="st6" d="M6203.8,3709.4c9.9-9.2-10.9-26.4-15-14.5C6184.6,3706.7,6203.8,3709.4,6203.8,3709.4z"/>
		<path class="st6" d="M6322.3,3653.5c6.5,17.2-24.8,17-20.1,9.2C6306.9,3655,6321.9,3652.4,6322.3,3653.5z"/>
		<path class="st6" d="M6240,3671.2c3.7,4.4,13.8,0,10.3-2.7s-8.8-4.7-9.5-1S6238.8,3669.8,6240,3671.2z"/>
		<path class="st6" d="M6279.4,3686.1c0,2.8,2.4,4.1,3.1,0.9s-2.9-3.2-3-2.1C6279.4,3686.1,6279.4,3686.1,6279.4,3686.1z"/>
	</g>
</g>
<g id="Layer_1">
	<g id="bits">
	</g>
</g>
</svg>
