<?xml version="1.0" encoding="utf-8"?>
<!-- Generator: Adobe Illustrator 24.1.2, SVG Export Plug-In . SVG Version: 6.00 Build 0)  -->
<svg version="1.2" baseProfile="tiny" xmlns="http://www.w3.org/2000/svg" xmlns:xlink="http://www.w3.org/1999/xlink" x="0px"
	 y="0px" viewBox="0 0 10000 5000" overflow="visible" xml:space="preserve">
<g id="biceps">
	<path id="right_bicep" fill="#D1936E" d="M7470.1,4538.6l481,473.2l-705.2,2.3C7245.9,5014.2,7383.2,4513,7470.1,4538.6z"/>
	<polygon id="left_bicep" fill="#D1936E" points="2344.4,4502.9 2792.7,5012.5 1748.7,5011.9 	"/>
</g>
<g id="face">
	<path id="neack" fill="#D1936E" d="M4521.4,3369.3l965.9-58.8c0,0-75.1,246.1,19.8,421.3c94.8,175.1,68.7,395.1,28.5,459.7
		c-40.1,64.6-106.5,233.9-267.1,279.3c-160.6,45.4-312.4,99.5-452.1,59.3c-139.6-40.1-417.2-199-466.1-349.1
		c-48.9-150.1-73.3-315.9-17.5-350.9c55.9-34.9,115.2-31.4,125.7-38.4s69.8-87.3,69.8-104.7
		C4528.3,3669.5,4515.1,3364.4,4521.4,3369.3z"/>
	<path id="head" fill="#D1936E" stroke="#2E160C" stroke-miterlimit="10" d="M4445.6,3299.1c-46.1-76.4-75.6-147.8-75.6-147.8
		s-5.2-89-4.1-111.1c1.2-22.1-16.9,0-16.9,0s-27.9,43.6-59.3,9.9c-31.4-33.7-60.5-51.2-64-97.7c-3.5-46.5-2.6-130.6,3.5-142.3
		c6.1-11.6,2.9-62,2.9-62s4.1-45.4-0.6-54.7c-4.7-9.3-3.8-39-3.8-39s16.9-42.8,17.7-62c0.9-19.2-3.8-34.6-7-39.3
		c-3.2-4.7-1.2-9,0-17.2c1.2-8.1,0.6-23.9,6.4-35.5c5.8-11.6,26.8-34,32.3-34.3s19.2-3.5,36.9,9.9s20.1,21.2,22.7,14
		s-4.7-112.9-2.9-127.4c1.7-14.5-8.1-119.3,8.1-189.1c16.3-69.8,17.7-112.9,63.1-208.9c45.4-96,52.7-146.3,197-234.2
		c144.3-87.9,242-94.8,281.6-89c39.6,5.8,279.9,8.1,353.2,62.3s238.6,96.6,292.7,170.5s93.1,268.8,93.1,268.8s41.3,377,50.6,382.3
		c9.3,5.2,9.3,13.4,21.5,7.6s35.5-25.6,50-23.9c14.5,1.7,30.3,7,39,19.2c8.7,12.2,16.9,36.1,18,50.6c1.2,14.5,0,43.6,4.1,59.3
		s8.7,44.2,10.5,55.3s5.8,27.3,4.7,55.9c-1.2,28.5-5.2,59.9-7,67.5c-1.7,7.6-2.9,71-4.7,78c-1.7,7-12.8,11.1-10.5,16.3
		c2.3,5.2-4.1,33.2-8.7,56.4s-22.1,66.3-51.2,76.8c-29.1,10.5-55.3,19.2-68.7,9.3c-13.4-9.9-67.5-41.3-68.1-71s-4.7,18-4.7,18
		s0.6,140.2-20.9,200.2c-21.5,59.9-64,87.3-97.7,124.5c-33.7,37.2-147.8,122.8-182.1,136.7s-111.7,52.4-149,84.4
		s-128.6,73.3-167.6,80.3c-39,7-73.3,18.6-137.3-2.9c-64-21.5-90.2-53.5-135-81.5c-44.8-27.9-97.7-84.4-136.7-112.3
		S4445.6,3299.1,4445.6,3299.1z"/>
	<g id="hair">
		<path id="hair_1_" fill="#2E160C" stroke="#2E160C" stroke-miterlimit="10" d="M4343,2303.7l-26.5,5.5c0,0-1.4-161.7,9.3-210.9
			c10.8-49.2,37.6-144.6,59.1-174.1c21.5-29.5,10.7-63.6,30.1-103.2s27.2-78.4,67.5-110.9c40.3-32.6,41.1-28.7,43.4-52
			c2.3-23.3-7.8-90,21.7-117.9s45-66.7,52.8-84.6c7.8-17.8,12.4-5.4,28.7-19.4c16.3-14,26.4-26.4,60.5-28.7s67.5,0,79.1-7
			c11.6-7,21.7-3.9,45-10.1c23.3-6.2,44.2-23.3,62.8-22.5c18.6,0.8,68.3-7,81.5,5.4s9.3,27.2,29.5,24s52.8,0.8,56.6,2.3
			c3.9,1.6,14.7,7,22.5,2.3c7.8-4.7,47.3-17.1,64.4-10.9c17.1,6.2,72.1,20.2,83.8,20.2c11.6,0,86.1,14,110.2,34.9
			S5455.4,1527,5457,1548c1.6,20.9,28.7,32.6,51.2,48.9c22.5,16.3,92.3,68.3,96.2,88.4c3.9,20.2-9.3,17.8,3.9,26.4
			c13.2,8.5,28.7,7,25.6,19.4s-8.5,18.6-3.9,25.6c4.7,7,60.9,59.7,62.3,71.4c1.3,11.6,5.6,35.7,0,37.2c-5.6,1.6-19.6-6.2-4.9,5.4
			c14.7,11.6,39.6,19.4,30.3,27.9s-51.2,6.2-28.7,17.8c22.5,11.6,41.9,55.9,42.7,70.6c0.8,14.7,7,52.8,0,62.1
			c-7,9.3-7.8,19.4,8.5,34.9c16.3,15.5,33.4,43.4,24,41.9c-9.3-1.6-27.2-12.4-17.8,7c9.3,19.4,20.2,42.7,10.1,45
			c-10.1,2.3-16.3-11.6-14.7,6.2c1.6,17.8-13.2,100.1-16.3,111.7c-3.1,11.6-14.7,60.5-7,83.8s17.1,97,2.3,110.2
			c-14.7,13.2-26.8,32.2-30.4,41.7s2.5,43.6,9.5,46.7c7,3.1-12.4,14.7-17.1,4.7s-10.1,24.8-3.9,37.2c6.2,12.4-10.9,41.1-7.8,53.5
			s-12.4,2.3-12.4,10.9s1.6,43.4-8.5,27.9c-10.1-15.5-32.6-90.8-30.3-142c2.3-51.2-24-86.9-16.3-128s8.5-107.8,0-138.9
			c-8.5-31-6.2-140.4-38.8-221.9c-32.6-81.5-46.5-171.4-128-212.6c-81.5-41.1-159-107.1-366.9-145.8
			c-207.9-38.8-214.9-21.7-290.1-11.6c-75.3,10.1-240.5,64.4-264.5,89.2s-86.1,72.9-113.3,214.9c-27.2,142-58.2,189.3-53.5,234.3
			C4353,2295,4343,2303.7,4343,2303.7z"/>
		<path id="right_eyebrow_2_" fill="#2E160C" d="M5068.6,2330.2c-2.3,7.3,6.4-18.9,13.1-24.1c6.7-5.2,9.9-29.1,16.6-38.1
			c6.7-9,20.1-22.7,20.1-20.7c0,2-5.5,7-7.3,9.9s-11.9,13.7-14.3,22.1c-2.3,8.4-7.6,16.9-5.5,16.6c2-0.3,19.8-8.4,20.7-12.8
			c0.9-4.4,6.7-22.1,17.5-28.2c10.8-6.1,23-13.5,25.6-16.9c2.6-3.4,7.6-7.8,5.8-4c-1.7,3.8-15.7,19.2-20.9,21.2
			c-5.2,2,14-5.5,16.9-7.9s4.4-11.3,14.3-16.3c9.9-4.9,11.1-0.3,7,0c-4.1,0.3-21.2,11.3-16.6,16s-3.5-1.5,10.5-7
			c14-5.5,22.7-16.9,39.3-17.5c16.6-0.6,22.1-0.9,24.7,0c2.6,0.9,1.5,2.6,0,2.6s-18.9-1.2-21.5,1.7c-2.6,2.9,7.3-1.2,15.1-0.6
			c7.9,0.6,19.2-2.3,23.6,0.9c4.4,3.2,0,2,0,2s-9.6-3.5-7.6-1.5c2,2,3.9,4.4,9.5,3.5s25.1-2.3,32.7-0.3s16.3,3.2,14,4.9
			c-2.3,1.7-21.8-4.4-25.3-1.5c-3.5,2.9,4.9,1.6,11.6,3.4c6.7,1.8,24.4,11.7,34,11.4c9.6-0.3,7.9,2,7.9,2s-7.9-2-5.5-0.3
			c2.3,1.7,18,2,24.1,4.9s38.7,4.1,46.3,16.3s22.4,12.8,24.4,23.6C5421.2,2306.6,5068.6,2330.2,5068.6,2330.2z"/>
		<path fill="#2E160C" d="M4830.9,2326.1c-8.1-21.2-26.2-50.9-34.3-57c-8.1-6.1-21.2-31.1-35.2-41.6s-22.1-14.8-18-11.9
			s21.6,17.4,27.1,22.3c5.5,4.9,27.6,34.7,23,32.5c-4.7-2.2-11.3-6-15.7-13.5c-4.4-7.6-23.6-23.9-23-22.1c0.6,1.7,15.7,14.8,15.4,18
			s-11.1-5.5-13.7-9.9s-21.5-32.9-28.5-34.9c-7-2-0.6,0.9,0,1.7c0.6,0.9,6.1,4.4,10.5,11.1s13.1,17.7,13.4,19.2s3.2,6.1-3.2,2.6
			c-6.4-3.5-16.9-9-21.2-14c-4.4-4.9-14.8-20.4-35.5-25.6c-20.7-5.2-20.7-4.4-18-3.5c2.6,0.9,20.7,3.8,30.5,11.3
			s20.7,15.1,19.5,17.5s3.2,11.5,0.3,9.5s-20.2-25-38.5-30.8c-4.5-1.4-4.2,0.7-4.2,0.7s19.6,3.3,36,25.5c16,21.6-8.1-9.3-18.3-12.8
			c-10.2-3.5-28.8-14.8-40.1-14c-11.3,0.9-3.8,1.5,0,1.7c3.8,0.3,33.7,9.7,37.5,13.7c3.8,4-0.6,1.4-7.9-1.2
			c-7.3-2.6-25.9-11.9-35.7-11.1c-9.7,0.9-3,2.9,2.2,3.2c5.2,0.3,34,10.8,30,11.1c-4.1,0.3-30.8-13.1-47.4-11.1
			c-16.6,2-46.5,2.6-40.7,3.8c5.8,1.2,19.2-0.3,18.6,0.9c0,0,1.2,0.4-4.9,1s-36.2,6-30.7,6c5.5,0,15-2.9,11.1-0.9
			c-3.9,2-23,7.3-20.9,11.8S4830.9,2326.1,4830.9,2326.1z"/>
	</g>
	<g id="nose">
		<path id="right_cavity" fill="#2E160C" d="M4848.9,2817.2c0,0-27.3-23.3-37.2-28.5c-9.9-5.2-31.4-5.2-40.7,0
			c-9.3,5.2-11.1,13.4-11.1,15.1c0,1.7,1.2,11.6,9.9,9.3s14-8.7,34.6-5.2S4848.9,2817.2,4848.9,2817.2z"/>
		<path id="left_cavity" fill="#2E160C" d="M4975.2,2829.4c0,0,43.3-38.4,66.4-41.9c23.2-3.5,26.1-5.8,32.5,0
			c6.4,5.8,16.9,10.5,16.9,16.3c0,5.8-15.7,13.4-19.8,13.4c-4.1,0-33.2-5.2-58.2,3.5c-25,8.7-44.8,14.5-46.5,17.5
			C4964.7,2841,4975.2,2829.4,4975.2,2829.4z"/>
		<path id="left_nose" fill="#2E160C" d="M4768.8,2684.5c0,0-44.9,40.3-52.3,55.6s-10.5,24.2-10.4,28.4c0.1,4.2,0.4,20.3,3,26
			s8.1,14.9,12.9,19.3c4.8,4.4,14.5,12.9,18.4,14.1c3.9,1.2,10.3,3.9,28.3,0.8c18-3.1,16.7-4.7,22.9-4.8c6.2-0.2,15.5,1,16.9,2.3
			s-2.9,1.6-4.2,0.8s-12.6-1.4-16.9-0.1c-4.3,1.3-14.8,1.7-16.6,2.3c-1.8,0.6-11.2,3.1-16.2,2.8c-5-0.3-19.5-2.7-23.6-6.9
			c-4.1-4.3-13.9-15.4-15.7-17.2c-1.8-1.8-10.9-18.5-10.7-22.6c0.2-4.1-0.8-20.1,0-21.5s11.1-28.5,12.7-29.7s9.2-7.9,10.3-9.8
			c1.1-1.9,29.6-29.9,29.9-31c0.3-1.1,10.6-9.5,10.9-9.1C4768.8,2684.5,4768.8,2684.5,4768.8,2684.5z"/>
		<path id="right_nose" fill="#2E160C" d="M5096.8,2687.4c9.3,5.8,47.7,33.7,51.2,61.1c3.5,27.3,4.7,30.8,0,43.1
			c-4.7,12.2-4.1,23.9-16.9,31.4c-12.8,7.6-19.8,9.9-34.3,8.7c-14.5-1.2-28.5-4.7-48.9,0.3c-20.4,5,11.9-1.2,16.2-0.9
			c4.3,0.3,8.7-1,26.1,0.5c17.4,1.5,25.3,2,32.1-1.6c6.8-3.7,22.1-13.8,24.5-25.5s6.3-26.3,6.1-29.4c-0.2-3.1-3.5-36.2-9.8-45.1
			c-6.3-8.9-25.3-27.9-26.2-28.5c-0.9-0.6-15.4-12.1-18.3-13.6S5096.8,2687.4,5096.8,2687.4z"/>
		<path id="mide_nose" fill="#2E160C" d="M4963.6,2838.6c-7.8,7.7-17.4,17.5-24.9,18.4s-33.6,2.1-40,0.8s-18.8-5.6-27.9-15.2
			c-9.1-9.6-16.8-19.5-17-18.7c-0.2,0.8,1.5,1.7,1.7,2.5c0.2,0.7,11.6,13.2,12.1,14.4c0.5,1.2,11.5,10.2,15.5,12.1s14.4,7.7,21.6,7
			c7.2-0.7,33.7-1.5,34.7-1.5s5.9-1.7,9.5-5.2c3.6-3.5,8.9-8.3,9.7-8.8c0.8-0.5,5.2-4.5,5-5
			C4963.4,2838.8,4963.6,2838.6,4963.6,2838.6z"/>
		<path fill="#2E160C" d="M4546.4,2916.1c0,0-46.5,37.8-51.4,75.1s-0.8,58.2,1.2,61.5s6.2,17.8,6.6,23.1s1.9,9.9,0.8,13.6
			c-1.2,3.7-0.8,8.9,0.6,1.2c1.4-7.8,1.2-21.1-0.6-27.5c-1.7-6.4-6.8-20.8-4.7-32c2.1-11.2-1.2-28.7,4.7-43.4s14.4-35.9,17.6-39.2
			c3.3-3.3,8.1-14.5,11.6-17.3C4536.3,2928.3,4550.5,2912.6,4546.4,2916.1z"/>
	</g>
	<g id="contours">
		<path fill="#2E160C" d="M4649.7,2823.8c0,0-36.7,24.8-46.5,38.2c-9.9,13.4-10.2,14.5-15.7,17.5c-5.5,2.9,2.6-0.1,3.8-1.2
			c1.2-1.1,7.6-7.5,8.1-8.9c0.6-1.4,5.4-9.1,7.1-9.8c1.7-0.7,8.9-9.8,12.9-12.2s10.8-8.9,12-9.5c1.2-0.6,12.5-8.3,13.5-9.2
			C4645.8,2827.8,4651.2,2823.4,4649.7,2823.8z"/>
		<path fill="#2E160C" d="M5281.6,2900.9c1.3,7.2,23.3,20.9,27.9,34.9c4.7,14,25.8,45.6,27.6,58.7c1.8,13.1,6.6,51.6,2.3,62.6
			c-4.3,11.1-5.5,28.6-6.3,39.1c-0.8,10.5,0,26.4-5.6,46c-5.6,19.6-4.7,18.8-2.3,14c2.3-4.8,10.7-36.3,11.8-44.2
			c1.2-8,2.5-7.4,5.2-18c2.7-10.7,10.3-47.5,7.6-67.5s-4.7-47.9-14.5-56.8c-9.9-8.9-18-34.5-23.5-40
			C5306.5,2924.2,5281.1,2897.8,5281.6,2900.9z"/>
		<path fill="#2E160C" d="M5527.9,3031.3"/>
	</g>
	<g id="mouth">
		<path fill="#471715" d="M4580.7,3041.5c0,0,161.6-28.9,178.6-26.7c17,2.1,407.9,5.8,441,24.1c33.2,18.3,50.6,20.9,51.2,30.5
			c0.6,9.6,0,25.9-7.3,33.2c-7.3,7.3-218.2,142.3-249,141.4c-30.8-0.9-156.2,21.5-223.1-23c-66.9-44.5-132.4-116.6-143.7-125.5
			C4617.1,3086.5,4575.9,3044.9,4580.7,3041.5z"/>
		<path id="gums" fill="#F58E87" d="M4672.3,3079.4c0,0-25-45.4-16.5-50.4s225.6-14.9,303.9-10.7c78.4,4.3,211,13.6,212.8,18.4
			c1.7,4.8-3.4,31.4-5.3,34.3c-1.9,2.9-14.3,27-8.5,38.2c5.8,11.2,14.5,29.1,12,34.1c-2.5,5-3.3,46.5-54.9,59.2
			c-51.6,12.6-275.4,54.1-340.2,21.1s-120.8-91.2-116.9-95.8c3.9-4.7,16.3-9.7,16.1-14.7C4674.6,3108.1,4672.3,3079.4,4672.3,3079.4
			z"/>
		<path id="top_lip" fill="#E67C64" d="M4580.7,3040.6c23.3-5.2,50.6-23.9,75.6-31.4c25-7.6,65.7-26.2,87.9-25.6
			c22.1,0.6,41.9-7,60.2-9.9s36.7-1.7,49.3,4.7c12.6,6.4,25.4,17.5,46.4,15.7c20.9-1.7,43.6-22.7,82.6-14.5s54.1,14,93.1,16.3
			c39,2.3,86.7,19.8,103.6,26.2c16.9,6.4,53.5,29.1,59.9,34.9c6.4,5.8,14,7.6,0,4.1c-14-3.5-129.8-31.9-184.4-31.1
			c-54.7,0.8-91.1,5.5-118.6,11.9c-27.5,6.4-47.8-2.3-66.4-5.2c-18.6-2.9-88.6-10.5-113.2-9.9c-24.7,0.6-90.4,8.7-114.3,14
			C4618.5,3045.8,4580.7,3040.6,4580.7,3040.6z"/>
		<path fill="#FBEEE2" d="M4737.8,3122.2c12-0.2,367.9-12.1,367.9-12.1l54.9-1.8c0,0,11.9,18.4,6.5,31.7c-5.4,13.3-17.1,5-17.1,5
			s-5.2-1.9-3.6,2.7c1.6,4.6-15.6,7-19.6,8.9s-13.5-0.9-13.5-0.9c-4.8-1.7-5.8,3.3-3.4,6c3.8,4.3-7.5,4.8-19,9.6
			c-11.5,4.8-11.6,0.2-15-1.3c-3.3-1.6-6.2-0.4-7.4,6c-1.2,6.4-9.7,7-25.2,15.3s-12.6-0.6-17.8-2.7c-5.2-2.1-12.8-22.1-16.1-25
			c-3.3-2.9-6.8,7.8-11.4,19.8c-4.6,12-12.2,9.9-16.1,8.9c-3.9-1-8.1-17.8-10.3-21c-2.1-3.2-4.9-7.7-8.9-5.8
			c-4.1,1.9-6,17.3-11.2,25.4c-5.2,8.1-13.4,14.6-21.3,13.5c-8-1-9.3-19-11.9-26.9c-2.6-7.9-2.2-7-7.1-8.7
			c-4.9-1.7-15.7,30.8-21.3,34.3c-5.6,3.5-10.9-0.6-14.6-4.3c-3.7-3.7-5-12.4-6.4-18.4c-1.4-6-7.4-6.6-9.5-6.8
			c-2.1-0.2-6.6,10.9-10.5,18.6c-3.9,7.8-12,3.9-15.3,3.7c-3.3-0.2-8.3-20.2-10.5-23.3c-2.1-3.1-4.3-3.9-8-4.8
			c-3.7-1-9.9,14.9-15.3,19c-5.4,4.1-15.9-5.6-19-6.4c-3.1-0.8-7.2-9.7-7.8-12.2s-4.3-1.6-8.9,2.1c-4.7,3.7-13-1-17.8-1.6
			s-4.8-7.4-6-9.1c-1.2-1.8-1.9,0.2-4.1,2.1c-2.1,1.9-14-2.5-16.5-4.9c-2-1.9-1.4-11.4-2.6-12.1c0,0-3.6,0-6.8,2.6
			c-3.2,2.6-5.1,2.8-8.5-0.4c-3.4-3.2-7.7-5.9-7.2-7.2c0.5-1.3,0-2.1-2-1.9c-2,0.2-6.4,1.9-7.8,0.4c-1.4-1.5-21.1-13.8-18.8-16.2
			c2.3-2.4,5.2-4.5,6.6-4.3S4728,3122.4,4737.8,3122.2z"/>
		<path id="teeth" fill="#FBEEE2" stroke="#F58E87" stroke-width="0.25" stroke-miterlimit="10" d="M4670.6,3078.4
			c-1.4,15.1-2.3,38.1,1.5,41.9c3.8,3.8,24.4,12.5,34.3,9.3c9.9-3.2,5.8-8.4,7.9-5.8c2,2.6-0.3,10.8,4.9,11.9c5.2,1.2,16,4.1,16.9,0
			c0.9-4.1,0.6,2.2,4.4,2.1c3.8-0.1,22.7,2.6,30.5-2.1c7.9-4.7,7.3-5.5,9.3-4.4c2,1.2,2.3,5.8,9,7.1c6.7,1.3,20.1,4.8,30.3,3.3
			s8.1-2.6,10.2-1.5c2,1.2,6.1,7,10.8,6.7s57.3,0.9,60.2-1.5s4.9-4.1,6.7-3.8s4.4,3.2,6.6,3.5c2.2,0.3,61.8,2.4,66.2,1.8
			c4.4-0.6,11.6-5.3,14.3-9.6s0.3-8.1,3.5-5.8c3.2,2.3,19.8,5.2,27.6,3.5s14.5-5.5,21.5-10.8c7-5.2,7.9-6.7,11.3-3.8
			c3.5,2.9,8.4,11.1,14.8,11.1s12.8,0.9,16.3-3.5c3.5-4.4,5.8-10.2,8.7-11.6s4.1-2.3,6.1,2.9c2,5.2,7.3,8.7,14.3,7.6
			c7-1.2,8.4-2,11.3-4.9c2.9-2.9,3.5-7,6.1-5.8c2.6,1.2,3.2,7,8.4,5.5c5.2-1.5,13.1-5.5,15.7-12.2s8.1-33.7,6.7-39.3
			c-1.5-5.5-11.3-7.9-16.6-4.9c-5.2,2.9-11.9,9-12.5,6.4c-0.6-2.6-5.8-13.7-10.5-12.2s-18.9,13.4-22.4,15.7s-2.9-6.1-4.4-10.5
			s-4.7-13.4-7.9-14.8s-16-1.5-21.8,4.9c-5.8,6.4-18.3,25.3-17.5,30c0.9,4.7-4.7-4.4-6.4-10.5c-1.7-6.1-9.9-28.2-18.9-27.6
			c-9,0.6-14,7.3-14.3,9.9c-0.3,2.6-12.5,6.1-14.8,27.3c-2.3,21.2-3.2,24.1-4.4,20.4s-10.8-43.3-20.7-49.5
			c-9.9-6.1-26.5-11.9-37.7-2.3c-11.2,9.6-18.4,22.4-22.4,38.1c-3.9,15.7-10.1,2-10.1-3.5c0-5.5-2.9-27.1-8.7-34
			c-5.8-7-19.5-13.4-31.1-6.4s-24.1,20.1-25.9,30.8c-1.7,10.8-3.2,18.6-6.1,15.1c-2.9-3.5-6.1-27.6-17.5-33.5
			c-11.3-5.8-24.7-7.5-29.1,3.5s-6.7,16.8-6.4,19.2s-3.8-22.1-9.9-27.1c-6.1-4.9-13.1-9.3-19.2-7.9c-6.1,1.5-14.8,10.2-15.1,23.6
			c-0.3,13.4-2.3,17.5-4.7,14c-2.3-3.5-9-18.9-11.9-16.9c-2.9,2-4.9,7.6-4.9,15.7s-4.1-2.3-8.1-7c-4.1-4.7-10.2-10.8-15.7-9.6
			C4684,3067.9,4670.8,3075.7,4670.6,3078.4z"/>
		<path id="bottom_lip" fill="#E67C64" d="M4587.1,3054.8c54.1,47.4,128.3,107.9,151.9,115.2s59.1,19.8,64.9,24.1
			c5.8,4.4,28.5,15.1,75.6,15.1c47.1,0,80.3,14.5,185.6-27.3c105.3-41.9,130.9-62.3,147.2-73.3c16.3-11.1,34.6-25,36.9-28.5
			c2.3-3.5,5.8-8.4,5.8-3.8c0,4.7-11.9,53.8-23.9,62.3c-11.9,8.4-65.2,40.4-79.7,57s-39.9,37.8-64.6,57.9
			c-26.2,21.3-75.6,34-102.1,35.2c-26.5,1.2-108.2,0.6-125.1-3.8c-16.9-4.4-118.1-46.8-138.5-63.7c-20.4-16.9-82-71.9-84.7-83.2
			c-2.6-11.3-8.1-36.1-25.6-55C4593.5,3064.1,4587.1,3054.8,4587.1,3054.8z"/>
		<path id="lip_contour" fill="#C05140" d="M4579.5,3040.6c6.5,0.6,42.7,4.6,66.7-0.8c24-5.4,83.7-12.1,86.4-12.6
			c2.7-0.4,89.1-0.8,127.7,6.8c38.6,7.6,41.9,11.9,62.1,8.6c20.2-3.3,69.2-10.9,79.1-11.5c9.9-0.6,75.3-3,82.2-1
			c6.9,2,52.3,8.7,59.6,10.1c7.3,1.4,43.3,8.4,65.2,13.5c21.9,5.1,39.1,8.8,39.2,9.1s0.1,0.5-1.6,0s-77.3-18.3-91.7-20.1
			c-14.4-1.8-59.6-11.1-84.2-12.4c-24.5-1.2-68.5,2.8-70.8,2.5s-57.2,9.2-64.1,9.8s-24,4.2-47-1.3c-23.1-5.5-60.1-11.7-96.5-12.6
			c-36.4-0.9-75-1.2-112.6,5.7c-37.6,6.9-50.1,8.9-67.5,8.4c-17.4-0.4-30.5-0.6-31.1-1.4S4579.5,3040.6,4579.5,3040.6z"/>
		<path id="lip_contour_one" fill="#C05140" d="M4692,3194.2c2.9,2.2,24.1,22.4,29.7,25.9c5.5,3.5,20.2,14.7,55.7,30
			c35.5,15.3,38,16,38.1,17c0.1,1-0.2,1.3-6.2-1.5s-24.4-12-33.2-14.6c-8.8-2.7-33.4-16.1-36.9-18.3c-3.5-2.1-36.2-26.6-41.1-32
			c-4.8-5.5-6-5.8-6-6.2C4691.9,3194.1,4692,3194.2,4692,3194.2z"/>
		<path fill="#C05140" d="M4822.1,2971.8c5.9,0,15.9,0.6,21.5,2.3s17.3,7.4,20.5,9.6c3.2,2.2,12.4,7.7,19,8.6
			c6.6,0.9,11.9,2.1,14.9,1.8c3.2-0.3,3.4-0.5,3.3-0.4c-0.1,0.1-1,0.2-1.6,0.4c-0.6,0.2-2.5,0.3-3.3,0.3c-0.9,0-13.9-0.9-16.9-1.9
			c-3-0.9-5.9-2.8-6.4-3.1c-0.5-0.3-7.5-4.3-9.1-5c-1.6-0.7,0.5,0.3-4-2.2c-4.5-2.5-5.9-3.1-12-5.5c-6.1-2.4-6.5-2.3-8.4-2.5
			c-1.9-0.3-12-1.4-14.4-1.9c-2.4-0.4-3.3-0.2-3.2-0.4C4822.1,2971.8,4822.1,2971.8,4822.1,2971.8z"/>
		<path fill="#C05140" d="M5157.9,3187.4c-3.8,3.8-14.4,15.4-18,19.8c-3.7,4.4-15.2,13.2-18.5,16.7s-19,18.4-24.8,21.2
			c-5.8,2.8-13.2,10.9-15.3,11.8c-2.2,0.9-1.8,1.7-0.9,1.5c0.9-0.3,9.8-7,11-7.6c1.2-0.6,6.7-6.3,9.5-7.3c2.7-1,10.7-9.1,13.5-11.9
			c2.8-2.7,2.9-4.3,8.1-8.1c11-8.1,20.2-17.9,21.9-18.8s9.6-11.9,11.5-14.2s2.7-3.3,2.5-3.2
			C5157.9,3187.4,5157.9,3187.4,5157.9,3187.4z"/>
		<path fill="#C05140" d="M4585.2,3053c20.6,18,64.2,54.5,68.2,57.7c3.9,3.2,56.9,51.9,88.7,60.3c31.8,8.4,62.1,24.5,68.8,27.1
			c6.7,2.7,23,12.2,96.3,12.4s45,9.9,115.3-13.3c70.3-23.2,78.7-30.3,101.4-39.9c22.7-9.6,55.4-26.4,70.1-36.3
			c14.7-9.8,48.2-32.3,53.9-39.3c5.7-7,5.8-7,5.8-6.8c0,0.2-0.3,0.5-0.8,1.2s-2.6,4.1-8.1,8.9c-5.5,4.8-19.3,15.5-25.5,19.3
			c-6.2,3.7-24.5,17.2-26.4,18.1s-23.9,13-25.8,15.2c-2,2.2,0.5,0.1-18.1,9.5c-18.6,9.4-37.2,18.9-42.3,20.3s-87.2,32.3-99.2,36
			c-12,3.7-26.6,10.5-36.3,10.5c-9.7,0-62.3-3.1-74.3-2.3c-12,0.8-72.5-0.8-87.9-9.9s-35.9-23.1-55.3-26
			c-19.4-2.9-31.8-12.4-35.5-14.2c-3.7-1.7-57.6-41.1-62.6-46.7c-5-5.6-55.5-47.3-57.6-49.3s-13.9-12-13.3-12.3
			C4585.2,3053,4585.2,3053,4585.2,3053z"/>
	</g>
	<g id="sunnies">
		<path id="sunnies_outline_2_" d="M4300.8,2309.8c0,0-12.2,54.7-7.5,55.9c4.7,1.2,25.7-4.4,36.1,19.9s29,179.1,90.7,231.4
			c61.7,52.4,110.5,83.8,171.1,81.5c60.5-2.3,117.5-7,166.4-54.7c48.9-47.7,98.9-105.9,114-180.4s7-75.6,7-90.8
			c0-15.1-9.9-12.5-7-18.6c2.9-6.1-1.2-7.3,12.5-7.6c13.7-0.3,115.8,0.9,130.3,8.4c14.5,7.6,5.8,10.8,1.5,14.3
			c-4.4,3.5-11.3,6.1-11.6,18.9s-2.6,46,5.8,84.9c8.4,39,13.4,77.7,30.5,106.5c17.2,28.8,35.8,71,75.3,95.7
			c39.6,24.7,77.7,49.7,119,52.7s92.8,0.9,113.2-4.1c20.4-4.9,73.6-29.7,94.5-47.7c20.9-18,54.4-62,70.7-96.6
			c16.3-34.6,36.9-104.1,39.9-117.8c2.9-13.7,5.8-28.8,25-29.4c19.2-0.6,25,1.2,31.1-0.6c6.1-1.7,27.9,9.2,37.5,18.6
			s33.2,32.9,34.9,51.8c1.7,18.9,4.1,24.7,6.4,23c2.3-1.7,3.5-5.8,3.8-23.9c0.3-18,1.5-42.8-7.9-58.5c-9.3-15.7-24.7-38.4-46-53.2
			s-18.6-17.5-25.6-19.5c-7-2-8.4,4.1-33.2-3.5c-24.7-7.6-20.4,3.8-60.8-20.1s-87-46.3-135-60.8c-48-14.5-63.4-15.1-87.9-16.9
			c-24.4-1.7-62.8-7-117.8,5.8s-57,17.5-79.4,30.5c-22.4,13.1-42.2,33.2-47.7,34.9s-3.8,4.7-14.3,1.7s-63.1-9-87.3-9.9
			s-75.3-2.6-77.7-1.5c-2.3,1.2-10.5-0.6-15.7,2.3c-5.2,2.9-11.3,8.7-14.8,4.7c-3.5-4.1-10.8-30.3-64.6-53.5s-87.3-36.9-131.8-41.9
			c-44.5-4.9-108.5-8.7-164.7,8.7c-56.1,17.5-78.8,35.8-98.6,41s-23.3,8.7-38.4,11.9s-13.4,5.8-24.7,5.5
			C4307,2308.9,4300.8,2309.8,4300.8,2309.8z"/>
		<path fill="#675E5D" d="M4603.6,2260.9c50,4.7,75.6,4.7,112.1,20.9c36.5,16.3,53.1,22.5,74.1,46.5c20.9,24,40.7,51.2,41.1,80.7
			c0.4,29.5-0.4,82.6-9.3,100.5c-8.9,17.8-23.7,60.1-43.8,81.1c-20.2,20.9-30.6,42.3-81.1,63.6c-50.4,21.3-58.2,22.9-88.8,20.9
			s-90.4-8.1-127.2-39.2c-36.9-31-77.2-71-91.2-111.7c-14-40.7-22.9-58.2-20.9-90s-1.9-57.4,11.6-79.1c13.6-21.7,20.2-45,47.3-57.4
			c27.2-12.4,46.9-22.5,71.8-27.9c24.8-5.4,39.2-8.5,66.3-8.9C4592.7,2260.5,4603.6,2260.9,4603.6,2260.9z"/>
		<path fill="#675E5D" d="M5291.3,2293.1c69.8,8.5,102,13.6,132.3,30.6c30.3,17.1,71.8,45.4,80.3,72.5s26,69.4,10.1,116.4
			c-15.9,46.9-26.8,83.4-47.7,106.3c-20.9,22.9-44.2,52.3-72.1,65.1c-27.9,12.8-70.6,24.5-100.5,25.2c-29.9,0.8-66.7-3.5-89.6-13.6
			s-84.6-41.5-113.7-84.2c-29.1-42.7-41.5-72.1-44.6-104s-5-52.4,0-68.7s4.5-45.4,22.4-65.9c17.9-20.6,47-47.3,66.8-56.2
			c19.8-8.9,62.8-20.2,77.6-21.7c14.7-1.6,45.4-4.7,56.6-3.5C5280.5,2292.7,5291.3,2293.1,5291.3,2293.1z"/>
	</g>
</g>
<g id="shirt">
	<path id="shirt_1_" fill="#FFFFFF" stroke="#5C7464" stroke-width="6" stroke-miterlimit="10" d="M2698.8,4183.3
		c0,0,368.7-226.5,454.8-245.1c86.1-18.6,115.6-63.6,181.5-64.4c65.9-0.8,10.9-62.8,60.5-69.8c49.7-7,73.7,7,107.8-6.2
		c34.1-13.2,85.3-38.8,173.8-31c88.4,7.8,117.1,22.5,142,35.7c24.8,13.2,22.5-11.6,34.9-7s33.4,32.6,38.8,10.9
		c5.4-21.7,17.8-28.7,58.2-10.9c40.3,17.8,41.1-8.5,75.3,3.9s49.7,24,69,10.1c19.4-14,91.3-23.9,95.4-14.7c4.1,9.2,1.8,12,1.8,12
		s-26.5,46.8-15.1,133.7c11.4,86.9,331.9,550.3,331.9,550.3l677.9,68.4l403.8-446.3l16.2-343.4c0,0,22.6-8.3,49,3.4
		c26.4,11.6,28.7-16.1,65.2-7.6c36.5,8.4,90.8,70.5,100.1,70.5c9.3,0,23.3-3.1,67.5-16.3c44.2-13.2,51.2,17.1,76.8,11.6
		c25.6-5.4,53.5,0.8,57.4,31c3.9,30.3,55.1,23.3,82.2,34.9c27.2,11.6,33.4,25.6,48.1,16.3c14.7-9.3,48.9-14.7,68.3-38
		c19.4-23.3,10.1-37.2,46.5-35.7c36.5,1.5,136.1,21.8,156.5,37.3c20.4,15.5,28.9,35.7,53.8,37.2s76.6-11.1,96.1,5.7
		c19.5,16.8,332.1,180.5,480.3,300.7c148.2,120.2,358.5,301.2,366.2,322.8c7.7,21.6,13.9,1.5-6.3,29.4
		c-20.2,27.9-127.2,187.7-148.2,311.9s-46.5,127.8-46.5,127.8h-4460c0,0,3.9,15.7-58.2-47.9c-62.1-63.6-268.4-275.4-332-375.5
		c-63.6-100.1-65.8-90.3-63-93.1c2.7-2.9,129-116.3,148.4-128C2474.8,4356.3,2673.7,4191.1,2698.8,4183.3z"/>
	<path id="lapel" fill="#1F110E" d="M4243.8,3795.2c0,0,141.4-7,155.4-8.7c14-1.7,7.8,12.4,7.8,12.4s-40.7,7.3-47.9,44.8
		c-7.3,37.5-11.1,40.9-1.2,88.1c9.9,47.3,86.7,323.6,240.3,409.8c153.6,86.1,179.2,151.3,381.7,123.4
		c202.5-27.9,351.4-83.8,432.9-216.4c81.5-132.7,125.7-235.1,123.3-351.4c-2.3-116.4-25-154.2-29.1-165.2
		c-4.1-11.1-1.2-12.2,2.3-13.4c3.5-1.2,54.7,29.7,71,31.4c16.3,1.7,39-8.7,50,0c11.1,8.7,23.9,26.8,31.4,86.1
		c7.6,59.3,17.5,168.7-32.6,277c-50,108.2-78,192.6-149,267.1c-71,74.5-163.5,150.7-254.8,179.2c-91.3,28.5-261.2,78-411.4,46
		c-150.1-32-264.7-107.6-303.7-143.7c-39-36.1-155.4-164.7-194.9-235.1c-39.6-70.4-91.9-185.6-94.8-231.6
		c-2.9-46-14.5-126.3-9.3-146.6C4216.5,3827.8,4231,3799.9,4243.8,3795.2z"/>
	<g id="stripes">
		<path fill="#5C7464" d="M4947.3,4698.8c62.8,0,239.7-4.7,287.4-22.1c47.7-17.5,267.6-57.2,273.5-61.2s133.8-44.7,133.8-44.7
			s7,1.2,16.3-11.6c9.3-12.8,24.4-23.3,43.1-27.9c18.6-4.7,5.8-5.8,26.8-9.3c20.9-3.5,50-23.3,72.1-30.3c22.1-7,60.5-18.6,75.6-23.3
			s30.8-9.6,32.9-15.4c2-5.8,4.4-13.4,4.7-10.2s-3.8,47.4-7.3,55c-3.5,7.6-4.4,11.1-13.4,15.4s-119.6,45.1-130.3,50
			c-10.8,4.9-26.8,14.3-34.3,15.4c-7.6,1.2-14.8,1.2-28.2,5.8c-13.4,4.7-26.8,6.1-38.4,18c-11.6,11.9-23.3,23-33.5,25.9
			s-46,9-87.6,24.1c-41.6,15.1-29.1,15.7-47.7,17.5c-18.6,1.7-43.6,5.2-94.3,15.7c-50.6,10.5-152.7,33.2-187.6,40.7
			c-34.9,7.6-49.2,17.2-128.9,19.2c-79.7,2-144.6,10.5-384-12.8c-239.4-23.3-296.4-26.8-371.8-46.3c-75.3-19.5-76.8-19.5-81.5-25.6
			s-12.2-39.1-17.7-45.5c-5.5-6.3-12.5-23.8-36.4-39.2s-57.9-30.8-79.4-40.4c-21.5-9.6-27.1-8.7-39.9-23.6
			c-12.8-14.8-22.7-25.6-25.9-35.8s-7.3-32.6-7.6-39.9c-0.3-7.3-1.7-16.3,0-11.6c1.7,4.7,6.1,19.8,32.9,32.6
			c26.8,12.8,63.1,25,72.4,31.4c9.3,6.4,29.7,12.2,36.7,25.6s12.2,16.3,20.1,39.9c7.9,23.6,11.3,41.5,19.6,45.7
			c8.3,4.2,35.1,20.4,115.9,34s146.9,24.7,311,40.4c164.1,15.7,226,23.9,254.3,23.9C4928.9,4698.5,4947.3,4698.8,4947.3,4698.8z"/>
		<path fill="#5C7464" d="M3772.5,4188c41.2,16,71.6,34.9,97.2,62.3c25.6,27.3,20.9,28.5,53.5,32c32.6,3.5,56.4,1.7,70.4,19.2
			c14,17.5,16.9,36.1,19.8,42.5c2.9,6.4,12.8,25.6,4.7,18c-8.1-7.6-7-18-48.9-22.7s-48.9-2.9-55.9-9.3c-7-6.4-21.5-23.9-49.5-43.6
			s-41.9-30.3-73.3-39s-38.4-15.1-79.1-15.7c-40.7-0.6-36.1,2.3-46-1.7c-9.9-4.1-12.2-15.1-44.8-21.5c-32.6-6.4-49.5-4.7-52.9-7
			c-3.5-2.3-2.9-5.8-7.6-20.9c-4.7-15.1-9.9-48.3-12.8-50c-2.9-1.7-6.7-10.2-25.3-5.8c-18.6,4.4-39,13.1-40.7,14.8
			c-1.7,1.7-4.1,6.4-3.5,1.2c0.6-5.2,0.9-43.3,2.3-44.5c1.5-1.2,14.5-17.7,26.2-18.9c11.6-1.2,16.9-4.7,25-1.2
			c8.1,3.5,9,2.6,10.2,11.9c1.2,9.3,0.9,31.7,2.9,35.2c2,3.5,9.2,21.5,9.7,21.6c0.5,0.1,37.3-2.2,49.6,3.9
			c12.2,6.1,39.7,29.6,58.8,30.6c19.1,1.1,72.5-3.4,87.5,1.3C3764.9,4185.2,3768.1,4186.3,3772.5,4188z"/>
		<path fill="#5C7464" d="M6066.7,4206c49.5-10.5,62.8-5.2,99.5-25c36.7-19.8,61.7-32.6,69.2-35.5s5.2-7,7.6-2.9
			c2.3,4.1-7,50.6-11.6,54.1s-49.5,31.4-62.3,37.2c-12.8,5.8-27.9,16.9-43.6,18.6c-15.7,1.7-73.3,11.1-97.2,21.5
			s-70.4,33.7-86.1,61.7c-15.7,27.9-18,34.9-19.2,31.4c-1.2-3.5-0.6-26.8,5.2-43.1s11.6-41.9,36.1-61.1
			c24.4-19.2,58.8-40.7,75.1-48.3C6055.7,4207.2,6066.7,4206,6066.7,4206z"/>
		<path fill="#5C7464" d="M4913.9,4938.2c96.2,1.6,98.5,6.2,311.9-28.7s255.2-41.1,317.3-59s55.9-15.5,76-27.9
			c20.2-12.4,45-25.6,73.7-30.3s31.8-5.4,69.8-22.5c38-17.1,72.9-21.7,97.7-44.2s24.8-23.8,24.8-21.7c0,2.1-2.2,45.7-5.7,51.6
			c-3.6,5.8-43.1,43.4-72.2,55.1c-29.1,11.6-55.9,30.3-78,31.4s-62.8,7-78,16.3c-15.1,9.3-8.1,19.8-59.3,33.7
			c-51.2,14-115.2,38.4-233.9,53.5c-118.7,15.1-240.9,36.1-253.7,36.1c-12.8,0-36.1,4.7-53.5,8.1c-17.5,3.5-115.6,9.3-136.9,5.8
			c-21.3-3.5-85.3-10.5-177.3-14c-91.9-3.5-80.3,2.3-178-17.5c-97.7-19.8-120.3-20.9-173.6-50c-53.3-29.1-120.8-73.9-133-84.9
			c-12.2-11.1-67.7-71-81.3-90c-13.6-19-72.1-81.5-80.3-93.9c-8.1-12.4-12.8-28.7-27.9-43.4c-15.1-14.7-33.4-30.6-73.3-38.4
			s-86.1-20.9-100.9-28.3s-20.2-12.8-45.8-15.5c-25.6-2.7-67.4-19.4-93.1-22.5c-25.6-3.1-20.6-3.1-53.6-17.1
			c-33-14-21.7-15.1-41.9-17.5c-20.2-2.3-20.6,4.3-23.7-2.3c-3.1-6.6-9.3-53.1-16.3-59.7c-7-6.6-9.3-15.9-49.3-20.2
			c-40-4.3-57.8-12.8-83.8-12.4c-26,0.4-29.1,2.7-27.9,0c1.2-2.7,5.8-7.7,7-21.7c1.2-14,1.9-23.7,3.9-24.8s3.1-8.9,22.9-7.8
			c19.8,1.2,17.8-4.7,59.3,3.5c41.5,8.1,44.6,10.1,48.5,14.7s8.5,19.8,9.7,31.8c1.2,12,4.3,27.2,8.5,31s26.8,13.6,40.3,17.1
			c13.6,3.5,24.4,5,28.7,9.3c4.3,4.3,1.6,5,19.4,8.1c17.8,3.1,51.6,12,71.4,15.1c19.8,3.1,30.3,8.9,45,9.3
			c14.7,0.4,26.4,5,41.1,13.6c14.7,8.5,22.1,14.4,54.3,23.3c32.2,8.9,26.8,14.7,42.7,15.9s69.4,15.1,79.1,22.9s17.8,9.7,27.5,42.7
			c9.7,33,18.2,45.8,31,58.6c12.8,12.8,61.3,73.7,68.7,84.2c7.4,10.5,50.8,68.3,78,85.7c27.2,17.5,78,61.7,136.2,77.6
			s112.1,31.8,311.1,45.4C4886.4,4937,4913.9,4938.2,4913.9,4938.2z"/>
		<path fill="#5C7464" d="M6001,4488.8c57-17.5,110-33.2,135-43.1c25-9.9,50.6-25.6,56.4-43.1s9.9-79.7,30.3-97.2
			c20.4-17.5,73.3-68.1,86.1-73.3c12.8-5.2,24.4-11.6,34.3-9.9c9.9,1.7,5.8,0,9.3,8.7s14,36.7,11.6,37.8
			c-2.3,1.2-35.5,6.4-57.6,22.7c-22.1,16.3-59.9,40.7-72.1,55.9s-30.3,33.7-40.1,73.3c-9.9,39.6-17.5,63.4-27.9,68.1
			c-10.5,4.7-84.4,32-111.7,41.3c-27.3,9.3-52.9,18-64,23.9c-11.1,5.8-52.4,26.2-72.1,51.8c-19.8,25.6-23.9,39.6-24.4,35.5
			c-0.6-4.1-2.9-39.6,0-44.8c2.9-5.2,14-46,50-72.1C5980,4498.1,6001,4488.8,6001,4488.8z"/>
		<path fill="#5C7464" d="M5815.4,4269.4c29.5-8.5,48.9-18.6,65.9-33.4c17.1-14.7,27.3-31.8,41.2-39.6c13.9-7.8,17-10.9,14.7,0
			c-2.3,10.9-2.3,34.1-10.1,45.8s-8.5,20.9-28.7,31.8c-20.2,10.9-38.8,37.2-77.6,44.2c-38.8,7-55.9,11.6-66.7,11.6
			c-10.9,0-11.6,3.9-14,0c-2.3-3.9,7.8-9-22.5,1.7c-30.3,10.7-25.2-0.6-46.9,17.7c-21.7,18.2-31.8,33.4-62.8,39.6
			c-31,6.2-55.5,11.6-88.4,24c-33,12.4-110.7,35.4-106.5,31.7s59.2-65.7,74.3-72.2s76.4-30.5,98.5-32.8c22.1-2.3,32.2-1.6,55.1-19
			s36.5-34.5,62.8-38.8c26.4-4.3,36.9-7.4,44.6-3.1c7.8,4.3,14.4,7,31.4,2.7C5796.8,4277.2,5815.4,4269.4,5815.4,4269.4z"/>
		<path fill="#5C7464" d="M6294.8,4551c-38,23.3-72.1,42.1-82.2,64.5c-10.1,22.4-23.3,55.7-62.1,75.1c-38.8,19.4-59.7,31.7-128,58.1
			c-68.3,26.4-95.6,50.5-109.1,62.1c-13.5,11.6-26.7,45.8-38.3,82.2s-14,49.8-50.4,84.6c-36.5,34.7-40.3,34.7-36.5,34.7
			s40.1,2.2,43.6,0c3.5-2.2,40.9-49.1,45.6-59c4.7-9.9,9.3-18.6,11.4-35.3c2.1-16.7,5.8-31.4,25.4-46.9
			c19.6-15.5,46.9-41.7,130.7-76.4c83.8-34.7,112.7-46.4,133.4-66.3c20.8-20,33.9-39.2,36.5-45.2c2.5-6,16.7-24,77-61.7
			c60.3-37.6,84-59.2,113.5-79.5c29.5-20.4,37.4-28.5,40-26c2.5,2.5,28.7,88.8,29.7,86.3c1-2.5,2.3-50.8,10.9-93.5
			c8.5-42.7,20.8-81.7,20.2-98.3c-0.6-16.7,7.2-71.4,24.6-118.1s40-121.4,73.1-176.1c33.2-54.7,48.3-91.3,71-108.2
			c22.7-16.9,42.6-27.2,39.2-29.1c-3.4-1.9-30.7-24.3-36.1-20.6c-5.4,3.7-79.3,54.9-121.8,143.4c-42.5,88.4-64.6,143.1-71.6,168.7
			c-7,25.6-42.5,192-43.1,210.6c-0.6,18.6-1.2,15.6-1.4,14.6c-0.2-0.9-14.6-38.8-17.1-37.2s-25.7,15.2-64.5,44.9
			C6319.6,4533.2,6294.8,4551,6294.8,4551z"/>
		<path fill="#5C7464" d="M6289.8,4869.5c49.7-40.3,93.5-76.8,124.1-92.3c30.6-15.5,52.8-27.9,70.2-40.3
			c17.5-12.4,19.4-17.8,20.6-14s16.7,60.5,13.2,62.1c-3.5,1.6-60.5,32.6-93.9,53.5s-57,40.3-71.4,47.7
			c-14.4,7.4-22.1,12.8-59.3,43.1s-41.9,38.4-77.6,56.6c-35.7,18.2-49.3,26.6-53.5,26.6c-4.3,0-136.5,0-134.6,0
			s25.2-11.1,113.3-54.1s101.6-51.6,125.3-70.2C6289.8,4869.5,6289.8,4869.5,6289.8,4869.5z"/>
		<path fill="#5C7464" d="M6671.1,4414.5c-20.9,103.2-55.1,243.6-67.5,313.4c-12.4,69.8-30.6,176.9-34.1,193.2
			c-3.5,16.3-11.1,25-9.6,31.4s16.9,39,14.8,42.2c-2,3.2-32,16.9-26.8,16.3c5.2-0.6,46,4.7,46.3,1.5s39.6-228.7,51.8-270
			c12.2-41.3,5.7-35.9,56.1-231.6c50.4-195.7,40.3-183.8,74.1-256.5c33.7-72.7,72.1-124.7,82.2-135.1c10.1-10.5,37.9-33.1,35.7-34.4
			c-2.2-1.3-40.8-27.1-42.3-25.6c-1.5,1.5-41.5,31.3-73.3,88.7c-31.8,57.4-76.9,144.1-92.7,207.9
			C6670,4419.8,6671.1,4414.5,6671.1,4414.5z"/>
		<path fill="#5C7464" d="M6929.4,4338.5c-20.9,37.2-102.4,198.6-106.3,225.8c-3.9,27.2-20.9,121-23.3,145.8
			c-2.3,24.8-14.7,98.5-22.5,114c-7.8,15.5-28.7,76-28.7,93.9s-13,65.6-16.7,71.6c-3.7,6-11.4,22.9-10.3,22.9c1.2,0,14.7,1.9,14.9,1
			c0.2-1,28.1-74.1,44.2-125.7s51.2-162.9,79.3-263.8c28.1-100.9,43.6-144.3,47.9-164.5c4.3-20.2,16.7-41.5,24.8-50.8
			c8.1-9.3,34.9-36.8,46.9-57.4c12-20.6,29.1-62.5,61.3-88.4c32.2-26,51.3-42.8,49-44.7c-2.4-1.9-47.1-43.3-51.9-39
			c-4.8,4.2-57.9,66.7-67.3,83.8C6961.6,4279.9,6929.4,4338.5,6929.4,4338.5z"/>
		<path fill="#5C7464" d="M6931.9,4697.7c-9.9,29.7-46.5,116.4-55.3,186.2s-12.2,128.6-10.2,128.6s36.9,1.8,37.2,0
			s-2.6-77.4,5.5-129.2c8.1-51.8,23.6-103.3,37.2-133.2c13.7-30,25-54.1,39.6-77.4c14.5-23.3,35.5-59.8,47.1-86.3
			c11.6-26.5,23.3-45.2,39.6-71.3c16.3-26.2,27.9-36.9,38.1-64.6c10.2-27.6,11.6-32.9,9.9-31.7c-1.7,1.2-18.9,24.7-40.1,40.7
			c-21.2,16-56.7,59.6-69.2,80.3c-12.5,20.7-43.6,66.6-59.9,108.8C6935.1,4690.7,6931.9,4697.7,6931.9,4697.7z"/>
		<path fill="#5C7464" d="M7146.9,4341.9c-4.1,11.1-17.7,36.9-14.5,36.4c3.2-0.6,14.5-8.4,26.8-9.3c12.2-0.9,16-0.6,36.4-11.9
			c20.4-11.3,36.2-21.5,34.7-22.8c-1.5-1.3-38.2-36.2-40.8-34.3c-2.6,1.9-22.1,5.8-30,19.2S7146.9,4341.9,7146.9,4341.9z"/>
		<path fill="#5C7464" d="M7090.3,4715.9c-7.7,29.5-19.9,86.5-26.9,129c-7,42.5-12.2,81.5-13.4,96.6c-1.2,15.1-28.7,67.5-27.9,68.5
			s1.4,3.4,2.5,2.6c1.2-0.8,12-23.7,41.9-76.4c29.9-52.8,27.5-43.3,38.4-84c10.9-40.7,28-127.3,53.3-182
			c25.3-54.7,31.1-71.3,57.3-107.9c26.2-36.7,27.3-31.4,41.3-50.3c14-18.9,7.3-18.6,44.2-43.6c36.9-25,36-27.4,41.6-29.8
			c5.6-2.4,4.7-3.2,4.2-3.6c-0.5-0.4-30.3-28.3-31.7-27.7s-37.1,39.5-46.1,47.7c-9,8.1-22.4,16.6-24.7,20.7
			c-2.3,4.1-11.3,15.4-15.7,19.2c-4.4,3.8-27.3,25.3-42.8,48.3c-15.4,23-22.7,38.1-44.2,66c-21.5,27.9-29.7,36.7-39.9,70.4
			C7091.6,4713.1,7090.3,4715.9,7090.3,4715.9z"/>
		<path fill="#5C7464" d="M7380.5,4588.7c-26,34.1-89.2,136.9-119.5,232c-30.3,95-56.6,166-61.3,177.3s-8.3,14.6-6.9,14.6
			s63.8,0.7,65.5,0c1.7-0.7,16.5-14.8,23.2-34.4c6.8-19.7,19-72.8,21.7-90.7s10.1-48.2,24-82.5c13.9-34.3,47.4-111.3,84.3-168.5
			s57.3-78.5,54.8-81.2c-2.5-2.7-23.7-37.8-27.2-35.4S7380.5,4588.7,7380.5,4588.7z"/>
		<path fill="#5C7464" d="M6446.9,3946.3c-6.2,14.4-21.7,41.5-35.3,56.6c-13.6,15.1-22.1,32.2-35.3,41.9
			c-13.2,9.7-29.9,30.6-36.1,41.1c-6.2,10.5-12.8,19.4-12,21.7c0.8,2.3,0.4,25.6,5,36.1s11.6,24.4,11.6,30.6c0,6.2,7-11.6,12.8-22.9
			c5.8-11.2,17.5-34.1,18.6-43.4s2.7-23.7,15.9-38.8c13.2-15.1,19.4-26,31.8-36.5s19.8-22.1,28.7-39.6c8.9-17.5,21.7-36.1,36.5-48.9
			c14.7-12.8,17.5-16.2,34.5-23.7c17-7.5,20.3-7.8,18.7-7.6s-19.3,1.9-25.6,1.1c-6.3-0.9-16.3-1.2-38,8.1
			c-21.7,9.3-24.8,7-28.3,15.5S6446.9,3946.3,6446.9,3946.3z"/>
		<path fill="#5C7464" d="M6284.7,4016.1c10.1-1.3,15.9-3.1,23.3,2.3c7.4,5.4,17.1,12,17.8,18.6s5.7,8.5,2.3,11.6
			c-3.4,3.1-4.2,5.8-4.2,13.2c0,7.4,4.3,16.3,0.8,14c-3.5-2.3-14-11.6-22.9-14.4c-8.9-2.7-19.4-7.4-30.3-0.4
			c-10.9,7-17.1,19.8-17.8,17.8c-0.8-1.9-2.3-15.9,4.3-32c6.6-16.1,5-19.2,8.5-21.6C6270,4023.1,6279,4016.9,6284.7,4016.1z"/>
		<path fill="#5C7464" d="M6374.3,3859.8c6.6,5.8,14.7,15.9,15.1,23.7c0.4,7.8,1.9,29.3,0,29.6c-1.9,0.3-5.3,1.8-7.1,5
			c-1.8,3.1-2.2,12.1-3.8,9.3c-1.6-2.8,2.3-17.1-4.3-23.7s-8.1-15.5-22.5-16.3c-14.4-0.8-17.1-2.3-19.4-0.8c-2.3,1.6-3.9,4.3,0-3.1
			c3.9-7.4,5.8-13.2,10.9-16.7c5-3.5,6.2-10.9,18.6-8.9S6374.3,3859.8,6374.3,3859.8z"/>
		<path fill="#5C7464" d="M6190.5,3943.6c26-4.7,35.6-5.8,52.9-6.2s38.6,3.1,45.2,0c6.6-3.1,9.3-7.4,8.5-3.1s-10.1,9.3-14.7,21.7
			c-4.7,12.4-11.2,18.6-7.8,21.7c3.5,3.1-0.8,4.7-5,5c-4.3,0.4-17.8,1.9-41.1,7c-23.3,5-43.4,6.2-55.9,7.4
			c-12.4,1.2-17.5,2.3-33.4,5c-15.9,2.7-28.3,7-35.3,12.6c-7,5.6-23.7,21.1-27.5,26.6c-3.9,5.4-1.2,12-14.7,19.8
			c-13.6,7.8-28.3,12-41.3,3.9c-13-8.1-21.7-14.2-31.6-7.4c-9.9,6.8-19.2,20.9-19.6,35.7c-0.4,14.7,1.4,12.8-9.3,23.7
			c-10.7,10.9-11.6,19.2-13,17.5c-1.4-1.7-2.9-10.9,0-16.9c2.9-6,11.1-22.1,13.8-25.2c2.7-3.1,6-0.8,6.4-13.2
			c0.4-12.4-4.5-26.8-2.7-30.6s1.5-11.9,5.2-16.3c3.8-4.4,12.5-17.2,29.7-5.5c17.2,11.6,16.6,23.9,32.3,25.3
			c15.7,1.5,21.5,3.5,29.7-1.5c8.1-4.9,7.7-1.5,21.8-21.2c14-19.8,24.2-42.2,47.5-55.9c23.3-13.7,37.7-20.1,48.9-25
			C6190.5,3943.6,6190.5,3943.6,6190.5,3943.6z"/>
		<path fill="#5C7464" d="M5704.8,3819.1c14.5-3.8,33.2-7.6,44.2-4.9c11.1,2.6,8.1,2,11.6,14.5c3.5,12.5-2,13.7,15.7,20.1
			c17.7,6.4,16,8.1,19.2,14.3s-2.6,4.7,9.3,4.7c11.9,0,13.4,1.6,46-10.1s32-16.7,43.6-15.8c11.6,0.9,18.6-3.8,24.4,6.4
			c5.8,10.2,7,14,18.9,19.6c11.9,5.7,19.2,5.1,15.1,7.4c-4.1,2.3-4.1,6.1-16,2c-11.9-4.1-15.7-14-34.3-12.8
			c-18.6,1.2-26.2,0-42.5,13.1c-16.3,13.1-18,16.9-37.2,18.3c-19.2,1.5-26.5,0.6-32.9-9.6c-6.4-10.2-5.2-10.8-12.8-10.2
			s-14,4.1-14.5,0.3c-0.6-3.8,1.5-12.5-1.7-14c-3.2-1.5-14.3-9.6-34.9,2.9c-20.7,12.5-27.6,18.3-40.4,21.5
			c-12.8,3.2-18.5,6.2-18.6,4.1c-0.1-2.1-7.4-47-4.3-47.1c3.1-0.1,1.9,2.6,18.2-9.7C5697.3,3822,5704.8,3819.1,5704.8,3819.1z"/>
		<path fill="#5C7464" d="M5850.7,4033.6c40.3,0,64,4.6,79.9,0c15.9-4.6,22.5-9.7,27.5-12.4c5-2.7,2.3,2.7,3.9,8.9
			c1.6,6.2,0.8,10.5-3.5,11.6c-4.3,1.2-18.6,15.9-22.5,20.2s-14.4,16.7-35.3,20.6s-42.3,7.8-62.8,5.8c-20.6-1.9-27.9-3.1-57,3.1
			c-29.1,6.2-28.7,9.7-33.4,5.4c-4.7-4.3,0.2-9.9-3.7-9.1c-3.9,0.8-10.1-4.1-33.7,4.7c-23.7,8.7-23.7,8.1-36.9,17.6
			s-12.6,12.4-32.2,19.4c-19.6,7-24.9,12.2-23.2,8.5s23.1-60.6,26.1-61.5s0.8,1.8,33.4-16.4c32.6-18.2,35.3-19.4,45.6-19.6
			c10.3-0.2,21.5-2.7,22.7,1.6s1.2,4.1,9.5,1.4s12-6.6,45-8.1C5833,4033.6,5850.7,4033.6,5850.7,4033.6z"/>
		<path fill="#5C7464" d="M6026.3,3877.8c12.5,8.1,24.4,19.2,26.8,33.5c2.3,14.3-2,24.1-4.7,34.9c-2.6,10.8-5.5,17.5-3.2,18.6
			c2.3,1.2,8.1,6.1,22.4,0c14.3-6.1,17.5-9.3,43.1-12.2s41.6-4.7,41.3-3.5c-0.3,1.2-22.1,27.6-27.3,28.2c-5.2,0.6-7.3-0.3-32.3,4.4
			s-37.5,11.1-43.1,2.9s-10.2-18-11.1-30c-0.9-11.9,1.7-23.9-11.9-38.7s-22.1-16.6-33.5-10.8c-11.3,5.8-11.6,13.1-11.1,8.1
			c0.6-4.9,3.5-25.3,5.2-27.6c1.7-2.3,9.9-11.6,20.1-11.1S6026.3,3877.8,6026.3,3877.8z"/>
		<path fill="#5C7464" d="M2706.6,4899c20.9,16.3,94.8,73.3,118.1,87.9s46.5,25.6,38.4,25.6c-8.1,0-64.8,2.8-67.6,1.4
			c-1.2-0.6-30.7-21.8-104.8-100.2c-70.9-75.1-158.3-168.5-185.4-200.7c-47.9-57-151.9-202.9-156.1-210c-4.2-7-9.6-8.6-4.2-7
			c5.4,1.6,45,44.1,56,61.5c11.1,17.5,160.6,188.5,179.2,205.4s99.5,117.5,112.9,126.8S2706.6,4899,2706.6,4899z"/>
		<path fill="#5C7464" d="M3975,4771.6c72.7,23.3,133.2,41.3,147.2,46c14,4.7,88.4,43.6,113.5,64.6c25,20.9,46,35.5,59.9,44.8
			c14,9.3,26.2,18,45.4,38.4c19.2,20.4,28.5,31.4,37.2,37.2s13.4,9.9,11.1,9.9c-2.3,0-30.3,4.1-34.3,0c-4.1-4.1-25-29.7-39.6-39.6
			c-14.5-9.9-26.2-16.3-40.7-22.7c-14.5-6.4-43.1-34.3-80.9-48.3c-37.8-14-76.2-27.3-103.6-34.3c-27.3-7-74.5-22.7-104.1-32.6
			c-29.7-9.9-40.1-16.3-55.9-18.6c-15.7-2.3-36.1-16.3-46-20.4s-14-2.3-36.7-24.4c-22.7-22.1-23.9-27.3-45.4-39
			c-21.5-11.6-35.1-16.9-52.7-15.7c-17.7,1.2-42.1,2.9-48.5-4.1c-6.4-7-15.7-38.4-24.4-42.5c-8.7-4.1-11.6-12.8-87.3-21.5
			c-75.6-8.7-121.6-17.5-140.8-21.5s-61.7-12.8-62.3-16.9c-0.6-4.1,0-26.2,8.1-39c8.1-12.8,7-14.5,14.5-14.5s14.5,3.5,62.8,9.9
			c48.3,6.4,84.4,15.9,103,19.6s62.3,10.1,75.1,15.3c12.8,5.2,15.7,15.1,20.9,30.3s0,25.6,18,25.6c18,0,54.1,1.7,68.7,8.1
			c14.5,6.4,19.8,20.4,36.1,26.8c16.3,6.4,27.3,12.8,34.9,21.5c7.6,8.7,9.9,15.1,24.4,20.4c14.5,5.2,54.1,18.6,80.9,25
			C3960.5,4765.7,3975,4771.6,3975,4771.6z"/>
		<path fill="#5C7464" d="M3557.3,4850.7c43.1,7,104.7,18,132.7,20.4c27.9,2.3,52.9,12.8,62.3,24.4c9.3,11.6,18.6,18.6,47.7,20.9
			c29.1,2.3,75.6,4.7,93.7,18.6s39,37.2,43.6,47.1c4.7,9.9,46.5,30.3,40.1,30.3c-6.4,0-26.2,3.5-28.5,0s-24.4-14.6-41.9-21
			c-17.5-6.4-47.1-7-79.7-12.8s-41.3-8.1-55.3-21.5s-37.8-26.2-80.3-28.5c-42.5-2.3-108.8-9.9-147.8-20.4
			c-39-10.5-44.4-8.1-66.1-26.8c-21.7-18.6-14.7-19.8-61.3-27.3s-87.3-14-88.4-18c-1.2-4.1,8.7-29.1,14-41.3s4.1-11.5,20.4-9.3
			c16.3,2.3,53.5,3.4,75.6,22.1c22.1,18.6,30.8,30.3,75.1,36.7C3557.3,4850.7,3557.3,4850.7,3557.3,4850.7z"/>
		<path fill="#5C7464" d="M4283.4,4377.1c48.3,9.9,102.4,22.7,134.4,26.8c32,4.1,37.6,0.9,40.9,4.5c3.3,3.6,69.7,59.7,60.7,61.1
			c-9.1,1.4-36.4-4.5-62.6-8c-26.2-3.5-126.3-18.6-147.2-24.4s-27.9-9.9-36.1-7.6c-8.1,2.3-20.4-2.9-34.9-9.3
			c-14.5-6.4-66.3-11.1-68.7-27.3c-2.3-16.3-1.2-77.4-7.6-86.7c-6.4-9.3-25-29.7-49.5-32c-24.4-2.3-58.2-11.1-65.2-15.7
			s-34.9-20.9-48.9-58.8c-14-37.8-20.9-66.9-44.2-77.4c-23.3-10.5-49-9.9-66.7-12.8s-49.1-12.9-60.7-35
			c-11.6-22.1-11.1-40.7-31.4-40.7s-44.2,5.2-58.8-7.6c-14.5-12.8-41.3-36.1-71.6-30.8c-30.3,5.2-49.5,20.9-91.3,8.1
			c-41.9-12.8-52.9-7-61.1-32.6s-7-39.5-18.6-43.6c-11.6-4.1-26.2-0.6-32,18.6c-5.8,19.2-7.4,34.3-9.5,29.1s-7.4-22.7-7.4-28.5
			s-5.8-23.3,0-33.7s22.5-26.2,32.2-19.2c9.7,7,18.4,16.9,23.1,27.3s2.9,22.1,26.2,31.4c23.3,9.3,52.4,15.1,77.4,7.6
			c25-7.6,59.3-14,69.8-8.7s26.8,14.5,37.8,27.3s19.1,30.3,37.5,26.2c18.4-4.1,41.1-17.5,53.9-7s16.9,18.6,25.6,35.5
			c8.7,16.9,35.5,33.2,52.9,31.4c17.5-1.7,46-4.2,64,9.8s23.1,19.3,35.7,47.2c12.6,27.9,12.5,44.2,39.6,66.3
			c27.1,22.1,21.3,27.9,54.5,31.1s55.3-0.3,66.3,12c11.1,12.2,25,48.3,26.8,61.7c1.7,13.4-4.7,30.3,7.6,41.9
			c12.2,11.6,36.7,27.9,51.8,32.6s29.7,13.4,34.9,11.1c5.2-2.3,5.8-4.1,11.1-2.9C4279.3,4376.5,4283.4,4377.1,4283.4,4377.1z"/>
		<path fill="#5C7464" d="M4223.6,4137.9c19.1,2.9,36.9,5.3,46.4,12.2c9.5,6.9,6.3,8.5,11.3,10.6c5,2.2,33.5,54.5,27.7,54
			c-5.8-0.6-20.3-12.8-30.8-17.5s-29.1-12.8-39-8.1c-9.9,4.7-10.8,9.9-15.6,7c-4.8-2.9-31.6-46-43.8-58.2
			c-12.2-12.2-39-25-49.5-27.3c-10.5-2.3-13.4-8.7-16.3-18.6c-2.9-9.9-6.4-30.8-12.2-37.8s-5.8-19.8-28.5-16.3
			c-22.7,3.5-22.7,10.5-39,1.7c-16.3-8.7-4.2-28.5-13.1-33.7c-9-5.2-10.7-12.2-32.8-10.5c-22.1,1.7-47.1-0.6-54.1-12.2
			c-7-11.6-19.2-51.2-26.8-58.2c-7.6-7-9.3-15.1-34.9-14c-25.6,1.2-35.5,1.2-43.1-8.1c-7.6-9.3-14.5-27.3-30.8-24.4s-14,0-20.9,8.7
			c-7,8.7-8.7,19.8-20.9,25c-12.2,5.2-27.9,15.1-40.7,1.7c-12.8-13.4-32.6-41.9-44.2-48.3c-11.6-6.4-59.3-25-70.4-31.4
			c-11.1-6.4-47.7-18.6-63.4-21.5s-32.1-2.3-36.7-5.8s-12.3-3.9-9.9-3.8c2.3,0.1,23.5,0.7,28.5,0c5-0.7,62.9,15.5,93.2,27.7
			c30.3,12.2,52.4,20.9,66.9,32c14.5,11.1,22.7,30.3,38.4,33.2s33.2,5.2,37.8-1.2c4.7-6.4,14.5-21.5,19.2-28.5
			c4.7-7,10.5-19.2,22.7-19.2s23.9,15.7,28.5,18s7.6,11.6,27.3,9.9c19.8-1.7,29.1-3.5,37.8,2.9c8.7,6.4,10.5,23.3,16.9,37.8
			c6.4,14.5,8.7,33.7,19.2,43.1c10.5,9.3,20.9,9.9,33.2,5.8c12.2-4.1,19.8-9.3,32-5.2c12.2,4.1,18.6,13.4,25.6,21.5
			s13.4,16.9,18,16.9c4.7,0,10.5,2.3,20.4-1.2c9.9-3.5,20.9-1.2,25,1.2c4.1,2.3,15.7,19.2,18,29.7c2.3,10.5,8.1,43.5,13.4,47.1
			c5.2,3.5,39.9,13.7,47.1,19.3c7.3,5.5,21.5,45.1,25.9,46.3s13.6,0.9,23.4-0.6C4219.7,4137.9,4223.6,4137.9,4223.6,4137.9z"/>
		<path fill="#5C7464" d="M4144.6,3924.4c23.9-4.9,37.2-5.8,49.2-2s20.9,8.8,21.2,11.4c0.3,2.6,7.9,39.1,3.8,39.1
			c-4.1,0.1-1.2-4.9-34-9.3s-44.8-7.6-47.4-0.6c-2.6,7-4.9,10.8-2.9,16.6c2,5.8-4.7-7-7.6-11.3c-2.9-4.4-13.7-15.4-12.2-21.5
			c1.5-6.1,2-10.2,13.1-14.8C4138.8,3927.3,4144.6,3924.4,4144.6,3924.4z"/>
		<path fill="#5C7464" d="M3611.4,3808.6c23.6,0.6,59.6,4.7,67.8,10.5c8.1,5.8,17.7,20.1,26.8,22.7c9,2.6,11.9,5.8,17.5-1.5
			s14-22.4,16-34.3c2-11.9,7.3-24.1,11.6-27.1s5.8-7.6,11.3-6.7s25.3,2.2,24.4,4.4c-0.9,2.3-4.1,7.8-14.2,11.9
			c-10.2,4.1-19.8,22.1-26.5,46.3c-6.7,24.1-5.2,27.3-13.4,27.1c-8.1-0.3-16-11.1-30.8-11.3c-14.8-0.3-19.5-8.4-23.3-4.9
			s-2,4.9-24.4-5.2s-57.6-24.7-60.8-28.5S3611.4,3808.6,3611.4,3808.6z"/>
		<path fill="#5C7464" d="M4189.4,3793c-7.2,2.8-42.7,15.3-41,27.3s3.9,29.7-0.1,33.5c-4,3.8-1.7,9.3-9.8,8.2
			c-8.1-1.2-23.3-6.1-27.3-11.7c-4.1-5.5-19.2-13.1-28.2,3.8c-9,16.9-8.4,31.4-9.3,37.8s-0.9,7.3-2.3,7.5s-0.9-1.5,0,2.9
			c0.9,4.4,2.3,4.7,5.5,3.5c3.2-1.2,14,6.7,14-1.7c0-8.4-2.3-31.1,4.1-34.9c6.4-3.8,11.3-12.2,28.8-5.8c17.5,6.4,22.1,12.8,26.2,9.3
			s9.3-16.6,9.6-23.6c0.3-7,6.7-21.8,20.9-27.6c14.3-5.8,17.7-14,28.2-10.8c10.5,3.2,12.6,11.4,14.4,8.2s8.9-12.5,8.3-15.8
			c-0.6-3.3-1.9-10.5-7.9-11.2C4217.3,3791.2,4189.4,3793,4189.4,3793z"/>
		<path fill="#5C7464" d="M4061.7,3825.8c0,11.1,5.2,27.8-1.2,24.1c-6.4-3.7-7.9-26.1-19.5-28.1c-11.6-2-15.1-5.2-16.9-2.9
			c-1.7,2.3-2.6,1.9-6.1-0.8c-3.5-2.7-24.7-17.8-29.7-9.7c-4.9,8.1-0.2,16-6.8,13.4c-6.6-2.6-31.9-11.1-36.5-4.7
			c-4.7,6.4,1.7,16.6-9.9,13.4c-11.6-3.2-31.1-15.4-34.8-10.2c-3.6,5.2-3,12.9-6.2,7.9c-3.2-5-18.3-13.4-22.1-13.7
			c-3.8-0.3,0-8.5,0-8.5s5.6-2,9-5.5s6.1-11.2,19.3,0c13.2,11.2,12.6,14.7,23.7,14.1c11.1-0.6,7.9-4.1,13.1-4.1s12.5,4.1,14,0.6
			c1.5-3.5-0.9-14.5,5.5-18c6.4-3.5,8.3-6.3,12.6-5s28.1,11.2,33.5,12.3c5.3,1.1,16.2,11.3,18.2,10.4c2-0.9,10.8-4.7,16.9-0.6
			c6.1,4.1,7.6,10.2,10.8,5.5c3.2-4.7,7.3-9.8,12.8-12.6c5.5-2.8,4-3.4,7.8-1.9c3.8,1.5,13.6,1.9,9.9,3.9
			c-3.7,1.9-13.9,1.9-15.4,9.2C4062.3,3821.4,4061.7,3825.8,4061.7,3825.8z"/>
		<path fill="#5C7464" d="M3896.7,3857.1c1.2,3.7,10.3,27.9,14.5,28.7c4.3,0.8,8.1,18.6,28.7,13.8c20.6-4.8,24-6.6,33.2-14.9
			c9.1-8.3,14-18.4,26.8-21.3c12.8-2.9,9.7-6,16.5-6.2c6.8-0.2,28.7,5.8,33.2,12.4c4.5,6.6,11.1,13.8,14.2,20.9
			c3.1,7.2,6.2,14.5,5.2,9.9c-1-4.5-6.2-20.2-5-24.3c1.2-4.1,0-8.1-2.9-8.7s-17.6-10.1-19.8-12.2c-2.1-2.1-15.5-8.1-25-5.3
			s-28.5,12.5-34.5,19.3c-6,6.8-13.2,16.1-19.6,17.5s-19.2,3.9-26.4,2.1c-7.2-1.7-14.4,1.9-18.4-3.3s-14.9-19.7-16.1-23.5
			c-1.2-3.8-5.4-11-5.4-9.2S3896.7,3857.1,3896.7,3857.1z"/>
		<path fill="#5C7464" d="M3320.4,4014.2c15.9,43.1,75.3,221.1,95.8,272.3c20.6,51.2,31.4,75.3,31.8,81.5c0.4,6.2,3.9,8.1,0,17.1
			c-3.9,8.9-15.5,36.1-16.3,55.9c-0.8,19.8-1.6,27.2-3.9,23.3s-31-82.6-52-136.5c-20.9-53.9-60.9-181.5-78.7-227.3
			c-17.8-45.8-57.7-147.6-64-159.8c-6.3-12.2-9-11.3-6.3-12.2c2.7-1,29.2-18,37.1-15.7s15.3,3.1,21.9,18.6
			C3292.5,3946.7,3320.4,4014.2,3320.4,4014.2z"/>
		<path fill="#5C7464" d="M3122.6,4083.2c10.1,24.4,45.8,91.5,51.6,119.9c5.8,28.3,6.2,35.3,16.7,49.7
			c10.5,14.4,53.9,102.4,69,146.2c15.1,43.8,53.5,161.4,60.1,187c6.6,25.6,40.3,123.4,43.1,126.8c2.7,3.5,3.5,2.3,0,15.5
			s-16.3,66.6-19.8,63.3c-3.5-3.2-11.6-28.4-29.1-90.9c-17.5-62.5-12.8-62.1-31-101.2c-18.2-39.2-37.6-93.5-46.5-121
			c-8.9-27.5-36.5-107.8-52.4-132.7c-15.9-24.8-42.7-81.5-44.6-93.1s-2.7-33-7.8-42.3c-5-9.3-8.5-31.8-23.7-50.8
			s-50.8-77.7-54.3-85.2s-20.7-37-26.4-47.1s-8.6-8.4-5.7-10c2.9-1.6,12.4-6.7,15.6-8.5c3.2-1.7,37.4-3.6,43.2,3
			S3122.6,4083.2,3122.6,4083.2z"/>
		<path fill="#5C7464" d="M2974.1,4193.8c23.3,27.2,67.1,79.1,99.7,162.5c32.6,83.4,48.5,131.9,48.5,156.7s14,74.9,21.3,103.2
			c7.4,28.3,60.5,269.2,63.6,329.7c3.1,60.5,7.4,66.6,5.4,66.6s-37,2-37.8,0c-0.8-2-12.8-54.7-12.4-68.7c0.4-14,3.9-91,2.1-116
			c-1.7-25-4.3-84.4-25-147.8c-20.8-63.4-40.1-111.5-40.5-134.8c-0.4-23.3-0.4-67.5-24.8-114c-24.4-46.5-44.2-83.8-88.1-144.3
			c-43.8-60.5-83.8-107.8-102.8-124.5s-34.5-23.7-46.2-26c-11.6-2.3-20.5-1.2-17.5-3c3-1.8,31.3-18.6,34.9-20.7s22.6-6.2,40,6.6
			C2912,4132.1,2974.1,4193.8,2974.1,4193.8z"/>
		<path fill="#5C7464" d="M2741.1,4180.7c16.9-5.2,20.4-12.9,26.6-9.8s8.5,1.4,12,9.8c3.5,8.4,12,24.3,13,27c1,2.7,9.9,8.5,1,2.7
			c-8.9-5.8-17.5-15.1-31.4-8.1s-17.5,14-27.2,12.4c-9.7-1.6-44.1-1-41.8-2.7C2695.7,4210.3,2741.1,4180.7,2741.1,4180.7z"/>
		<path fill="#5C7464" d="M2862.7,4321c11.6,15.5,58.2,111.7,68.7,131.5c10.5,19.8,61.7,117.1,73.7,137.7
			c12,20.6,66.3,146.6,74.1,161.8s53.9,112.5,59.3,135.4c5.4,22.9,7,46.9,18.6,84.2c11.6,37.2,15.5,41,14,41s-12.8,0-12.8,0
			s-33.7-87.9-42.3-108.4c-8.5-20.6-36.5-88.1-38.8-97.4s-16.3-46.2-33.7-82.2s-65.2-127.9-82-162.6
			c-16.9-34.7-69.8-127.8-83.8-155.1c-14-27.3-36.7-54.7-46.5-69.2c-9.9-14.5-10.8-13.5-10.2-18.6c0.6-5.1,4-24.7-1.9-36.5
			s-6.5-14.5-5.4-13.5c1.2,1,12.9,12.8,29.4,30.8S2862.7,4321,2862.7,4321z"/>
		<path fill="#5C7464" d="M2819,4437c41.2,54.1,60.4,68.7,134.9,236.8c74.5,168.2,104.7,218.7,132.1,278.7c27.3,60,33.7,60,27.3,60
			c-6.4,0-36.7,2.9-36.7,0c0-2.9,2.9-9.3-32.6-84.4c-35.5-75.1-65.7-137.9-108.8-223.4s-70.2-129.4-122.1-201.7
			c-51.9-72.3-73.4-111.3-99-139.3c-25.6-27.9-64.7-65.7-83.2-77.4s-22.2-8.7-18.5-11.7c3.7-2.9,16.5-17.2,20.1-15.9
			s43.8,19.8,73.5,53.9S2819,4437,2819,4437z"/>
		<path fill="#5C7464" d="M2560,4429.4c42.5,55.9,80.3,104.7,107.6,145.5c27.3,40.7,74.5,115.2,90.2,128
			c15.7,12.8,35.5,55.9,47.7,74.5c12.2,18.6,146.5,234.4,132.4,236c-8.1,0.9,3.5,0.4-6.1-0.9c-7.3-1-111.1-150.7-127.4-181.6
			c-16.3-30.8-44.8-72.1-65.7-100.7s-62.8-94.8-112.9-161.8s-76.8-94.8-104.7-132.7c-27.9-37.8-46.3-53.6-42.9-56.4
			c3.5-2.8,9.8-10.6,12.8-9.9S2560,4429.4,2560,4429.4z"/>
		<path fill="#5C7464" d="M3254.1,4988.2c-13.6,20.9-20.9,25.5-15.1,25.2c5.8-0.3,221.5,1.5,217.6,0s-70.6-6-122.6-12.3
			c-52-6.3-65.2-7.8-70.6-12.9C3258,4983.2,3254.1,4988.2,3254.1,4988.2z"/>
		<path fill="#5C7464" d="M3407.1,3891.8c12.2,13.9,25,34.9,30.3,51.8c5.2,16.9,13.2,35.9,16.2,32.4c3-3.5-6.9-21.3-8.1-29.5
			s-6.4-9.2-8.1-19.2s-1.7-17.9-5.8-25.5c-4.1-7.7-17.1-17.9-24.4-26.3c-7.3-8.4-11.2-6-11.2-6s-9.2-0.3-7.2,2.6
			c2.1,2.9,9,5.8,12.5,11.6S3407.1,3891.8,3407.1,3891.8z"/>
	</g>
</g>
<g id="arms">
	<path id="left_arm_2_" fill="#D1936E" stroke="#2E160C" stroke-miterlimit="10" d="M1398.1,4389.3L1184,5014.2l302.3-1.7h298.2
		c0,0,377-318.3,551.6-506.8s415.4-328.2,418.9-335.1c3.5-7,188.5-115.2,188.5-115.2s167.6-111.7,181.5-104.7
		c14,7,136.7-107.1,302-150.7c165.2-43.6,14.5-31.4,193.8-54.7c179.2-23.3,281-53.5,281-53.5s99.5-36.7,194.9-32
		c95.4,4.7,88.4-30.8,88.4-30.8s9.9-5.2,16.9-46c7-40.7-13.4-48.3-13.4-48.3s75.6-14,100.7-45.4s21.5-75.6,3.5-108.8
		c-18-33.2,47.7-19.8,72.1-59.9c24.4-40.1,30.8-83.8-4.7-136.2c-35.5-52.4-36.7-50-36.7-50s44.8-19.8,46-82.6
		S4222.9,2887,4222.9,2887s-187.4-87.9-193.8-83.8c-6.4,4.1-67.5-34.9-169.3,4.7c-101.8,39.6-125.1,2.3-125.1,2.3s-32-41.3,28.5-224
		c60.5-182.7,21.5-195.5,21.5-195.5s-41.9-93.1-55.9-103c-14-9.9-11.1-23.9-39-36.1c-27.9-12.2-51.2,0-51.2,0s-25.6,18-23.9,39.6
		c1.7,21.5,15.7,103,15.7,103s-30.3,64.6-32,68.1c-1.7,3.5-22.1,25-15.7,33.2c6.4,8.1-17.5,16.9-9.9,33.7c7.6,16.9-6.4-5.2-9.9,26.8
		c-3.5,32-15.7,40.1-15.7,40.1l-61.1,146c0,0-30.3,64-36.1,72.1c-5.8,8.1-29.7,130.3-30.8,147.2c-1.2,16.9-36.1,100.7-98.9,168.7
		c-62.8,68.1-52.4,75.1-84.9,86.1c-32.6,11.1-47.1,36.7-110,61.7c-62.8,25-119.9,56.4-120.4,59.9c-0.6,3.5-174,116.9-195.5,138.5
		s-246.1,144.3-291.5,157.1c-45.4,12.8-185,89.6-255.4,110c-70.4,20.4-290.3,87.9-530.1,233.9c-2.4,1.5-4.8,2.9-7.1,4.3
		C1572.1,4075.2,1456.3,4219.4,1398.1,4389.3z"/>
	<path id="right_arm_2_" fill="#D1936E" stroke="#2E160C" stroke-miterlimit="10" d="M7944.9,5012.5h644.4l280.1,1.7l-55.1-127.3
		c-166.2-384-460.8-698.7-834-887.9c-32.1-16.3-61-29.7-85.1-39.1c-192.4-75.3-730.8-384-872.8-461.6s-351.4-129.6-415.8-342.9
		c-64.4-213.3-3.9-108.6-76.8-266.9c-72.9-158.3-72.9-158.3-72.9-158.3s7.8-0.8-7-34.1c-14.7-33.4,1.6-14-12.4-38
		c-14-24,0.8-25.6-10.9-39.6c-11.6-14-25.6-70.6-22.5-90.8c3.1-20.2,14.7-91.5,14.7-91.5s-9.3-45-60.5-33.4
		c-51.2,11.6-90,91.5-90,91.5s-41.9,107.1-34.1,146.6s29.5,72.9,34.1,84.6c4.7,11.6,27.2,169.1,16.3,168.3
		c-10.9-0.8-152.8-77.6-204.8-71.4c-52,6.2-48.9,16.3-136.5,56.6c-87.7,40.3-267.6,131.9-280.8,176.9c-13.2,45-8.5,74.5-8.5,74.5
		s7,35.7,27.9,45c20.9,9.3-50.4,29.5-48.1,90s23.3,80.7,23.3,80.7s28.7,23.3,33.4,26.4c4.7,3.1-23.3,79.9-10.9,108.6
		c12.4,28.7,45.8,52.8,51.2,56.6c5.4,3.9,59.7,19.4,54.3,26.4c-5.4,7-25.6,66.7-11.6,87.7c14,20.9,52.8,59.7,87.7,64.4
		c34.9,4.7,117.9,13.2,126.5,7.8s26.4-27.9,31.8-41.1c5.4-13.2,10.9,3.1,28.7,7.8c17.8,4.7,33.4-1.6,34.1,3.1
		c0.8,4.7,47.3,58.2,85.3,59.7s56.6,55.9,141.2,78.4c84.6,22.5,123.4,35.7,123.4,35.7s69,20.9,84.6,25.6
		c15.5,4.7,49.7,3.9,68.3,12.4c18.6,8.5,194.7,102.4,264.5,152.8c69.8,50.4,201.7,123.4,391,289.4
		C7429.8,4513.8,7882.9,4924.6,7944.9,5012.5z"/>
	<path id="watchii_2_" fill="#160E0C" d="M7218.8,3830.7c0,0-160.6,300.2-201.3,327s-10.5-23.3-50,17.5
		c-39.6,40.7,115.2,131.5,130.3,136.2s43.5,29.1,82.3-15.1c38.8-44.2-5.5-26.8,6.2-36.1c11.6-9.3,94.3-103.6,131.5-174.6
		s72.1-146.6,94.3-160.6c22.1-14,27.6-32.3,52.7-32.3c25,0,67.2-13.7,79.7-26.2c12.5-12.5,30-30,34.6-56.7s7.3-40.1-3.8-59.3
		c-11.1-19.2-62.3-99.2-137.3-135.9c-75.1-36.7-93.4-50.9-135-53.5c-41.6-2.6-74.5-3.5-103,28.2c-28.5,31.7-26.5,27.9-28.5,31.7
		s-18.6,48.6-4.9,83.5s43.3,62,44.2,67.2c0.9,5.2,0.9,27.1-0.6,36.4c-1.5,9.3,0,10.2,3.5,14.5
		C7217,3826.9,7217.6,3824.6,7218.8,3830.7z"/>
	<path id="watchface_2_" fill="#675E5D" d="M7421.8,3617.8c20.9,12.2,40.1,19.8,65.2,42.5s20.4,15.5,40.1,47.3
		c19.8,31.8,24.4,35.3,25.6,49.8c1.2,14.5,2.9,23.9,0,27.9c-2.9,4.1,0,29.7-53.5,29.7c-53.5,0-85.5-4.1-132.1-34.3
		c-46.5-30.3-141.4-107.1-143.1-149s-2.3-43.1,7-49.5c9.3-6.4,21.4-12.8,41-10.5c19.5,2.3,41.1,2.3,63.2,7
		c22.1,4.7,52.4,18,58.8,21.5C7400.3,3603.8,7421.8,3617.8,7421.8,3617.8z"/>
	<path id="left_thumb_2_" fill="#E3BEA8" d="M3652.7,2385.4c2.9-11.1,16.9-50,15.1-55.9c-1.7-5.8-1.2-18.6-10.5-27.3
		c-9.3-8.7-37.8-31.2-39.7-25.8c-1.9,5.4,9.4,116.6,15.8,116C3639.9,2391.8,3652.7,2385.4,3652.7,2385.4z"/>
	<path id="rigth_thumb_2_" fill="#E3BEA8" d="M6398.1,2450.3c-2.9,8.4-3.2,26.2,0,33.7c3.2,7.6,10.4,16.7,10.3,17
		c-0.1,0.4,12.4-55.1,9.2-56.6c-3.2-1.5-13.1-2-14.6,0C6401.6,2446.5,6398.1,2450.3,6398.1,2450.3z"/>
</g>
</svg>
