<?xml version="1.0" encoding="utf-8"?>
<!-- Generator: Adobe Illustrator 24.1.2, SVG Export Plug-In . SVG Version: 6.00 Build 0)  -->
<svg version="1.2" baseProfile="tiny" xmlns="http://www.w3.org/2000/svg" xmlns:xlink="http://www.w3.org/1999/xlink" x="0px"
	 y="0px" viewBox="0 0 10000 10000" overflow="visible" xml:space="preserve">
<g id="hat">
	<path fill="#E8A62C" stroke="#000000" stroke-width="22" stroke-miterlimit="10" d="M3631,5153c-143,63-1311,671-1485,798
		s-517,301-512,375s-5,571,412,740s961,90,1627-148s1184-391,1570-634s1094-709,1506-883s1062-465,1247-824s339-723,270-898
		s-502-95-550-74s-1078,411-1305,496S3631,5153,3631,5153z"/>
	<path fill="#E8A62C" stroke="#000000" stroke-width="22" stroke-miterlimit="10" d="M3578,3066c-53,90-95,196-79,349s20,290-3,417
		s-72,281,82,661s285,951,275,1046s21,216-74,327s-134,128-117,191c14.9,55.1-245.1,196.5,99,132c49.2-9.2,148.1-105.5,220-139
		c593-276,2094-1468,2071-1497c-147.2-185.6-96-92-233-235S4715,3267,4535,3145s-359-269-407-285s-206-64-280-27s-186,74-159,111
		s26,69,0,69s-57-33-84,10S3578,3066,3578,3066z"/>
	<path fill="#BE2C2F" stroke="#000000" stroke-width="16" stroke-miterlimit="10" d="M3399,5333c-317,148-1051,548-1136,607
		s-550,360-566,397s-42,110-26,137s5,21,158,0s708-32,914-32s498,43,1026-237s1156-687,1463-930s999-814,1316-1020s671-439,988-497
		s501-53,597-53s189,6,150-26s-123-175-567-32s-1163,450-1575,777S4851,5460,4804,5486s-866,565-1051,618s-322,120-412,150
		s-143,46-455,67s-713,43-856,53s-307,74-270,21s121-108,201-141s343-207,444-255s317-171,412-244s265-232,365-269s365-144,407-159
		s133-10,143-68s-53-64-180-11S3399,5333,3399,5333z"/>
	<path stroke="#000000" stroke-width="22" stroke-miterlimit="10" d="M4693,3405c-26,35-90,94-167,139s-176,118-192,118
		s-284,80-343,133s-144,86-187,99s-115,38-78,41s208-50,243-82s92-85,169-103s295-116,318-137s202-122,229-159s73-43,59-69
		S4693,3405,4693,3405z"/>
	<path stroke="#000000" stroke-width="22" stroke-miterlimit="10" d="M5121,3726c-50,64-100,101-76,109s52-41,75-66s29-43,15-43
		S5121,3726,5121,3726z"/>
	<path stroke="#000000" stroke-width="22" stroke-miterlimit="10" d="M4927,3935c-38,29-149,130-238,152s-161,32-175,59
		c-10.8,20.8,8,29,71,0s173-53,203-79s165-111,170-132S4927,3935,4927,3935z"/>
	<path stroke="#000000" stroke-width="22" stroke-miterlimit="10" d="M4205,4301c94-45,160-110,199-113s58,5,41,12s-190,84-214,103
		s-89,88-92,66s16-41,43-54S4205,4301,4205,4301z"/>
	<path stroke="#000000" stroke-width="22" stroke-miterlimit="10" d="M5361,4002c-30,28-189,232-491,352s-535,216-621,290
		s-119,98-95,100s190-163,303-202s188-98,290-118s269-99,357-163s306-251,312-266s-19-27-37-10S5361,4002,5361,4002z"/>
	<path fill="#048D49" d="M8124,3726c-356,7-879.4-24.8-1791.2,688.6S4332,5943,4086,6047s-408.8,195-428.4,214.5
		s-333,158.1-669.8,182.3s-1034.1,3.3-1141.4,27.7S1651,6534,1739,6598s242,111,484,111s744,40,1351-182s651-171,1998-1237
		s1427-1077,1649-1125s621-121,776-120s198-5,210-119S8124,3726,8124,3726z"/>
	<path d="M7774,4667c-106,29-158,76-248,100s-262,97-241,103s189-76,228-79s180-74,227-79s186-79,135-66S7774,4667,7774,4667z"/>
	<path d="M7151,4905c-56,29-158,71-119,71s174-63,153-71S7151,4905,7151,4905z"/>
	<path d="M6546,5246c-90,63-181,121-133,105s270-172,225-148S6546,5246,6546,5246z"/>
	<g id="cirlces">
		<path fill="#F4DD11" stroke="#000000" stroke-width="12" stroke-miterlimit="10" d="M8326,3726c-31,58-87,199,44,200
			s179-77,155-145s-99-100-135-80S8326,3726,8326,3726z"/>
		<path fill="#DF1E23" stroke="#000000" stroke-width="12" stroke-miterlimit="10" d="M8255,4133c67-20,147-122,123-156
			s-115-170-206-86s-76,176-32,195s28.5,51,59.8,47C8231,4129,8255,4133,8255,4133z"/>
		<path fill="#ED7F1D" stroke="#000000" stroke-width="12" stroke-miterlimit="10" d="M7807,4026c12,44-20,189,107,182
			s204.3-111,191.2-182S7977,3893,7902,3926S7807,4026,7807,4026z"/>
		<path fill="#DF1E23" stroke="#000000" stroke-width="12" stroke-miterlimit="10" d="M7645,3935c19,48,84,130,0,170s-202,54-206-42
			s12-164,75-168S7645,3935,7645,3935z"/>
		<path fill="#F4DD11" stroke="#000000" stroke-width="12" stroke-miterlimit="10" d="M7240,4187c4,49-22,204-118,186
			s-146-98-99-165s34-110,100-110S7240,4187,7240,4187z"/>
		<path fill="#ED7F1D" stroke="#000000" stroke-width="12" stroke-miterlimit="10" d="M6793,4403c63,51,134,135,67,190
			s-182,84-216,36s-97-160-22-199S6793,4403,6793,4403z"/>
		<path fill="#DF1E23" stroke="#000000" stroke-width="12" stroke-miterlimit="10" d="M6587,4644c15,48-15,199-65,199
			s-225,42-201-86s7-172,79-172S6587,4644,6587,4644z"/>
		<path fill="#F4DD11" stroke="#000000" stroke-width="12" stroke-miterlimit="10" d="M5972,5072c8,52,28,147-75,163s-202-5-202-82
			s56-138,107-147S5972,5072,5972,5072z"/>
		<path fill="#DF1E23" stroke="#000000" stroke-width="12" stroke-miterlimit="10" d="M5433,5504c-16,64-55,223-166,203
			s-151-112-125-159s96-139,142-139s94-7.8,113.5,28.1C5417,5473,5433,5504,5433,5504z"/>
		<path fill="#ED7F1D" stroke="#000000" stroke-width="12" stroke-miterlimit="10" d="M4979,5885c2,71-42,186-109,178
			s-190-16-182-107s49-166,94-178s118-22.3,145,12.3C4954,5825,4979,5885,4979,5885z"/>
		<path fill="#F4DD11" stroke="#000000" stroke-width="12" stroke-miterlimit="10" d="M4331,6297c40-51,23-170-36-182
			s-183,47-190,91s-15,143,60,147S4331,6297,4331,6297z"/>
		<path fill="#DF1E23" stroke="#000000" stroke-width="12" stroke-miterlimit="10" d="M3796,6543c28-60,8-198-63-190
			s-243,103-163,190s131,102,167,71S3796,6543,3796,6543z"/>
		<path fill="#ED7F1D" stroke="#000000" stroke-width="12" stroke-miterlimit="10" d="M3154,6781c44-40,115-184,20-195
			s-230-50-202,84s88,149,123,138S3154,6781,3154,6781z"/>
		<path fill="#F4DD11" stroke="#000000" stroke-width="12" stroke-miterlimit="10" d="M2683,6832c43-123,20-246-20-242
			s-202.7-2.4-198.4,121.8C2469,6836,2489,6908,2544,6896S2683,6832,2683,6832z"/>
		<path fill="#DF1E23" stroke="#000000" stroke-width="12" stroke-miterlimit="10" d="M2282,6658c48,35,156,119,72,198
			s-166,94-202,41s-91-167-32-205S2282,6658,2282,6658z"/>
		<path fill="#DF1E23" stroke="#000000" stroke-width="12" stroke-miterlimit="10" d="M1355,6658c-48,83-88,88-36,161s92,95,143,78
			s135-68,135-104s-60-135-151-135S1355,6658,1355,6658z"/>
		<path fill="#F4DD11" stroke="#000000" stroke-width="12" stroke-miterlimit="10" d="M1597,6629c-32,53-120,16-60,151
			s148,150,193,117s119-87,104-153s-33-190-131-172S1597,6629,1597,6629z"/>
		<path fill="#ED7F1D" stroke="#000000" stroke-width="12" stroke-miterlimit="10" d="M1735,6811c40,73,92,164,187,144
			s110-115,59-194s-159-110-214-49S1735,6811,1735,6811z"/>
	</g>
	<g id="sticks">
		<line fill="none" stroke="#000000" stroke-width="20" stroke-miterlimit="10" x1="8292.1" y1="3695.1" x2="8326" y2="3726"/>
		<line fill="none" stroke="#000000" stroke-width="20" stroke-miterlimit="10" x1="8144" y1="3710.6" x2="8203.5" y2="3864"/>
		<line fill="none" stroke="#000000" stroke-width="20" stroke-miterlimit="10" x1="7904.8" y1="3710.6" x2="7924.7" y2="3916.9"/>
		<line fill="none" stroke="#000000" stroke-width="20" stroke-miterlimit="10" x1="7493.6" y1="3766.7" x2="7514" y2="3895"/>
		<line fill="none" stroke="#000000" stroke-width="20" stroke-miterlimit="10" x1="7023.3" y1="3961.2" x2="7081.1" y2="4109.2"/>
		<line fill="none" stroke="#000000" stroke-width="20" stroke-miterlimit="10" x1="6483.6" y1="4300.7" x2="6622" y2="4430"/>
		<line fill="none" stroke="#000000" stroke-width="20" stroke-miterlimit="10" x1="6213.4" y1="4496.2" x2="6346.5" y2="4611.8"/>
		<line fill="none" stroke="#000000" stroke-width="20" stroke-miterlimit="10" x1="5654.3" y1="4938.7" x2="5735.8" y2="5046.3"/>
		<line fill="none" stroke="#000000" stroke-width="20" stroke-miterlimit="10" x1="5102.9" y1="5353.7" x2="5202.7" y2="5464"/>
		<line fill="none" stroke="#000000" stroke-width="20" stroke-miterlimit="10" x1="4687.6" y1="5656.5" x2="4761.1" y2="5788.2"/>
		<line fill="none" stroke="#000000" stroke-width="20" stroke-miterlimit="10" x1="4120.3" y1="6009" x2="4172.7" y2="6143.4"/>
		<line fill="none" stroke="#000000" stroke-width="20" stroke-miterlimit="10" x1="3640.9" y1="6271.9" x2="3678.7" y2="6368.5"/>
		<line fill="none" stroke="#000000" stroke-width="20" stroke-miterlimit="10" x1="3068.9" y1="6435.8" x2="3057.8" y2="6572.2"/>
		<line fill="none" stroke="#000000" stroke-width="20" stroke-miterlimit="10" x1="2606" y1="6443" x2="2606" y2="6594.1"/>
		<line fill="none" stroke="#000000" stroke-width="20" stroke-miterlimit="10" x1="2288.9" y1="6449.5" x2="2263.6" y2="6658"/>
		<line fill="none" stroke="#000000" stroke-width="20" stroke-miterlimit="10" x1="2009.8" y1="6460" x2="1922.7" y2="6704.1"/>
		<line fill="none" stroke="#000000" stroke-width="20" stroke-miterlimit="10" x1="1777.2" y1="6490.7" x2="1762.8" y2="6582"/>
		<line fill="none" stroke="#000000" stroke-width="20" stroke-miterlimit="10" x1="1666" y1="6474" x2="1495.6" y2="6668.1"/>
	</g>
</g>
</svg>
