<?xml version="1.0" encoding="utf-8"?>
<!-- Generator: Adobe Illustrator 24.1.2, SVG Export Plug-In . SVG Version: 6.00 Build 0)  -->
<svg version="1.1" id="gyoza" xmlns="http://www.w3.org/2000/svg" xmlns:xlink="http://www.w3.org/1999/xlink" x="0px" y="0px"
	 viewBox="0 0 8192 8192" style="enable-background:new 0 0 8192 8192;" xml:space="preserve">
<style type="text/css">
	.st0{fill:#CCA57A;stroke:#000000;stroke-width:80;stroke-miterlimit:10;}
	.st1{fill:none;stroke:#000000;stroke-width:80;stroke-linecap:round;stroke-linejoin:round;stroke-miterlimit:10;}
</style>
<path class="st0" d="M2465.7,3573.6c15.9,137.4,76.6,858.7,158.5,1014.6c81.9,155.9,224.6,335.6,391,425.4
	c166.5,89.8,613,306.5,1033.1,295.9s795.3-137.4,996.1-290.6c200.8-153.2,330.3-362,399-483.5c68.7-121.5,211.4-391,264.2-438.6
	s295.9-301.2,327.6-332.9c31.7-31.7,163.8-221.9,58.1-272.1c-105.7-50.2-219.3-66.1-335.6-21.1s-274.8,140-301.2,142.7
	c-26.4,2.6-10.6,21.1-52.8-2.6c-42.3-23.8-148-29.1-285.4,2.6c-137.4,31.7-301.2,66.1-317.1,50.2c-15.9-15.9-68.7-97.8-126.8-63.4
	s-121.5,34.3-166.5-5.3c-44.9-39.6-158.2-60.8-224.4-37c-66.2,23.8-121.7,18.5-174.6-26.4c-52.8-44.9-240.4-145.3-319.7-142.7
	c-79.3,2.6-140-2.6-153.2,58.1c-13.2,60.8-113.6,0-166.5,0c-52.8,0-108.3,50.2-124.2,18.5c-15.9-31.7-150.6-103.1-208.7-76.7
	s-39.6-55.4-60.8-73.9s-438.6-301.2-491.4-330.3c-52.8-29.1-340.8-103-322.3,29.1s50.2,153.2,79.3,198.2s79.3,66.1,95.1,155.9
	S2465.7,3573.6,2465.7,3573.6z"/>
<path class="st1" d="M3089.2,4432.4c0,0-113.6-322.3-132.1-430.7c-18.5-108.3-55.5-322.3-23.8-393.7
	c31.7-71.3,145.7-237.8,223.8-224.6c78.1,13.2,204.2,44.9,254.4,243.1c50.2,198.2,60.8,512.6,42.3,618.3
	c-18.5,105.7-7.9,153.2-7.9,153.2"/>
<path class="st1" d="M3807.9,4403.3c-74-44.9-195.5-124.2-182.3-248.4c13.2-124.2,52.8-348.8,42.3-409.5
	c-10.6-60.8-63.4-274.8-31.7-298.6c31.7-23.8,22.2-68.4,187.6-29.1s338,97.8,367.2,203.4c29.2,105.7-105.6,439.5-95,502.5
	c10.6,63,26.4,279.6,58.1,351s31.7,71.3,31.7,71.3"/>
<path class="st1" d="M4476.4,3832.6c0,0,13.2,557.5,58.1,747.7c44.9,190.2,44.9,245.7,44.9,245.7"/>
<path class="st1" d="M4724.8,4329.3c0,0,71.3-227.2,63.4-385.8c-7.9-158.5,8.1-178.3-19.9-248.1"/>
<path class="st1" d="M5382.7,4292.3c0,0-23.8-153.2,0-232.5s84.6-211.4,52.8-330.3c-12.9-48.3-17.7-65.9-17.7-65.9"/>
<path class="st1" d="M5836.5,3508.9c39.6,34.3,193.5,107,77.3,109.7c-116.3,2.6-239.9,12.2-258.9-25.3
	c-7.3-14.3-10.6-21.6-10.6-21.6"/>
<path class="st1" d="M2809.2,3468c-34.3,63.4-74,71.3-71.3,224.6c2.6,153.2-0.1,211.6-0.1,211.6"/>
<path class="st1" d="M2883.2,3256.6c-124.2-39.6-232.5-58.1-274.8-58.1s-145.3-13.2-150.6-79.3c-5.3-66.1-26.4-116.3,58.1-95.1"/>
</svg>
