<?xml version="1.0" encoding="utf-8"?>
<!-- Generator: Adobe Illustrator 24.1.2, SVG Export Plug-In . SVG Version: 6.00 Build 0)  -->
<svg version="1.1" id="book" xmlns="http://www.w3.org/2000/svg" xmlns:xlink="http://www.w3.org/1999/xlink" x="0px" y="0px"
	 viewBox="0 0 8192 8192" style="enable-background:new 0 0 8192 8192;" xml:space="preserve">
<style type="text/css">
	.st0{fill:#00599D;}
	.st1{fill:#D3D3D1;}
</style>
<polygon class="st0" points="6213.6,3435.3 6213.6,5880.6 6288.9,5948 6534.6,5948 6534.6,3387.7 6284.9,3387.7 "/>
<polygon class="st1" points="5955.9,4224 5745.9,4224 5666.6,4243.8 5666.6,5916.3 5730,5948 5955.9,5948 "/>
<polygon class="st0" points="5103.8,4877.9 5341.6,4877.9 5385.2,4893.8 5385.2,5932.2 5147.4,5932.2 5103.8,5900.4 "/>
<rect x="4552.9" y="4667.9" class="st1" width="245.7" height="1280.1"/>
<rect x="3982.2" y="5040.4" class="st0" width="225.9" height="891.7"/>
<rect x="3395.6" y="4751.1" class="st1" width="241.8" height="1196.9"/>
<polygon class="st0" points="2821,5270.3 2821,5932.2 3046.9,5932.2 3090.5,5888.6 3090.5,5234.6 2860.6,5234.6 "/>
<polygon class="st1" points="2234.4,5206.9 2234.4,5948 2480.1,5948 2527.7,5900.4 2527.7,5167.2 2289.9,5167.2 "/>
<polygon class="st0" points="1647.8,5627 1739,5583.4 1972.8,5583.4 1972.8,5884.6 1901.5,5948 1647.8,5948 "/>
<polygon class="st1" points="1196,5706.2 1100.9,5765.7 1100.9,5948 1338.7,5948 1429.8,5900.4 1429.8,5706.2 "/>
<polygon class="st0" points="867.1,5785.5 898.8,5827.1 1521,5349.6 1853.9,5520 2381,4977 2931.9,5064.2 3581.9,4128.9 
	4113,4838.3 4675.8,4457.8 5244.5,4735.2 6633.7,2634.7 6728.8,2690.2 6768.4,2654.5 6768.4,2285.9 6403.8,2456.3 6395.9,2488 
	6483.1,2543.5 5202.9,4560.9 4675.8,4299.3 4136.8,4667.9 3585.9,3954.5 2892.3,4921.5 2381,4850.2 1842,5405 1528.9,5262.4 "/>
</svg>
