<?xml version="1.0" encoding="utf-8"?>
<!-- Generator: Adobe Illustrator 24.1.2, SVG Export Plug-In . SVG Version: 6.00 Build 0)  -->
<svg version="1.1" id="book" xmlns="http://www.w3.org/2000/svg" xmlns:xlink="http://www.w3.org/1999/xlink" x="0px" y="0px"
	 viewBox="0 0 8192 8192" style="enable-background:new 0 0 8192 8192;" xml:space="preserve">
<path d="M3898.7,2433c479.4,0,958.7-0.1,1438.1,0.1c126,0,222.9,70.1,253.4,182.4c7.7,28.2,9.2,57.1,9.2,86.1
	c0,955.4,0.1,1910.8-0.1,2866.2c0,167.6-103.9,271.1-271.1,271.1c-956.5,0-1913,0-2869.5,0c-161.2,0-267.2-103.7-267.3-264.6
	c-0.4-959.9-0.4-1919.8,0-2879.6c0.1-159.7,104.9-261.6,265.8-261.7C2937.7,2433,3418.2,2433,3898.7,2433z M4011.1,3930.9
	c-3.1-0.8-6.2-1.6-9.3-2.3c0-62.9-1.3-125.8,0.6-188.7c0.8-25.8-7.8-31.5-32.2-31.3c-139.3,1.1-278.7,1.3-418-0.1
	c-26.6-0.3-33.1,7.3-33.1,33.4c0.8,520.5,0.8,1041.1-0.1,1561.6c0,26.1,7.8,30.7,31.8,30.5c144.9-1.1,289.8-1.3,434.7,0.1
	c28.1,0.3,37.3-4.8,37.1-35.7c-1.5-255.2-0.7-510.5-1-765.8c-0.1-59.2,3.3-118,14.1-176.2c31.8-172,147.6-258.1,322-242.7
	c107.2,9.5,174.1,65.7,205.9,166.4c20.3,64.4,25.9,131.1,26,198c0.7,274.2,0.7,548.4-0.2,822.6c-0.1,25.4,5.4,33.6,32.4,33.3
	c146-1.5,292-1.6,438,0.1c29.7,0.3,36.5-7.5,36.4-36.6c-1.2-278.7-0.4-557.3-0.8-836c-0.2-109.2-3-218.3-23.2-326.1
	c-12-63.6-29.1-125.7-56.7-184.4c-57-121.1-147.7-206-276.7-244.2c-183.1-54.2-364.4-58.1-537.7,36.3
	C4120.6,3787.2,4056.8,3850,4011.1,3930.9z M2697.9,4520.9c0,260.8,0.2,521.5-0.4,782.3c-0.1,21.3,2.2,31.1,27.8,30.9
	c149.3-1.3,298.6-1.1,448-0.2c21.8,0.1,27.8-5.7,27.8-27.6c-0.6-522.6-0.6-1045.3,0-1567.9c0-23.4-6.4-29.9-29.8-29.8
	c-147.1,1-294.2,1.3-441.3-0.2c-27.1-0.3-32.7,8-32.6,33.5C2698.2,4001.6,2697.9,4261.3,2697.9,4520.9z M2949,2902.1
	c-161.7,0.3-291.9,131.9-291.3,294.5c0.6,161.9,132.4,292.2,294.6,291.3c160.9-0.9,294.6-135.5,292.7-294.7
	C3243.2,3032,3110.8,2901.8,2949,2902.1z"/>
</svg>
