<?xml version="1.0" encoding="utf-8"?>
<!-- Generator: Adobe Illustrator 24.1.2, SVG Export Plug-In . SVG Version: 6.00 Build 0)  -->
<svg version="1.1" id="book" xmlns="http://www.w3.org/2000/svg" xmlns:xlink="http://www.w3.org/1999/xlink" x="0px" y="0px"
	 viewBox="0 0 8192 8192" style="enable-background:new 0 0 8192 8192;" xml:space="preserve">
<style type="text/css">
	.st0{fill:#FFFFFF;stroke:#231F20;stroke-width:50;stroke-miterlimit:10;}
	.st1{fill:#F04237;stroke:#231F20;stroke-width:50;stroke-miterlimit:10;}
	.st2{fill:none;stroke:#231F20;stroke-width:50;stroke-miterlimit:10;}
</style>
<path class="st0" d="M3913.5,3017.8c-7.9-87.2-4-233.8,9.2-274.8s72.7-219.3,101.7-252.3c29.1-33,50.2-151.9,51.5-6.6
	c1.3,145.3-2.6,446.5-6.6,462.4c-4,15.9-21.1,372.6-54.2,369.9c-33-2.6-107.2-133.4-105.8-190.2S3913.5,3017.8,3913.5,3017.8z"/>
<path class="st0" d="M4328.3,2617.5c-50.2,46.2-277.4,266.9-306.5,532.4s43.6,216.7,48.9,107s21.1-235.2,198.2-363.3
	c177-128.1,359.3-236.5,371.2-260.3c11.9-23.8,15.9-42.3,15.9-81.9s15.9-182.3-85.9-109.7
	C4468.4,2514.5,4328.3,2617.5,4328.3,2617.5z"/>
<path class="st0" d="M3893.7,3193.5c1.3-277.4-80.6-404.3-161.2-492.8c-80.6-88.5-396.3-367.3-402.9-235.2s-70,751.7-44.9,775.5
	c25.1,23.8,572,47.6,590.5,0C3893.7,3193.5,3893.7,3193.5,3893.7,3193.5z"/>
<path class="st0" d="M4772.2,2575.2c-104.4,39.6-714.4,348.8-676.2,614.3s84.4,110.4,93.6,79c9.2-31.4-2.6-150.3,68.7-213.7
	c71.3-63.4,617-352.7,684.3-368.6c67.4-15.9,183.6-53.3,183.6-86.8c0-33.4,14.5-193.3-56.8-157.6S4772.2,2575.2,4772.2,2575.2z"/>
<path class="st0" d="M3893.7,3305.8c-10.6-150.6-38.3-284-87.2-330.3c-48.9-46.2-409.5-321-613-409.5
	c-203.4-88.5-335.6-148-339.5-95.1c-4,52.8-10.6,726.6-6.6,733.2c4,6.6,811.2,181,920.8,149.3
	C3877.8,3321.7,3893.7,3305.8,3893.7,3305.8z"/>
<path class="st0" d="M3143.3,2740.4c-149.3-58.1-572-216.7-599.8-225.9c-27.7-9.2-84.3-77.8-70,75.3c14.3,153.1,22.5,535,63.4,536.4
	c41,1.3,1222,142.7,1229.9,97.8c7.9-44.9,35.7-77.9-11.9-126.8c-47.6-48.9-182.3-153.1-350.1-235.1
	C3237.1,2780,3143.3,2740.4,3143.3,2740.4z"/>
<path class="st0" d="M5245.2,2575.2c-124.2,51.5-887.8,342.7-959.8,459.4c-72,116.6-119.5,94.6-82.5,310.4
	c37,215.8,1309.2-364.2,1303.9-520.1c-5.3-155.9-5.3-290.6-5.3-290.6s26.4-54.2-75.3-21.1
	C5324.4,2546.2,5245.2,2575.2,5245.2,2575.2z"/>
<path class="st1" d="M2041.5,3107.6c0,274.8,0,2319.9,0,2341c0,21.1-11.3,57.5,56.1,73.3c67.4,15.9,1617,602.4,1628.9,596.5
	s172.4-35.7,253.7-31.7c81.2,4,194.2,11.9,237.8,23.8c43.6,11.9,57.5,2,93.1-11.9c35.7-13.9,1529.8-570.7,1539.7-574.7
	c9.9-4,41.6-11.9,39.6-41.6c-2-29.7,4.1-2823.9,0.1-2841.7c-4.1-17.8-15.9-47.6-59.5-27.7c-43.6,19.8-1490.2,556.8-1504.1,558.8
	s-45.6,19.8-87.2,19.8s-182.3-19.8-202.1-19.8c-19.8,0-150.6-4-184.3,4c-33.7,7.9-136.7,25.8-190.2,7.9
	c-53.5-17.8-1529.8-575.9-1543.7-577.3c-13.9-1.4-80-25.1-78.6,24.4C2042.2,2680.3,2041.5,3107.6,2041.5,3107.6z"/>
<path class="st2" d="M3706.1,4296.6c0,179.7,5.3,1790.1,0,1792.1c-5.3,2-1.3,19.8,20.4,17.8c21.8-2,178.9-33.7,240.1-25.8
	s263.3,10.2,281.1,25.9c17.8,15.7,9.9-18,11.9-53.7c2-35.7,0.1-2812,0.1-2812s-29.8-45.6-81.4-51.5c-51.5-5.9-303.2-15.9-340.8-9.9
	c-37.7,5.9-132.3,31.7-133.5,67.4C3702.8,3282.7,3706.1,4296.6,3706.1,4296.6z"/>
</svg>
