<?xml version="1.0" encoding="utf-8"?>
<!-- Generator: Adobe Illustrator 24.1.2, SVG Export Plug-In . SVG Version: 6.00 Build 0)  -->
<svg version="1.1" xmlns="http://www.w3.org/2000/svg" xmlns:xlink="http://www.w3.org/1999/xlink" x="0px" y="0px"
	 viewBox="0 0 8192 8192" style="enable-background:new 0 0 8192 8192;" xml:space="preserve">
<style type="text/css">
	.st0{fill:#C6A66D;stroke:#231F20;stroke-width:21;stroke-miterlimit:10;}
	.st1{fill:#846D40;stroke:#231F20;stroke-width:16;stroke-miterlimit:10;}
	.st2{fill:#AF7E51;stroke:#231F20;stroke-width:22;stroke-miterlimit:10;}
	.st3{fill:#C69B73;stroke:#231F20;stroke-width:16;stroke-miterlimit:10;}
	.st4{opacity:0.61;fill:#A9ABAE;}
	.st5{fill:#6D5918;}
</style>
<g id="pie">
	<path class="st0" d="M1517.8,3944.8c0,0-63.4-269.5,185-486.2c248.4-216.7,343.5-348.8,554.9-449.2
		c211.4-100.4,338.2-190.2,660.6-237.8s660.6-116.3,1009.3-121.5s745.1,42.3,898.3,52.8c153.2,10.6,623.6,37,692.3,89.8
		c68.7,52.8,327.6,137.4,443.9,179.7s348.8,195.5,443.9,221.9c95.1,26.4,280.1,142.7,327.6,258.9
		c47.6,116.3,116.3,206.1,105.7,285.4s52.8,111,79.3,142.7c26.4,31.7-227.2,497.1-412.2,734.7c-185,237.6-243.1,427.9-295.9,544.1
		c-52.8,116.3-153.2,480.9-634.1,665.8c-480.9,185-650,301.2-930.1,285.4c-280.1-15.9-401.6,71.6-459.7,1.4
		c-58.1-70.1-109.7-68.8-157.2-84.7c-47.6-15.9-146.6-11.9-146.6-63.4s-11.9-55.5-71.3-39.6c-59.4,15.9-130.8,0-138.7-19.8
		c-7.9-19.8-11.9-35.7-79.3-15.9c-67.4,19.8-47.6,79.3-158.5-11.9c-111-91.2-194.2-91.2-281.4-59.4
		c-87.2,31.7-158.5,23.8-210.1,35.7c-51.5,11.9-47.6,95.1-122.9,7.9c-75.3-87.2-31.7-122.9-170.4-146.6s-166.5,4-229.9-83.2
		c-63.4-87.2-150.6-87.2-150.6-198.2c0-111,19.8-178.3-154.6-459.7s-325-451.8-313.1-554.9c11.9-103,95.1,7.9-67.4-202.1
		C1572,4006.9,1542.9,4013.5,1517.8,3944.8z"/>
	<path class="st1" d="M2126.8,4201.1c-33.7,37.7-39.6,61.4-13.9,120.9c25.8,59.4,7.9-37.7,41.6,61.4c33.7,99.1,11.9,130.8,0,196.2
		s-17.5,81.2,18,144.7c35.5,63.4,73.2,13.9,53.4,95.1c-19.8,81.2-35.7,57.5,23.8,140.7c59.4,83.2,103,107,97.1,166.5
		c-5.9,59.4,73.3,85.2,67.4,144.7c-5.9,59.4-33.7,103,45.6,150.6c79.3,47.6,130.8,51.5,164.5,107c33.7,55.5,13.9,97.1,87.2,61.4
		c73.3-35.7,51.5-101.1,122.9-13.9c71.3,87.2,51.5,178.3,152.6,97.1c101.1-81.2,43.6-198.2,126.8-174.4
		c83.2,23.8,114.9,7.9,160.5,61.4c45.6,53.5,31.7,63.4,81.2,61.4c49.5-2,33.7-41.6,51.5,27.7c17.8,69.4,31.7,97.1,114.9,91.2
		c83.2-5.9,192.2-49.5,221.9-9.9c29.7,39.6,55.5,208.1,172.4,136.7c116.9-71.3,53.5-122.9,160.5-95.1s92.8-13.9,142.5,4
		c49.7,17.8,111.1,25.8,61.6-7.9c-49.5-33.7-67.4-17.8-41.6-63.4c25.8-45.6,53.5-19.8,11.9-83.2c-41.6-63.4-111-63.4-99.1-218
		c11.9-154.6-35.6-216,13.9-259.6c49.5-43.6,247.7,25.8,249.7-67.4s-634.1-519.2-901.7-596.5c-267.5-77.3-1204.8-366.6-1272.2-344.8
		C2174.4,4157.5,2126.8,4201.1,2126.8,4201.1z"/>
	<path class="st2" d="M4346.3,5041.3c-95.1-7.9-59.5-23.8-130.8,59.4c-71.3,83.2-126.8,134.8-27.7,154.6
		c99.1,19.8,487.5,35.7,578.6,15.9c91.2-19.8,325-64.9,519.2-113.7c194.2-48.8,523.2-112.2,590.5-151.8s170.4-91.2,329-150.6
		s257.6,4,400.3-158.5c142.7-162.5,293.1-404.3,315-495.4c21.9-91.2,69.4-243.1-1.9-319.7s-95.1-144-83.2-56.8
		c11.9,87.2,39.6,206.1-7.9,281.4c-47.6,75.3-190.2,309.1-265.5,360.7s-218,174.4-285.4,198.2c-67.4,23.8-344.8,118.9-487.5,154.6
		c-142.7,35.7-229.9,99.1-305.2,87.2c-75.3-11.9-118.9,39.6-257.6,67.4c-138.7,27.7-218,71.3-447.9,67.4
		C4548.4,5037.4,4346.3,5041.3,4346.3,5041.3z"/>
	<path class="st3" d="M1517.8,3944.8c0,0,70,137.4,137.4,169.1c67.4,31.7,218,47.6,289.3,47.6s206.1-31.7,273.5,23.8
		s111,130.8,190.2,138.7s130.8-15.9,198.2,146.6c67.4,162.5,63.4,245.7,174.4,233.8c111-11.9,344.8-67.4,447.9-55.5
		c103,11.9,138.7-11.9,218,4c79.3,15.9,91.2,61.7,198.2,52.6c107-9,134.8-40.8,218,30.6c83.2,71.3,158.5,190.2,241.8,190.2
		c83.2,0,130.5-67.4,114.8,0c-15.7,67.4-31.6,107,91.3,103c122.9-4,325,31.7,436,27.7c111-4,150.6,23.8,392.4-51.5
		c241.8-75.3,142.7-63.4,305.2-83.2s202.1-75.3,416.1-130.8c214-55.5,261.6-43.6,416.1-126.8c154.6-83.2,336.9-142.7,443.9-404.3
		s118.9-389.7,118.9-455.8c0-66.1-59.4-329-130.8-412.2c-71.3-83.2-249.7-158.5-336.9-214c-87.2-55.5-336.9-178.3-432-210.1
		c-95.1-31.7-340.8-98.7-394.3-158.4c-53.5-59.6-1512-185.9-1833-160.4c-321,25.5-907.6,92.9-1113.7,184s-499.4,221.9-562.8,293.3
		c-63.4,71.3-206.1,233.8-293.3,281.4c-87.2,47.6-207.4,198.2-224.6,336.9S1517.8,3944.8,1517.8,3944.8z"/>
	<path class="st1" d="M3305.6,3726.4c0,0,89.5-186.5,317.1-359.3C3974,3100.2,3270.4,3831.9,3305.6,3726.4z"/>
	<path class="st1" d="M3767.4,3974c0,0,945.3-1157.5,552.9-571.1C3928,3989.4,3560.3,4296.4,3767.4,3974z"/>
	<path class="st1" d="M4421.7,4079.2c175.7-432.2,691.5-726.7,561.4-527.9C4852.9,3750,4355.3,4242.5,4421.7,4079.2z"/>
	<path class="st4" d="M3405.6,2110.9c0,0,91.8,174.8,153,220.6c61.2,45.8,192.3,179.1,148.5,314.6
		c-43.7,135.4-102.7,268.7-155.1,334.2c-52.4,65.5-52.4,65.5-52.4,65.5s-17.5-115.8,24-198.8s113.6-190,8.8-292.7
		c-104.9-102.7-262.1-277.5-246.9-491.5c15.2-214.2,96.1-402,96.1-402s-54.6,257.8-15.2,353.9
		C3405.6,2110.7,3405.6,2110.9,3405.6,2110.9z"/>
	<path class="st4" d="M4096,2174.3c56.7,100.6,301.5,369.3,251.2,581.1c-50.3,211.9-139.9,443.6-177,498.1
		c-37.2,54.6-37.2,54.6-37.2,54.6s-24-157.3,13.2-262.1c37.2-104.9,133.3-249.1,26.1-393.3c-107.2-144.2-203.3-273-218.5-463.2
		c-15.2-190-37.2-415.1,0-520c37.2-104.9,50.3-128.8,50.3-128.8s-52.4,242.4,4.3,417.3C4065.3,2132.7,4096,2174.3,4096,2174.3z"/>
	<path class="st4" d="M4801.7,2424.5c70,106,347.5,304.8,238.1,521.1s-109.3,230.2-144.2,275.7s-54.6,64.7-54.6,64.7
		s10.9-132.8,59-240c48.1-107,67.8-187.9-21.8-266.6c-89.6-78.7-209.7-172.7-218.5-373.6c-8.8-200.9-63.3-397.6-15.2-535.3
		c48.1-137.6,91.8-209.7,91.8-209.7s-67.8,136.6-52.4,326.1c15.2,189.5,8.8,248.6,56.7,335.9
		C4788.6,2410.3,4801.7,2424.5,4801.7,2424.5z"/>
	<g id="bits">
		<path class="st5" d="M3192.9,5280.3c38.7-21.1,72-36.2,35.7-39.5c-36.3-3.3-64.1,21.1-68.7,20.1
			C3155.3,5260,3173.8,5290.7,3192.9,5280.3z"/>
		<path class="st5" d="M2482.2,4853.7c18.5,39.6,51.5,17.2,52.8,0s-35.7-22.5-38.3-34.3c-2.6-11.9-48.9,28.7-35.7,28.2
			C2474.3,4847.1,2482.2,4853.7,2482.2,4853.7z"/>
		<path class="st5" d="M2689.6,5359.7c18.5,7.9,46.2,13.2,47.6-6.6c1.3-19.8-34.3-7.9-47.6-15.9c-13.2-7.9-66.1,7.1-41,14.8
			C2673.8,5359.7,2689.6,5359.7,2689.6,5359.7z"/>
		<path class="st5" d="M2940.6,4882.8c-13.2,18.5-25.1,41,0,25.1c25.1-15.9,19.8-27.7,29.1-46.2c9.2-18.5-34.3-23.8-33-6.6
			S2940.6,4882.8,2940.6,4882.8z"/>
		<path class="st5" d="M3934.1,5651.7c30-21-1.3-46.2,7.9-77.9c9.2-31.7-52.8-7.9-47.6,19.8
			C3899.7,5621.3,3924.6,5658.3,3934.1,5651.7z"/>
		<path class="st5" d="M3821.8,5003c23.8-2.6,34.3,2.6,35.7,29.1c1.3,26.4-17.2,74-35.7,63.4c-18.5-10.6-34.3-21.6-34.3-45.8
			C3787.4,5025.5,3821.8,5003,3821.8,5003z"/>
		<path class="st5" d="M3416.2,5049.7c31.7,3.5,42.3-9.7,41-22.9s-19.8-15.8-29.1-24.4c-9.2-8.6-34.3-9.6-25.1,7.4
			c9.2,17-29.1,28.4-7.9,34.2C3416.2,5049.7,3416.2,5049.7,3416.2,5049.7z"/>
		<path class="st5" d="M2229.9,4357c0,18.5,2.6,33,14.5,21.1s25.1-21.1,15.9-41c-9.2-19.8-51.5-25.1-42.3-13.2
			C2227.2,4335.9,2229.9,4357,2229.9,4357z"/>
	</g>
</g>
<g id="Layer_1">
</g>
</svg>
