<?xml version="1.0" encoding="utf-8"?>
<!-- Generator: Adobe Illustrator 24.1.2, SVG Export Plug-In . SVG Version: 6.00 Build 0)  -->
<svg version="1.2" baseProfile="tiny" xmlns="http://www.w3.org/2000/svg" xmlns:xlink="http://www.w3.org/1999/xlink" x="0px"
	 y="0px" viewBox="0 0 10000 10000" overflow="visible" xml:space="preserve">
<g id="hat">
</g>
<g id="carrot">
	<path fill="#227736" d="M6056.6,3646c77.2-35.6,111.7-115.2,152-131.8s247.1-173.4,258.9-228.1c11.9-54.6-17.8-52.3-27.3-52.3
		c-9.5,0-70.1-98.6,17.8-146.1s369.4-177,405-254.2c35.6-77.2,148.5-495.3,21.4-416.9c-127.1,78.4-121.2,53.4-153.2-27.3
		c-32.1-80.8-130.7-247.1-302.9-146.1c-172.2,101-216.2,152-275.6,159.2c-59.4,7.1-127.1,29.7-129.5,131.8
		c-2.4,102.1-65.3,245.9-110.5,102.1c-45.1-143.7-158-201.9-158-129.5c0,72.5,99.8,198.4,70.1,247.1
		c-29.7,48.7-49.9,117.6,23.8,216.2s277.9,205.5,174.6,414.5C5920.1,3593.7,6056.6,3646,6056.6,3646z"/>
	<path fill="#227736" d="M6183.3,3646c146.6-71.3,394.8-333.8,449.5-352.8s51.1-67.7,84.3-26.1c33.3,41.6,72.5,68.9,150.8-2.4
		c78.4-71.3,131.8-211.4,287.4-268.4c155.6-57,457.3-114,414.5-40.4c-42.8,73.6-99.8,103.3,39.2,146.1
		c139,42.8,241.1,117.6,106.9,225.7s-172.2,211.4-172.2,225.7c0,14.3-9.5,30.9-162.7,26.1c-153.2-4.8-172.2,76-122.3,83.1
		s327.8,105.7,172.2,105.7s-197.2-47.5-258.9-23.8c-61.8,23.8-118.8,29.7-191.2-42.8c-72.5-72.5-143.7-130.7-209-67.7
		c-65.3,63-118.8,108.1-313.6,115.2c-194.8,7.1-352.8,130.7-319.5,45.1C6171.9,3709,6183.3,3646,6183.3,3646z"/>
	<path fill="#EE6F2C" d="M5076.7,3858.6c-112.8,158-320.7,363.5-458.5,439.5c-137.8,76-960.9,665.2-1060.7,835
		s-626,590.3-795.8,737.6c-169.9,147.3-843.3,869.5-880.1,938.3s-444.2,601,163.9,294.6c608.1-306.4,1097.5-669.9,1248.4-745.9
		c150.8-76,484.6-357.5,760.2-502.4s978.7-583.2,1110.6-690.1c131.8-106.9,968-691.3,1067.8-892c99.8-200.7,256.6-527.4-95-646.2
		c-351.6-118.8-514.3-143.7-715-24.9C5221.6,3720.8,5076.7,3858.6,5076.7,3858.6z"/>
	<path fill="#E35A24" d="M5804.8,3920.4c43.9,74.8,122.3,236.4,131.8,345.6c9.5,109.3,2.4,238.7,15.4,222.1
		c13.1-16.6,61.8-251.8,0-409.8c-61.8-158-77.2-266.1-236.4-319.5s-301.7-52.3-289.8-42.8c11.9,9.5,220.9,57,277.9,108.1
		S5804.8,3920.4,5804.8,3920.4z"/>
	<path fill="#E35A24" d="M5379.6,4389.6c32.1,52.3,109.3,241.1,108.1,306.4c-1.2,65.3,5.9,148.5,16.6,118.8s36.8-247.1-63-396.7
		c-99.8-149.7-249.4-343.3-370.6-349.2c-121.2-5.9-70.1,17.8-28.5,30.9s209,121.2,273.2,205.5
		C5379.6,4389.6,5379.6,4389.6,5379.6,4389.6z"/>
	<path fill="#E35A24" d="M4820.2,4593.8c99.8,129.5,150.8,203.1,174.6,342.1c23.8,139,13.1,262.5,40.4,229.2
		c27.3-33.3,11.9-236.4-40.4-364.6c-52.3-128.3-105.7-255.4-187.7-311.2s-131.8-68.9-59.4,17.8
		C4820.2,4593.8,4820.2,4593.8,4820.2,4593.8z"/>
	<path fill="#E35A24" d="M3918.7,5390.8c59.4,82,142.5,209,161.5,279.1c19,70.1,19,133,0,97.4s-80.8-258.9-216.2-362.3
		c-135.4-103.3-200.7-116.4-219.7-131.8s-42.8-57,35.6-28.5C3758.3,5273.3,3918.7,5390.8,3918.7,5390.8z"/>
	<path fill="#E35A24" d="M2881.7,6204.5c49.9,67.7,127.1,187.7,111.7,231.6c-15.4,43.9,17.8,33.3-54.6-80.8
		c-72.5-114-65.3-122.3-154.4-175.8c-89.1-53.5-118.8-97.4-64.1-80.8C2774.8,6115.4,2881.7,6204.5,2881.7,6204.5z"/>
</g>
<g id="onion">
	<path fill="#74B729" d="M3720.2,3702.1c-1.1-37.9-10.8-69.3,6.5-95.3c17.3-26,55.2-69.3,69.3-66.1s13-13,15.2,18.4
		c2.2,31.4,6.5,81.2,0,101.8c-6.5,20.6-4.3,37.9,36.8-10.8c41.2-48.7,102.9-178.7,26-226.4s-134.3,0-138.6-13s-6.5-223.1-117-299
		c-110.5-75.8-140.8-95.3-185.2-100.7s-70.4-4.3-27.1,37.9c43.3,42.2,144.1,234,136.5,264.3c-7.6,30.3-16.2,21.7-62.8-13
		c-46.6-34.7-107.2-65-156-32.5c-48.7,32.5-91,68.2-71.5,66.1c19.5-2.2,109.4-16.2,184.1,108.3s120,182.3,120.1,267.7
		c0.1,85.4,40.2,194.8,97.6,119C3711.5,3753,3720.2,3702.1,3720.2,3702.1z"/>
	<path fill="#CA3D72" d="M2888.3,4370.4c-163.6,115.9-506.9,438.7-493.9,880.6s167.9,915.3,631.5,1069.1s296.8,104,275.1,128.9
		c-21.7,24.9-41.2,41.2-57.4,43.3s-16.2,28.2,55.2,22.7c71.5-5.4,94.2-14.1,104-24.9c9.7-10.8,57.4-19.5,16.2,35.7
		c-41.2,55.2-74.7,72.6-30.3,69.3s138.6-26,174.4-53.1c35.7-27.1,41.2-56.3,43.3-21.7c2.2,34.7,5.4,69.3-13,84.5
		c-18.4,15.2,11.9,32.5,73.7,0c61.7-32.5,98.6-88.8,99.7-100.7c1.1-11.9,30.3,36.8,86.7,39s63.9,0,40.1-16.2s-11.9-17.3,24.9-16.2
		s79.1-15.2,85.6-24.9s24.9-22.7-24.9-31.4s-96.4-20.6-70.4-21.7c26-1.1,295.7-28.2,485.3-143c189.6-114.8,561.1-471.2,552.4-828.6
		c-8.7-357.4-112.6-735.5-363.9-953.2c-251.3-217.7-552.4-396.4-632.6-443c-80.2-46.6-88.8-241.5-80.2-269.7
		c8.7-28.2,26-44.4-20.6-4.3c-46.6,40.1-86.7,108.3-92.1,82.3c-5.4-26-14.1-121.3,5.4-162.5c19.5-41.2,27.1-82.3-39-33.6
		c-66.1,48.7-65,105.1-85.6,88.8s-97.5-76.9-156-85.6c-58.5-8.7-76.9-21.7-33.6,14.1c43.3,35.7,84.5,88.8,80.2,101.8
		c-4.3,13-1.1,13-50.9-7.6s-84.5-50.9-55.2,3.2c29.2,54.2,49.8,193.9-42.2,248C3288,4094.2,2888.3,4370.4,2888.3,4370.4z"/>
	<path fill="#E57079" d="M3087.6,4287c0,0-447.4,385.6-480.9,776.6s-52,729,240.5,1016c292.5,287,230.7,238.3,209.1,231.8
		c-21.7-6.5-498.3-400.8-496.1-779.9c2.2-379.1-2.2-356.4,17.3-463.6c19.5-107.2,136.5-493.9,310.9-626.1
		C3062.7,4309.8,3102.8,4250.2,3087.6,4287z"/>
	<path fill="#E57079" d="M3264.1,4499.3c-14.5,36.3-271.9,461.4-229.6,846c42.2,384.5,45.5,620.7,229.6,841.6
		c184.1,221,204.7,243.7,135.4,195c-69.3-48.7-371.5-446.3-384.5-800.5s-42.2-504.8,36.8-701.9c79.1-197.1,193.9-458.2,384.5-633.7
		c190.6-175.5,192.8-189.6,156-134.3C3555.5,4166.8,3298.8,4412.7,3264.1,4499.3z"/>
	<path fill="#E57079" d="M3672.5,4379.1c-3.2,69.3-69.3,1580.4-80.2,1711.4s-23.8,303.3-10.8,267.5s83.4-1003,91-1165.5
		c7.6-162.5,20.6-893.6,22.7-946.7c2.2-53.1-17.3-147.3-22.7-68.2C3667.1,4256.7,3672.5,4379.1,3672.5,4379.1z"/>
	<path fill="#E57079" d="M4143.7,4613c26.7,78.1,174.4,516.7,135.4,800.5c-39,283.8-111.6,527.5-236.1,690
		c-124.6,162.5-292.5,308.7-242.6,284.9c49.8-23.8,418.1-303.3,474.4-755c56.3-451.7,39-680.2-70.4-933.7
		c-109.4-253.5-135.4-343.4-264.3-465.8c-128.9-122.4-112.6-95.3-72.6-49.8S4099.3,4483.1,4143.7,4613z"/>
	<path fill="#E57079" d="M4620.3,4842.7c17.2,81.6,225.3,530.8,125.6,771.2c-99.7,240.5-195,446.3-376.9,568.7
		c-182,122.4-383.4,223.1-300,197.1c83.4-26,526.4-265.4,625-529.7s150.6-354.2,89.9-594.7c-60.7-240.5-182-549.2-328.2-701.9
		s-320.6-329.3-286-277.3S4598.6,4739.8,4620.3,4842.7z"/>
</g>
<g id="quno">
	<path fill="#ECD39B" d="M5155.4,6199.9c269.7,29.2,2335.3,30.3,2644-236.1s386.7-391,382.4-491.8c-4.3-100.7-20.6-254.5-79.1-239.4
		c-58.5,15.2-157.1,8.7-178.7-30.3s-79.1-66.1-104-68.2c-24.9-2.2,28.2-163.6-52-158.1c-80.2,5.4-169-23.8-209.1-18.4
		s-49.8-45.5-68.2-87.7c-18.4-42.2-60.7-49.8-87.7-41.2c-27.1,8.7-53.1-31.4-63.9-48.7c-10.8-17.3-35.7,29.2-83.4,7.6
		c-47.7-21.7-33.6-154.9-99.7-124.6c-66.1,30.3-102.9,3.2-148.4-4.3s-79.1,24.9-98.6-9.7s-106.2-87.7-149.5-56.3s-50.9,94.2-91,60.7
		c-40.1-33.6-7.6-62.8-71.5-55.2s-98.6-109.4-136.5-100.7c-37.9,8.7-52,81.2-127.8,24.9s-74.7-24.9-127.8-35.7
		c-53.1-10.8-21.7-52-100.7-54.2s-94.2-11.9-184.1-31.4s-184.1-10.8-192.8,16.2c-8.7,27.1-41.2,57.4-68.2,46.6
		c-27.1-10.8-69.3-26-80.2,20.6c-10.8,46.6-18.4,86.7-53.1,82.3s-71.5-2.2-101.8,22.7c-30.3,24.9-59.6-31.4-107.2-28.2
		s-71.5-72.6-133.2-35.7c-61.7,36.8-41.2,92.1-102.9,88.8c-61.7-3.2-178.7-14.1-169,35.7c9.7,49.8,4.3,84.5-27.1,84.5
		s-3.2,20.6-40.1,45.5c-36.8,24.9-143,46.6-169,24.9s-49.8-48.7-76.9-34.7c-27.1,14.1-24.9,34.7-65,15.2
		c-40.1-19.5-85.6,3.2-85.6,40.1c0,36.8,26,61.7-43.3,57.4c-69.3-4.3-130,1.1-125.6,44.4c4.3,43.3,6.5,78-39,65
		c-45.5-13-58.5-2.2-62.8,19.5c-4.3,21.7-11.9,40.1-56.3,33.6c-44.4-6.5-137.6,14.1-137.6,41.2c0,27.1-23.8,68.2-52,58.5
		s-110.5-16.2-101.8,27.1c8.7,43.3,34.7,99.7,10.8,109.4s-34.7,9.7-30.3,28.2c4.3,18.4,35.7,28.2-22.7,20.6
		c-58.5-7.6-106.2-3.2-98.6,23.8c7.6,27.1,6.5,92.1-1.1,104s4.3,99.7,26,132.1c21.7,32.5,769.1,583.8,1118.9,592.5
		S5155.4,6199.9,5155.4,6199.9z"/>
	<path fill="#F1EBEF" d="M5214.9,6053.7c249.1,17.3,1198,26,1442.8,0s947.8-136.5,1017.1-179.8c69.3-43.3,394.3-169,437.6-215.6
		s111.6-145.1,111.6-179.8s-556.8,1447.1-621.7,1532.7c-65,85.6-443,493.9-1022.5,557.8s-1356.1,63.9-1793.7-154.9
		c-437.6-218.8-421.4-213.4-515.6-385.6c-94.2-172.2-501.5-1284.6-549.2-1344.2c-47.7-59.6-99.7-247-60.7-206.9
		c39,40.1,112.7,250.2,537.3,361.8c424.6,111.6,768,171.1,892.5,192.8C5214.9,6053.7,5214.9,6053.7,5214.9,6053.7z"/>
	<path fill="#9B4F35" d="M6946.9,5403.8c40.1,0,80.2,16.2,72.6,34.7c-7.6,18.4-46.6,65-72.6,43.3c-26-21.7-75.8-17.3-78-26
		c-2.2-8.7,3.2-52,27.1-52C6919.9,5403.8,6946.9,5403.8,6946.9,5403.8z"/>
	<path fill="#9B4F35" d="M7499.4,5697.3c27.1,14.1,33.6,47.7,37.9,23.8c4.3-23.8,23.8-47.7,33.6-15.2s37.9,85.6,0,80.2
		c-37.9-5.4-46.6,8.7-60.7,13c-14.1,4.3-50.9,15.2-53.1-27.1s11.9-68.2,27.1-71.5C7499.4,5697.3,7499.4,5697.3,7499.4,5697.3z"/>
	<path fill="#9B4F35" d="M7686.7,5472c8.7,10.8,33.6,16.2,35.7,29.2c2.2,13-17.3,57.4-44.4,34.7c-27.1-22.7-35.7-35.7-48.7-40.1
		s-8.7-46.6,13-39c21.7,7.6,37.9,15.2,37.9,15.2H7686.7z"/>
	<path fill="#9B4F35" d="M5496.6,5951.9c6.5,33.6-39,84.5,44.4,65s100.7-75.8,52-83.4c-48.7-7.6-82.3,0-85.6,11.9
		C5504.2,5957.3,5496.6,5951.9,5496.6,5951.9z"/>
	<path fill="#9B4F35" d="M5066.5,5871.7c21.7,13,13,30.3,54.2,9.7c41.2-20.6,70.4-56.3,26-69.3c-44.4-13-100.7-32.5-97.5,0
		C5052.5,5844.6,5066.5,5871.7,5066.5,5871.7z"/>
	<path fill="#9B4F35" d="M5236.6,5293.3c39,2.2,63.9,22.7,70.4-7.6c6.5-30.3,8.7-70.4-13-72.6c-21.7-2.2-74.7-10.8-81.2,13
		c-6.5,23.8,4.3,52,14.1,59.6C5236.6,5293.3,5236.6,5293.3,5236.6,5293.3z"/>
	<path fill="#9B4F35" d="M4969.1,5090.7c15.2,27.1,2.2,29.2,28.2,41.2c26,11.9,94.2,46.6,33.6,52s-70.4,7.6-84.5-8.7
		c-14.1-16.2-13-20.6-30.3-20.6c-17.3,0-50.9-41.2-18.4-55.2C4930.1,5085.3,4969.1,5090.7,4969.1,5090.7z"/>
	<path fill="#9B4F35" d="M4622.4,5711.4c-5.4,22.7-1.1,35.7,14.1,35.7s30.3,6.5,26-23.8c-4.3-30.3,75.8-5.4,34.7-43.3
		s-48.7-31.4-61.7,0S4622.4,5711.4,4622.4,5711.4z"/>
	<path fill="#9B4F35" d="M6845.1,4758.2c-14.1,15.2-73.7,26-33.6,43.3c40.1,17.3,127.8,46.6,118.1,16.2c-9.7-30.3-27.1-26-35.7-50.9
		s-31.4-34.7-40.1-21.7C6845.1,4758.2,6845.1,4758.2,6845.1,4758.2z"/>
	<path fill="#9B4F35" d="M7276.2,5020.3c-3.2,22.7-7.6,43.3,16.2,30.3c23.8-13,73.7-50.9,34.7-56.3c-39-5.4-55.2-10.8-53.1,7.6
		C7276.2,5020.3,7276.2,5020.3,7276.2,5020.3z"/>
	<path fill="#9B4F35" d="M7638,5001.9c18.4,9.7,39,22.7,48.7,8.7c9.7-14.1,34.7-34.7,6.5-44.4s-45.5-21.7-48.2,0
		C7642.3,4987.8,7638,5001.9,7638,5001.9z"/>
	<path fill="#9B4F35" d="M6145.4,5196.9c34.7,23.8,49.8,52,70.4,20.6c20.6-31.4,86.7-92.1,40.1-102.9
		c-46.6-10.8-101.8-14.1-99.7,7.6c2.2,21.7-1.1,28.2-10.8,39S6145.4,5196.9,6145.4,5196.9z"/>
	<path fill="#9B4F35" d="M6141.1,4662.9c21.7,22.7,52,60.7,66.1,30.3c14.1-30.3,34.7-49.8,0-65c-34.7-15.2-61.7-57.4-66.1-21.7
		C6136.7,4642.3,6141.1,4662.9,6141.1,4662.9z"/>
	<path fill="#9B4F35" d="M6737.9,4657.5c19.5,15.2,56.3,36.8,59.6,16.2c3.2-20.6-5.4-56.3-30.3-60.7c-24.9-4.3-29.2-5.4-29.2,19.5
		S6737.9,4657.5,6737.9,4657.5z"/>
	<path fill="#9B4F35" d="M3926,5689.7c50.9-4.3,60.7,4.3,61.7-27.1c1.1-31.4-59.6-65-73.7-44.4c-14.1,20.6-44.4,42.2-22.7,52
		C3913,5680,3926,5689.7,3926,5689.7z"/>
	<path fill="#9B4F35" d="M4491.4,5433c-37.9,40.1-91,98.6-37.9,66.1c53.1-32.5,126.7-87.7,82.3-76.9S4491.4,5433,4491.4,5433z"/>
	<path fill="#9B4F35" d="M5815,5860.9c27.1,18.4,19.5,40.1,55.2,0c35.7-40.1,115.9-79.1,65-97.5s-37.9-22.7-82.3,14.1
		c-44.4,36.8-107.2,29.2-72.6,56.3C5815,5860.9,5815,5860.9,5815,5860.9z"/>
	<path fill="#9B4F35" d="M6199.5,5964.9c28.2-31.4,20.6-70.4-7.6-73.7c-28.2-3.2-63.9-9.7-63.9,9.7s-23.8,41.2,13,45.5
		C6177.9,5950.8,6199.5,5964.9,6199.5,5964.9z"/>
	<path fill="#9B4F35" d="M6698.9,5975.7c13-19.5,41.2-32.5,7.6-37.9c-33.6-5.4-60.7-19.5-60.7,0s4.3,19.5,17.3,27.1
		C6676.1,5972.4,6698.9,5975.7,6698.9,5975.7z"/>
	<path fill="#9B4F35" d="M5273.4,4889.3c26-17.3,22.7-27.1,37.9-48.7s-36.8-68.2-49.8-55.2s10.8,3.2-15.2,30.3
		c-26,27.1-49.8,39-27.1,49.8S5273.4,4889.3,5273.4,4889.3z"/>
	<path fill="#9B4F35" d="M4664.7,5209.9c22.7,23.8,21.7,88.8,44.4,40.1s23.8-55.2,0-73.7c-23.8-18.4-55.2-31.4-53.1-7.6
		C4658.2,5192.5,4664.7,5209.9,4664.7,5209.9z"/>
	<path fill="#9B4F35" d="M4100.4,5168.7c-7.6,37.9-36.8,62.8,5.4,41.2c42.2-21.7,74.7-18.4,52-41.2c-22.7-22.7-54.2-18.4-57.4-13
		C4097.1,5161.1,4100.4,5168.7,4100.4,5168.7z"/>
	<path fill="#9B4F35" d="M4193.5,5403.8c36.8-2.2,55.2,5.4,55.2-30.3c0-35.7-1.1-49.8-41.2-36.8c-40.1,13-60.7,4.3-42.2,31.4
		C4183.8,5395.1,4193.5,5403.8,4193.5,5403.8z"/>
	<path fill="#9B4F35" d="M3952,5487.2c55.2-11.9,69.3-18.4,35.7-33.6s-63.9-31.4-73.7-7.6c-9.7,23.8-37.9,41.2,0,41.2
		S3952,5487.2,3952,5487.2z"/>
	<path fill="#9B4F35" d="M4490.3,4934.8c32.5,14.1,31.4,48.7,32.5,14.1c1.1-34.7-9.7-45.5-26-45.5S4490.3,4934.8,4490.3,4934.8z"/>
	<path fill="#9B4F35" d="M5175.9,4646.6c28.2-5.4,30.3,9.7,34.7-13c4.3-22.7,31.4-45.5-17.3-41.2c-48.7,4.3-85.6,5.4-57.4,27.1
		S5175.9,4646.6,5175.9,4646.6z"/>
	<path fill="#9B4F35" d="M5851.8,4867.6c49.8-45.5,102.9-11.9,53.1-57.4c-49.8-45.5-72.6-49.8-79.1-24.9s-8.7,36.8,0,50.9
		C5834.5,4850.3,5851.8,4867.6,5851.8,4867.6z"/>
	<path fill="#9B4F35" d="M5681.8,5155.7c28.2,14.1,94.2,13,40.1,29.2c-54.2,16.2-101.8-33.6-101.8-33.6L5681.8,5155.7z"/>
	<path fill="#9B4F35" d="M5460.8,5558.7c31.4-35.7,41.2-24.9,6.5-36.8s-119.1-36.8-107.2-13c11.9,23.8,66.1,49.8,71.5,49.8
		C5437,5558.7,5460.8,5558.7,5460.8,5558.7z"/>
</g>
</svg>
