<?xml version="1.0" encoding="utf-8"?>
<!-- Generator: Adobe Illustrator 24.1.2, SVG Export Plug-In . SVG Version: 6.00 Build 0)  -->
<svg version="1.1" id="soup" xmlns="http://www.w3.org/2000/svg" xmlns:xlink="http://www.w3.org/1999/xlink" x="0px" y="0px"
	 viewBox="0 0 8192 8192" style="enable-background:new 0 0 8192 8192;" xml:space="preserve">
<style type="text/css">
	.st0{fill:#E9B570;}
	.st1{fill:#7F7F7F;}
	.st2{fill:#3B3824;}
	.st3{fill:#8A5D38;}
	.st4{fill:#A9ABAE;}
	.st5{fill:#C0C0C0;}
	.st6{fill:#FDFAD7;}
	.st7{fill:#5B3C1E;}
</style>
<path class="st0" d="M1942.4,4272.9l177,742.5c0,0,367.3,774.2,1130.9,845.5s951.2,81.9,1381.9,0
	c430.7-81.9,853.4-237.8,1059.5-451.8c206.1-214,192.9-208.7,224.6-266.9s134.8-372.6,185-657.9c50.2-285.4,105.7-671.1,103-681.7
	s-4084.8-113.6-4201.1-89.8c-116.3,23.8-174.4,31.7-171.7,63.4C1834.1,3807.8,1942.4,4272.9,1942.4,4272.9z"/>
<path class="st1" d="M1802.4,3752.3c0,0,185,428,573.4,589.2s792.7,298.6,1260.3,317.1c467.7,18.5,932.7,13.2,1410.9-134.8
	c478.2-148,702.8-243.1,901-443.9s266.9-309.1,272.1-327.6c5.3-18.5,0-195.5-71.3-253.7s-457.1-359.3-1049-425.4
	c-591.9-66.1-1400.4-134.8-1728-87.2c-327.6,47.6-874.6,111-1099.2,272.1c-224.6,161.2-409.7,306.5-441.3,393.7
	S1802.4,3752.3,1802.4,3752.3z"/>
<path class="st2" d="M2644.6,3171.7c-83.2,19.8-527.1,178.3-661.9,386.4c-134.8,208.1-113,206.3-113,206.3s101.7,296.4,453.1,466.1
	c351.4,169.8,1088.6,383.8,1613.7,356s1724-408.2,1815.2-463.7c91.2-55.5,338.9-231.4,380.5-358.5s0-220.2-99.1-289.5
	c-99.1-69.4-461.7-325-1101.8-378.5s-1226.6-113-1650.7-53.5C2856.6,3102.4,2644.6,3171.7,2644.6,3171.7z"/>
<path class="st3" d="M3242.4,3836.9c-142.7,26.4-681.7,192.9-800.6,293.3c-118.9,100.4-118.9,100.4-118.9,100.4
	s602.4,280.1,951.2,303.9s842.9,132.1,1368.7,0c525.8-132.1,797.9-226.3,959.1-316.6c161.2-90.3,161.2-90.3,161.2-90.3
	s-451.8-243.1-784.7-290.6s-1038-106.9-1413.6-47.6S3242.4,3836.9,3242.4,3836.9z"/>
<path class="st4" d="M3662.5,3093.1c0,0,55.5,105.7,92.5,133.4c37,27.7,116.3,108.3,89.8,190.2c-26.4,81.9-62.1,162.5-93.8,202.1
	c-31.7,39.6-31.7,39.6-31.7,39.6s-10.6-70,14.5-120.2c25.1-50.2,68.7-114.9,5.3-177c-63.4-62.1-158.5-167.8-149.3-297.2
	c9.2-129.5,58.1-243.1,58.1-243.1s-33,155.9-9.2,214S3662.5,3093.1,3662.5,3093.1z"/>
<path class="st4" d="M4080,3131.4c34.3,60.8,182.3,223.3,151.9,351.4c-30.4,128.1-84.6,268.2-107,301.2c-22.5,33-22.5,33-22.5,33
	s-14.5-95.1,8-158.5s80.6-150.6,15.8-237.8s-122.9-165.1-132.1-280.1c-9.2-114.9-22.5-251,0-314.4s30.4-77.9,30.4-77.9
	s-31.7,146.6,2.6,252.3S4080,3131.4,4080,3131.4z"/>
<path class="st4" d="M4506.7,3282.7c42.3,64.1,210.1,184.3,144,315.1c-66.1,130.8-66.1,139.2-87.2,166.7c-21.1,27.5-33,39.1-33,39.1
	s6.6-80.3,35.7-145.1c29.1-64.7,41-113.6-13.2-161.2c-54.2-47.6-126.8-104.4-132.1-225.9c-5.3-121.5-38.3-240.4-9.2-323.7
	c29.1-83.2,55.5-126.8,55.5-126.8s-41,82.6-31.7,197.2c9.2,114.6,5.3,150.3,34.3,203.1C4498.8,3274.1,4506.7,3282.7,4506.7,3282.7z"
	/>
<path class="st5" d="M1723.1,3197.5c0,0,485.5,29.7,836.3,368.6s642.1,592.5,657.9,626.2c15.9,33.7,37.7,99.1-33.7,47.6
	c-71.3-51.5-473.6-362.6-545-390.4s-378.5-182.3-550.9-233.8c-172.4-51.5-394.3-152.6-443.9-212c-49.5-59.4-248.5-208.1-73.3-206.1
	S1723.1,3197.5,1723.1,3197.5z"/>
<ellipse class="st6" cx="3757.3" cy="4021.8" rx="82.2" ry="49.5"/>
<ellipse class="st6" cx="4090.2" cy="3860.2" rx="72.3" ry="56.6"/>
<circle class="st6" cx="4553.4" cy="4083.8" r="44.1"/>
<ellipse class="st6" cx="5158.3" cy="4246.4" rx="104" ry="64.8"/>
<ellipse class="st6" cx="5243.5" cy="4040.1" rx="70.3" ry="55.9"/>
<ellipse class="st6" cx="3389.7" cy="4158.2" rx="63.4" ry="27.7"/>
<ellipse class="st6" cx="2869.5" cy="4286.4" rx="104" ry="74.3"/>
<ellipse class="st6" cx="3904.9" cy="4246.4" rx="103" ry="88.2"/>
<ellipse class="st6" cx="4236" cy="4402.3" rx="95.4" ry="81.6"/>
<path class="st7" d="M3281.4,4202.8c19.8,27.7,52.2,62.8,17.2,77.9c-35,15.2-131.4,14.5-151.3-7.9c-19.8-22.5-51.5-76-44.9-48.9
	c6.6,27.1,52.8,98.4,88.5,90.5c35.7-7.9,118.2,7.3,128.8-31.7c10.6-39,10.6-76-12.6-86.5c-23.1-10.6-81.9-58.8-58.8-33.7
	C3271.5,4187.6,3281.4,4202.8,3281.4,4202.8z"/>
</svg>
