<?xml version="1.0" encoding="utf-8"?>
<!-- Generator: Adobe Illustrator 24.1.2, SVG Export Plug-In . SVG Version: 6.00 Build 0)  -->
<svg version="1.1" id="book" xmlns="http://www.w3.org/2000/svg" xmlns:xlink="http://www.w3.org/1999/xlink" x="0px" y="0px"
	 viewBox="0 0 8192 8192" style="enable-background:new 0 0 8192 8192;" xml:space="preserve">
<style type="text/css">
	.st0{fill:#E4B122;}
	.st1{fill:#82A727;}
</style>
<path class="st0" d="M1686.4,5788.9v-125.6c0-17.1,4.4-33.9,12.6-48.9c81.7-148,139.3-295.7,93.6-478.5
	c-91.1-364.8-67.6-727.2,98.6-1069.5c397.8-819.2,1069.3-1256.2,1946.8-1401c23.1-3.8,46.9,0.5,67.1,12.3
	c171.4,99.8,335,212.9,518,293.1c219.8,96.4,442.2,99,667.7,51.9c53.7-11.2,107.2,22.4,119.1,76c4.2,19.1,2.8,38.4-8.3,57
	c-34,57-99,17.9-150.9,14.7c-6.7-0.4-13.2-3.8-19.9-4.5c-25.2-2.9-62.4-21.1-65.5,19.5c-2.5,32.1,26.7,58.5,63,46.8
	c40.7-13.1,79.9-7.4,118.9-0.9c30.6,5.1,57.7,23.5,72.4,50.7c2.6,4.7,6,9.1,10.7,12.9c3.9,3.2,7.6,6.6,11.1,10.4
	c57.3,62.6,109.8,132.8,212.6,117.5c23.3-3.5,40.4,18.8,39.7,38.9c-3.4,94.1,41.7,179.3,46.5,271.4
	c20.2,388.9-36.1,764.1-225.1,1108.8c-374.3,683-889.1,1171.1-1675.2,1386.7c-120.2,26.9-714.8,22.2-758.2-1.8
	c-127.2-30.8-258-65.5-353.2-152.6c-166.6-152.4-346.3-200.6-565.2-150.1c-93,21.4-186.8,6.7-252.9-70
	C1694.8,5836.2,1686.4,5812.9,1686.4,5788.9z"/>
<path class="st1" d="M3873.8,2659.7c-189.9-205-421-351.7-689.1-468.8c140.2-83.8,280-111.4,418.2-140.6
	c126.7-26.8,255.7-42.9,383.1-66.4c34.8-6.4,75.5-3.3,99.7-39c123,0,246.1,0,369.1,0c22.5,48.1,58.2,83.6,105.2,107.6
	c122.8,63,244.9,126.6,262.1,303.4c50.1-74.8,42.7-136,46.6-195.3c1.9-28.2-25.2-73,37.7-72.4c49,0.5,78.8,21.6,82.9,70.3
	c2.5,30.2,0.5,61.5-4.5,91.6c-6.6,39.7-1.4,74.3,27.1,104c41.1,42.8,58.9,83.3-3.4,125.4c-38.7,26.2-7.2,48.5,13.1,62.9
	c144.3,102.6,284.9,211.4,436.2,302.6c143.7,86.7,246.1,64.1,369.8-48.2c22.4-20.3,48.4-66.1,81.3-36
	c36.2,33.2,17.5,74.9-20.8,103.8c-83.4,62.9-149.9,153.9-262,169.9c-62,8.9-32.3,77.2-74.2,98.3c-106.4,53.7-211.4,110.1-317,165.5
	c-21.7-13.7-21.3-36.8-24.6-58.3c106.9-124.1,279.6-158,383.1-265.5c-153.2-100.4-297-73.2-432,32.2
	c-249.6,62.9-495.5,70.7-738-35.7C4229.1,2885.9,4056.8,2763.7,3873.8,2659.7z M3796.6,2144.1c32.3-7.9,65.3-19.4,72-58
	c4.4-25.5-19.3-34.3-38.9-32.9c-30.9,2.2-72.8-6.1-75.9,42.9C3752.2,2121.5,3767.1,2140.3,3796.6,2144.1z"/>
<path class="st1" d="M6505.6,4303.7c-96.7,149.9-108.9,324.4-142.6,492.6c-8.7,43.2-14.3,87-26.2,161.5
	c-138.5-383.6-357.8-693-523.5-1030.3c-106.3-216.2-107.8-446.4-62.4-680.9c16.4-84.8,107.8-114.3,119.7-197.4
	c2.9-20.1,18.4-1.3,29.1,1.8c306.5,87.2,471.3,305.2,556.1,598.5c12.1,41.8,16.7,87.5,49.8,121
	C6505.6,3948.2,6505.6,4126,6505.6,4303.7z"/>
</svg>
