<?xml version="1.0" encoding="utf-8"?>
<!-- Generator: Adobe Illustrator 24.1.2, SVG Export Plug-In . SVG Version: 6.00 Build 0)  -->
<svg version="1.1" id="book" xmlns="http://www.w3.org/2000/svg" xmlns:xlink="http://www.w3.org/1999/xlink" x="0px" y="0px"
	 viewBox="0 0 8192 8192" style="enable-background:new 0 0 8192 8192;" xml:space="preserve">
<style type="text/css">
	.st0{fill:#030303;}
</style>
<path class="st0" d="M2069.7,6036C2069.7,6036,2069.7,6036,2069.7,6036c-0.1-0.1-0.1-0.1-0.1-0.2L2069.7,6036z"/>
<path class="st0" d="M6300.4,2856.8l-10.6-18c-169.2-193.1-363-371.3-548.5-557.5c-128.6-129.1-251.3-264.5-391.2-382.1
	c-5.3-4.4-16.3-9.3-13-20.8c-1016.2,0-2032.4,0-3048.6,0c-31,29.6-74.1,37.4-108.6,60.6c-27.6,18.2-45.7,50.8-85.4,51.3
	c-23.6,0.3-6.7,24-14.1,34.1c-15.8,21.7-33,42.4-49.6,63.5c-20,39.6-40,79.2-65.6,129.9c-0.1-0.5-1.3,3.2-1.4,2.8
	c-2.8,11.1-8.9,17-15.2,27.1c0.2,861.2,0.4,1722.4,0.5,2583.5c0,328.8-0.2,657.6-0.4,986.4c2.2,10.8,4.6,14.8,10.7,24.2
	c0-1.3,1.4,3.6,1.4,2.3c26.4,70.6,64,133.2,108.7,191.8c55.1,53.7,116.3,98.8,186,132.1c1253.8,0,2507.6,0,3761.4,0
	c36.5-22.1,73-44.1,109.5-66.2c49.8-47,98.4-95,128.8-157.7c4.7-9.6,11.1-15,21-29.9c15.5-28.1,28.9-45.1,42.1-74.8
	c2.4-4.6,4.1-9.4,5.5-14.4c0.1-973,0.1-1946.1,0.1-2919.1C6312.5,2892.9,6306.7,2874.3,6300.4,2856.8z M5371,2416.2
	c0-26.5,0-53,0-83.1c31,29.4,59.1,56.1,87.2,82.8c3.6,3.5,7.2,7,10.8,10.5c36.9,29.3,70.5,62,100.3,98.4c3.4,3.3,6.7,6.5,10.1,9.8
	c33.6,33.1,67.1,66.2,100.7,99.3c3.2,3.1,6.3,6.3,9.5,9.4c37.4,29.6,70.9,63.2,101.9,99.5c14.1,13.3,28.2,26.6,50.3,47.4
	c-58.4,3.9-106.2,6.5-154.3,0c-36.3,5.9-72.6,5.8-108.9,0c-125.2,11.7-200.7-44.6-207.5-154.6c-0.1-36.7-0.1-73.4-0.2-110.1
	C5371,2489.1,5371,2452.6,5371,2416.2z M5995.2,3622.8c0,36.6,0,73.2,0,109.7c4.8,36.6,4.8,73.1,0,109.7c0,36.6,0,73.2,0,109.7
	c4.8,36.6,4.8,73.1,0,109.7c0,36.6,0,73.2,0,109.7c4.8,36.6,4.8,73.1,0,109.7c0,36.6,0,73.2,0,109.7c4.8,36.6,4.8,73.1,0,109.7
	c0,36.6,0,73.2,0,109.7c4.8,36.6,4.8,73.1,0,109.7c0,36.6,0,73.2,0,109.7c4.8,36.6,4.8,73.1,0,109.7c0,36.6,0,73.2,0,109.7
	c4.8,36.6,4.8,73.1,0,109.7c0,36.6,0,73.2,0,109.7c4.8,36.6,4.8,73.1,0,109.7c0,36.6,0,73.2,0,109.7c4.8,36.6,4.8,73.1,0,109.7
	c0,36.6,0,73.2,0,109.7c3.1,42.9,11.2,86.7-19.6,124.3c-13.3,29.4-35.8,47.6-67.3,54.8c-35.9,16.9-73.4,10.2-110.6,7.4
	c-36.6,0-73.1,0-109.7,0c-36.6,4.7-73.1,4.7-109.7,0c-36.6,0-73.1,0-109.7,0c-36.6,4.7-73.1,4.7-109.7,0c-36.6,0-73.1,0-109.7,0
	c-36.6,4.7-73.1,4.7-109.7,0c-36.6,0-73.1,0-109.7,0c-36.6,4.7-73.1,4.7-109.7,0c-36.6,0-73.1,0-109.7,0c-36.6,4.7-73.1,4.7-109.7,0
	c-36.6,0-73.1,0-109.7,0c-36.6,4.7-73.1,4.7-109.7,0c-36.6,0-73.1,0-109.7,0c-36.6,4.7-73.1,4.7-109.7,0c-36.6,0-73.1,0-109.7,0
	c-36.6,4.7-73.1,4.7-109.7,0c-36.6,0-73.1,0-109.7,0c-36.6,4.7-73.1,4.7-109.7,0c-36.6,0-73.1,0-109.7,0c-36.6,4.7-73.1,4.7-109.7,0
	c-36.6,0-73.1,0-109.7,0c-36.6,4.7-73.1,4.7-109.7,0c-36.6,0-73.1,0-109.7,0c-36.6,4.7-73.1,4.7-109.7,0c-36.6,0-73.1,0-109.7,0
	c-36.6,4.7-73.1,4.7-109.7,0c-36.6,0-73.1,0-109.7,0c-36.6,4.7-73.1,4.7-109.7,0c-36.6,0-73.1,0-109.7,0c-36.6,4.7-73.1,4.7-109.7,0
	c-36.5,4.1-73.1,4.6-109.6-0.3c-54.5,0.3-91.5-25-110.9-76c-7.8-5.8-9.9-13.7-8.3-22.9c-16-38.7-8.7-79.5-8.7-119.1
	c-0.4-913,0-1826.1,0.2-2739.1c0-200.9-1.1-401.7-0.3-602.6c0.4-94.6,43.9-143.5,128.7-150.3c36.1-6.6,72.1-6,108.2-0.5
	c37.1-6.6,74.1-6.5,111.2-0.1c36-5.7,72.1-5.8,108.1,0.1c37.1-6.6,74.1-6.5,111.2-0.1c35.9-5.7,71.8-5.7,107.7,0
	c37.1-6.4,74.3-6.5,111.4,0.1c36.1-5.6,72.3-5.7,108.4,0c37-6.6,73.9-6.6,110.9,0c36-5.8,71.9-5.7,107.9-0.1
	c37.1-6.4,74.3-6.5,111.4,0.1c36-5.8,71.9-5.7,107.9-0.1c37.1-6.4,74.3-6.5,111.4,0.1c36-5.8,71.9-5.7,107.9-0.1
	c37.1-6.4,74.3-6.5,111.4,0.1c36-5.8,71.9-5.7,107.9-0.1c37.1-6.4,74.3-6.5,111.4,0.1c36-5.8,71.9-5.7,107.9-0.1
	c37.2-6.4,74.4-6.5,111.7,0c35.9-5.7,71.8-5.7,107.7,0c37.1-6.4,74.3-6.5,111.4,0.1c36-5.8,71.9-5.7,107.9-0.1
	c37.1-6.4,74.3-6.5,111.4,0.1c36.1-5.6,72.3-5.7,108.4,0c48.6-12.1,97,2.3,145.5,0.5c22-0.8,16.7,13.8,16.4,25.6
	c-0.8,32.6-2.2,65.2-3.3,97.9c5.1,36.1,5,72.1,0.1,108.2c5.4,37.2,5.4,74.3,0,111.5c5,36.1,5.1,72.2-0.1,108.3
	c1.7,36.8,3.4,73.7,5.1,110.5c8.9,31.1,17.8,62.2,26.7,93.3c15.1,31.4,42,56.7,45.7,94.3c2.9,29,39.3,16.8,51.7,39
	c9.1,16.3,27.8,27.2,42.3,40.6c32.1,18.2,64.3,36.5,96.4,54.7c3.8-0.1,7.6-0.3,11.3-0.4c36.9,7,73.7,14,110.6,21
	c36.8,0.3,73.7,0.5,110.5,0.8c36.2,0,72.5,0,108.7,0c36.9,0,73.8,0,110.6,0c36.2,0,72.5,0,108.7,0c106.2-3.8,93.1-20.8,88.3,95.3
	c0,36.6,0,73.2,0,109.7c4.8,36.6,4.8,73.1,0,109.7c0,36.6,0,73.2,0,109.7C6000,3549.7,6000,3586.2,5995.2,3622.8z"/>
<path class="st0" d="M6300.4,2856.8c6.3,17.5,12.1,36.1,23.7,49.1c0-2.9,0-5.8,0-8.7L6300.4,2856.8z"/>
<path class="st0" d="M4810.9,2634.9c61.5,15.7,103,54.4,128.2,111.8c4.4,35.1,5.8,70-3.3,104.6c-5.5,11.4-11,22.9-16.4,34.3
	c-24.6,28.1-54.8,48.8-86.9,67c-7.1,1.1-14.2,2.2-21.3,3.3c-36.8,0.8-73.7,1.7-110.5,2.5c-36.2,0-72.3,0-108.5,0
	c-37-5.5-74-5.5-111,0c-36.1,0-72.3,0-108.4,0c-79.7-3.9-163.3,3.6-218.6-73.2c-5.4-11.5-10.9-22.9-16.3-34.4
	c-8.7-34.4-8-69-2.9-103.8c23.9-58.5,66.6-95.6,127.4-112c36.7-0.7,73.4-1.3,110.1-2c36.3,0,72.6,0,109,0c36.8,0,73.6,0,110.4,0
	c36.3,0,72.6,0,109,0C4737.5,2633.7,4774.2,2634.3,4810.9,2634.9z"/>
<path class="st0" d="M2619.7,5297c-7.1-10-14.1-20-21.2-30c-14.3-34.9-17.2-71.4-15.8-108.6c19.9-74.9,70.9-115.8,144.4-132.1
	c36.7-0.1,73.3-0.3,110-0.4c36.4,0,72.9,0,109.3,0c36.7,0,73.4,0,110,0c36.4,0,72.9,0,109.3,0c36.7,0,73.4,0,110,0
	c36.4,0,72.9,0,109.3,0c36.7,0,73.4,0,110,0c36.4,0,72.9,0,109.3,0c36.7,0,73.4,0,110,0c36.4,0,72.9,0,109.3,0c36.7,0,73.4,0,110,0
	c36.4,0,72.9,0,109.3,0c36.7,0,73.4,0,110,0c36.4,0,72.9,0,109.3,0c36.7,0,73.4,0,110,0c36.4,0,72.9,0,109.3,0c36.7,0,73.4,0,110,0
	c36.4,0,72.9,0,109.3,0c36.7,0,73.4,0,110,0c36.4,0,72.9,0,109.3,0c36.7,0,73.4,0,110,0c36.4,0,72.9,0,109.3,0c36.7,0,73.4,0,110,0
	c36.4,0,72.9,0,109.3,0c36.7,0,73.4,0,110,0c36.1,2.9,72.1,5.7,108.2,8.6c13.4,5.4,26.7,10.8,40.1,16.2c29.6,24.9,51.8,55.7,70,89.5
	c0.9,6.3,1.8,12.5,2.7,18.8c8.7,89.6-31.1,150.2-111.5,186.4c-36.8,2.7-73.5,5.5-110.3,8.2c-36-5.9-72.1-5.8-108.1-0.1
	c-37.2-6.3-74.5-6.3-111.7,0c-36-5.7-71.9-5.8-107.9,0.1c-37.1-6.4-74.3-6.3-111.4-0.1c-36-5.7-71.9-5.8-107.9,0.1
	c-37.1-6.4-74.3-6.3-111.4-0.1c-36-5.7-71.9-5.8-107.9,0.1c-37.1-6.4-74.3-6.3-111.4-0.1c-36-5.7-71.9-5.8-107.9,0.1
	c-37.1-6.4-74.3-6.3-111.4-0.1c-36-5.7-71.9-5.8-107.9,0.1c-37.1-6.4-74.3-6.3-111.4-0.1c-36-5.7-71.9-5.8-107.9,0.1
	c-37.1-6.4-74.3-6.3-111.4-0.1c-36-5.7-71.9-5.8-107.9,0.1c-37.1-6.4-74.3-6.3-111.4-0.1c-35.9-5.8-71.7-5.8-107.6,0
	c-37.3-6.3-74.5-6.3-111.8,0c-36-5.7-71.9-5.8-107.9,0.1c-37.1-6.4-74.3-6.3-111.4-0.1c-35.9-5.7-71.7-5.8-107.6,0
	c-37.1-6.2-74.1-6.4-111.2,0.1c-36-5.9-72.1-5.8-108.1-0.1c-37.1-6.2-74.1-6.4-111.2,0.1c-36-7.1-72.3-3.7-108.5-2.2
	C2687.1,5342.5,2651.2,5324.2,2619.7,5297z"/>
<path class="st0" d="M2579.5,2744.9c0-36.4,0-72.8,0-109.2c1.8-40.4,14.3-77.1,38.7-109.5l-0.2,0.2c32.2-25.2,69.8-36.7,109.5-42.9
	c36.3,5.6,72.6,5.6,108.9,0c36.8,5.9,73.7,5.9,110.5,0c36.3,5.6,72.6,5.7,108.9,0c36.8,5.9,73.5,5.9,110.3,0
	c36.3,5.7,72.7,5.7,109,0c36.8,5.9,73.6,5.9,110.4,0c36.3,5.6,72.6,5.7,108.9,0c36.8,5.9,73.6,5.9,110.4,0
	c36.2,1.9,72.5,3.8,108.7,5.7c70,23.7,109.9,70.2,110.3,146.4c0,36.6,0,73.1,0,109.7c-5.2,36.6-5.2,73.2,0,109.8
	c0,36.6,0,73.1,0,109.7c-5.2,36.6-5.2,73.2,0,109.8c0,36.6,0,73.1,0,109.7c-5.2,36.6-5.2,73.2,0,109.8c0,36.6,0,73.1,0,109.7
	c0,79.7-29.4,140-110.1,166.2c-36.3,1.1-72.6,2.1-108.8,3.2c-37,0-74,0-110.9,0c-36.1,0-72.2,0-108.3,0c-37,0-74,0-111,0
	c-36.1,0-72.3,0-108.4,0c-36.9,0-73.8,0-110.7,0c-36.2,0-72.3,0-108.5,0c-37,0-74,0-111,0c-36.1,0-72.3,0-108.4,0
	c-40.6-1.7-76.8-15.5-109-40.2c-5.7-7.4-11.4-14.9-17.1-22.3c-19.4-33.3-17.9-71-22.1-107.4c0-36.2,0-72.4,0-108.6
	c4.5-36.9,4.5-73.8,0-110.8c0-36.2,0-72.4,0-108.6c4.5-36.9,4.5-73.8,0-110.8c0-36.2,0-72.4,0-108.6
	C2584.1,2818.5,2584.1,2781.7,2579.5,2744.9z M2892.1,3184.1c-5.8,82.3-5.8,82.3,54.1,77.8c36.7,6.1,73.5,6.1,110.2,0
	c36.4,4.7,72.7,4.7,109.1,0c36.7,6.1,73.5,6.1,110.2,0c36.4,4.7,72.7,4.7,109.1,0c23.4,1.2,47,0.8,70.1,4
	c46.6,6.6,58.4-13.6,57-57.9c-3.3-101.5-1.9-203.2-2-304.7c-0.1-121.2,0-121.2-125.3-105.9c-36-5.7-72.1-5.6-108.1-0.1
	c-37.1-6.6-74.1-6.7-111.2,0.1c-36-5.7-72.1-5.6-108.1-0.1c-37.1-6.6-74.1-6.7-111.2,0.1c-56.7-17.1-63.5,12.5-53.8,57.5
	c0,36.6,0,73.2,0,109.9c0,36.5,0,73,0,109.5C2892.1,3110.8,2892.1,3147.4,2892.1,3184.1z"/>
<path class="st0" d="M5688.5,3951.8c4.1,142.1-51.2,200-194.5,200.1c-855.5,0.3-1711.1,0.1-2566.6,0.6c-30.3,0-61.7-7.4-91.2,6.4
	c-19.6-1.6-39.3-5.4-58.8-4.3c-60.9,3.5-114.1-13.1-158.9-55.1c-10.2-17.8-20.5-35.7-30.7-53.5c-1.4-31.3-2.8-62.6-4.2-93.9
	c26-66.5,69.2-112.6,143.7-121.8c36.4-0.1,72.9-0.2,109.3-0.3c36.7,0,73.4,0,110.1,0c36.4,0,72.8,0,109.2,0c36.7,0,73.4,0,110.1,0
	c36.4,0,72.8,0,109.2,0c36.7,0,73.4,0,110.1,0c36.4,0,72.8,0,109.2,0c36.7,0,73.4,0,110.1,0c36.4,0,72.8,0,109.2,0
	c36.7,0,73.4,0,110.1,0c36.4,0,72.8,0,109.2,0c36.7,0,73.4,0,110.1,0c36.4,0,72.8,0,109.2,0c36.7,0,73.4,0,110.1,0
	c36.4,0,72.8,0,109.2,0c36.7,0,73.4,0,110.1,0c36.4,0,72.8,0,109.2,0c36.7,0,73.4,0,110.1,0c36.4,0,72.8,0,109.2,0
	c36.7,0,73.4,0,110.1,0c36.4,0,72.8,0,109.2,0c36.7,0,73.4,0,110.1,0c36.4,0,72.8,0,109.2,0c36.7,0,73.4,0,110.1,0
	c36.4,0,72.8,0,109.2,0c35.7,2.4,71.3,4.7,107,7.1C5632.1,3856.7,5668.2,3896.5,5688.5,3951.8z"/>
<path class="st0" d="M2727.1,4753.5c-78.6-17.1-130.2-61.6-145.8-143c-0.4-38.7,7.3-75.6,25.1-110.1
	c43.5-55.9,101.7-75.5,170.7-70.5c19.4,1.4,39.1-1.8,58.7-2.9c37.1,6.6,74.2,6.7,111.2,0c36,5.5,72.1,5.4,108.1,0
	c37.2,6.6,74.5,6.6,111.7,0c36,5.3,72,5.4,108,0c37,6.7,73.9,6.7,110.9,0c36,5.5,72.1,5.4,108.1,0c37.2,6.6,74.5,6.6,111.7,0
	c36,5.3,72,5.4,108,0c37.1,6.7,74.2,6.6,111.4,0c36,5.3,72,5.4,108,0c37.1,6.7,74.2,6.6,111.4,0c36,5.3,72,5.4,108,0
	c37.1,6.7,74.2,6.6,111.4,0c35.9,5.4,71.8,5.4,107.7,0c37.2,6.6,74.4,6.6,111.6,0c36,5.3,72,5.4,108,0c37.1,6.7,74.2,6.6,111.4,0
	c36,5.3,72,5.4,108,0c37,6.7,73.9,6.7,110.9,0c36.1,5.5,72.3,5.4,108.4,0c37,6.7,73.9,6.7,110.9,0c36,5.5,72.1,5.4,108.1,0
	c37.1,6.6,74.1,6.7,111.2,0c36.1,5.4,72.3,5.4,108.4,0c36.8,2.6,73.6,5.2,110.3,7.7c75.3,34.1,116.8,90,113,175.2
	c-1.4,10-2.7,20-4.1,30c-14.6,22.5-29.3,45.1-43.9,67.6c-22,12.8-44.1,25.6-66.1,38.4c-36.1,2.8-72.2,5.6-108.3,8.3
	c-36.7,0-73.4,0-110.1,0c-36.4,0-72.8,0-109.2,0c-36.7,0-73.4,0-110.1,0c-36.4,0-72.8,0-109.2,0c-36.7,0-73.4,0-110.1,0
	c-36.4,0-72.8,0-109.2,0c-36.7,0-73.4,0-110.1,0c-36.4,0-72.8,0-109.2,0c-36.7,0-73.4,0-110.1,0c-36.4,0-72.8,0-109.2,0
	c-36.7,0-73.4,0-110.1,0c-36.4,0-72.8,0-109.2,0c-36.7,0-73.4,0-110.1,0c-36.4,0-72.8,0-109.2,0c-36.7,0-73.4,0-110.1,0
	c-36.4,0-72.8,0-109.2,0c-36.7,0-73.4,0-110.1,0c-36.4,0-72.8,0-109.2,0c-36.7,0-73.4,0-110.1,0c-36.4,0-72.8,0-109.2,0
	c-36.7,0-73.4,0-110.1,0c-36.4,0-72.8,0-109.2,0c-36.7,0-73.4,0-110.1,0c-36.4,0-72.8,0-109.2,0
	C2800.4,4753.9,2763.8,4753.7,2727.1,4753.5z"/>
<path class="st0" d="M4372,3557.9c-36.4-0.6-72.9-1.3-109.3-1.9c-74.4-24.9-125.4-70.2-133.8-152.9c0.6-37.1,10.8-71.5,29.9-103.2
	c0,0,0.1-0.5,0.1-0.5c28.4-31,61.5-54.5,103.1-64.3c36.9-0.6,73.8-1.3,110.7-1.9c36.2,0,72.4,0,108.6,0c36.9,0,73.8,0,110.7,0
	c36.2,0,72.4,0,108.6,0c36.9,0.6,73.7,1.1,110.6,1.7c41.9,9.6,75.1,33.5,104,64.1c18,32.4,29.3,66.6,29.8,104
	c-10,81.6-58.7,129.2-134.3,153.2c-36.5,0.6-72.9,1.1-109.4,1.7c-36.7,0-73.3,0-110,0c-36.4,0-72.9,0-109.3,0
	C4445.3,3557.9,4408.6,3557.9,4372,3557.9z"/>
</svg>
