<?xml version="1.0" encoding="utf-8"?>
<!-- Generator: Adobe Illustrator 24.1.2, SVG Export Plug-In . SVG Version: 6.00 Build 0)  -->
<svg version="1.1" id="book" xmlns="http://www.w3.org/2000/svg" xmlns:xlink="http://www.w3.org/1999/xlink" x="0px" y="0px"
	 viewBox="0 0 8192 8192" style="enable-background:new 0 0 8192 8192;" xml:space="preserve">
<path d="M4465.2,5043.9c146.1-19.1,284.5-44.6,416-99.1c256.3-106.2,411.4-298.5,474.4-565.4c38.5-163.3,50.9-329.3,22.3-496.1
	c-23.8-139-83.7-261.4-175.9-367.7c-13.5-15.5-16.1-27.7-9.9-48.1c51.5-167.1,36.8-331.7-21.3-494.4c-7.1-19.8-19.4-21.8-36.4-22.2
	c-102.2-2.9-195,31.3-286.1,72.2c-78.6,35.3-152.4,79.4-224,127c-14.6,9.7-26.5,11.3-43.5,7c-236.1-60.7-475.6-76.8-717.6-48.4
	c-83.9,9.8-167.5,23.3-248.6,47.7c-22.3,6.7-38.3,1.8-56.1-10c-114.2-75.3-232.8-141.7-366.2-177.6c-45.2-12.1-90.7-19.3-137.6-18.1
	c-19.4,0.5-30.5,5.3-37.6,25.4c-58,164-74.1,329.3-18,497.2c4.8,14.5,3.3,23.3-7,35.2c-155.8,180.7-211.1,391.9-193.6,627.1
	c10.8,144.1,33.4,284.7,93.8,417c98.8,216.5,270.9,348.3,492.3,421.9c108.3,36,220,56.4,337,70.5
	c-73.8,71.3-109.1,158.6-124.5,255.2c-1.7,10.8-6,18.3-17.3,22.8c-131.3,52.1-263.3,71.7-396,5.8c-74.2-36.9-129.1-95-171.7-165
	c-56.1-92.3-127.9-166.8-231.1-206.1c-44.3-16.9-90.1-22.9-136.9-15.4c-17.7,2.8-37.6,7.4-44.7,26.6c-7.5,20.2,7.7,34.3,20.4,46.8
	c14.5,14.2,29.5,29,46.8,39.3c113.8,67.5,180.3,172.4,229,290.3c66,160,191.3,240.9,355.2,269.5c103.7,18.1,207.8,11.1,310.6-10.5
	c20.1-4.2,25.4-0.4,25.5,20.2c0.6,114.7,3.1,229.4,3.5,344.1c0.3,84.9-62.5,130.9-144.1,104.5c-234.8-75.8-446.7-194.4-637.1-350.7
	c-337.2-276.8-565.3-625.9-679.8-1046.9c-57.4-210.9-79.4-426-66.1-645.5c26.5-438.1,175.9-828.1,452.6-1167.2
	c304.6-373.2,694.8-609.7,1167.2-709.9c171.8-36.4,345.6-49.4,520-39.1c467.8,27.7,880.7,194,1233.6,503.9
	C5746.9,2890.2,5954,3227,6062,3625.3c58.1,214.3,78.5,432.9,63.3,653c-31.2,453.9-195.5,856.1-493.9,1200.6
	c-237.5,274.1-529.2,470.6-872.2,589.8c-77.4,26.9-137.4,3.9-155.3-59.5c-4.2-14.9-4-31.4-4-47.1c0.1-179.4,0.2-358.9,1.1-538.3
	c0.4-91.6-13.1-180.1-51.8-263.8C4529.6,5117.5,4502.6,5080.1,4465.2,5043.9z"/>
<path d="M3220.8,5439.1c-25,0.2-54-20.8-51.2-38.7c2.9-19,17.4-24,34.8-23.9c25.6,0.2,54.7,20.7,51.5,38.4
	C3252.7,5433.1,3237.9,5438.8,3220.8,5439.1z"/>
<path d="M3533.7,5383.4c23.9-0.1,39.4,6.4,42.5,26.1c2.6,16.5-26.8,37.4-50,35.5c-16.8-1.4-37.1-5.4-36-26.8
	C3491.7,5389.7,3515.9,5385.7,3533.7,5383.4z"/>
<path d="M3372,5403.5c26.7,0.5,47.8,5.1,48.2,28.5c0.4,25.8-23.5,31.1-43.6,31.7c-19.5,0.5-42.8-7-42.4-29.2
	C3334.5,5411.7,3355.5,5402.6,3372,5403.5z"/>
<path d="M3108,5335.8c2.1,16.7-8.9,24.6-23.3,26.6c-20.1,2.8-52.8-29.2-51.9-49.9c0.6-15.9,9.1-24.2,26-24.1
	C3082.7,5288.5,3107.5,5311.4,3108,5335.8z"/>
<path d="M3001.7,5217.7c-0.7,13.1-3.3,25.1-19.5,26.8c-18.1,1.9-42.9-22.7-44.2-44.2c-0.9-15.4,4.8-26.7,21.9-28
	C2979.8,5170.9,3001,5194.3,3001.7,5217.7z"/>
<path d="M2898.5,5128.9c-21.5-4.3-36.4-16.2-38.3-39.8c-1.1-13.6,6.4-21.3,20.5-19.6c21.5,2.7,34,14.6,36.4,36.8
	C2918.7,5120.3,2912.7,5127.4,2898.5,5128.9z"/>
<path d="M2831,5026.8c-3,11.7-11.4,17.9-24.2,15.5c-15.1-2.8-28.8-11.3-30.6-26.7c-1.4-12,10.7-20.8,22.5-18.4
	C2813.6,5000.2,2829.2,5006.2,2831,5026.8z"/>
</svg>
