<?xml version="1.0" encoding="utf-8"?>
<!-- Generator: Adobe Illustrator 24.1.2, SVG Export Plug-In . SVG Version: 6.00 Build 0)  -->
<svg version="1.1" id="book" xmlns="http://www.w3.org/2000/svg" xmlns:xlink="http://www.w3.org/1999/xlink" x="0px" y="0px"
	 viewBox="0 0 8192 8192" style="enable-background:new 0 0 8192 8192;" xml:space="preserve">
<style type="text/css">
	.st0{fill:#515E67;}
	.st1{fill:#647A87;}
	.st2{fill:#FFFFFF;}
	.st3{fill:#D3D4D6;}
	.st4{fill:#3E4347;}
</style>
<polygon class="st0" points="5408,3076.8 5247.8,3251.1 5453,3456.2 5630,3296 "/>
<polygon class="st0" points="2754.7,3076.8 2903.7,3223 2698.5,3456.2 2521.4,3253.9 "/>
<rect x="3983" y="2551.2" class="st0" width="200.5" height="243.8"/>
<circle class="st1" cx="4083.2" cy="4622.8" r="1830.4"/>
<circle class="st2" cx="4083.2" cy="4622.8" r="1611.9"/>
<circle class="st3" cx="4083.2" cy="4622.8" r="1486.8"/>
<path class="st1" d="M5312.4,3034.6l354.1,351.3l230.5-219.2c0,0,89.9-67.2,0-155.9c-89.9-88.7-202-195.5-202-195.5
	s-87.5-95.6-180.3,0C5422,2911,5312.4,3034.6,5312.4,3034.6z"/>
<path class="st1" d="M2847.4,3029l-210.8-213.6c0,0-89.9-92.8-177.1,0c-87.1,92.8-182.7,195.5-182.7,195.5s-87.1,74.3,0,161.5
	s213.6,213.6,213.6,213.6L2847.4,3029z"/>
<path class="st3" d="M4231.7,2466.9c0,0,163-109.6,174.3-253c11.2-143.3-49.2-262.8-164.4-317.6s-274-66.1-359.8,18.3
	c-85.7,84.3-149,213.6-109.6,316.2c39.3,102.6,56.2,161.6,111,191.1c54.8,29.5,35.1,112.4,35.1,112.4s26.7,52-28.1,29.5
	c-54.8-22.5-189.7-127.9-223.4-247.3c-33.7-119.5-45-234.7,0-313.4c45-78.7,172.9-244.5,276.9-251.6c104-7,212.9-32.3,321.5,16.9
	c108.6,49.2,222.4,186.9,235,253c12.6,66.1,53.4,224.9,0,314.8c-53.4,89.9-123.7,170-179.9,203.8c-56.2,33.7-37.9,32.4-81.5,29.5
	S4231.7,2466.9,4231.7,2466.9z"/>
<path class="st1" d="M3904.3,2573.7H4264v-359.8c0,0,26.2-126.5-180.9-129.3c-207-2.8-178.9,129.3-178.9,129.3V2573.7z"/>
<rect x="4033.6" y="3266.5" class="st4" width="101.2" height="394.9"/>
<polygon class="st4" points="4713.7,3416.9 4621,3579.9 4696.9,3633.3 4792.4,3464 "/>
<polygon class="st4" points="5225.3,3900.3 5056.6,3993.1 5110.1,4083 5273.8,3981.1 "/>
<rect x="5031.4" y="4571.4" class="st4" width="405.4" height="93.5"/>
<polygon class="st4" points="5112.9,5153.9 5059.5,5232.6 5230.2,5342.2 5282.9,5257.9 "/>
<polygon class="st4" points="4616.1,5640.8 4721.5,5813.7 4807.9,5762.4 4703.2,5591 "/>
<rect x="4031.5" y="5560" class="st4" width="101.9" height="412.5"/>
<polygon class="st4" points="3467.9,5591 3357.6,5769.4 3446.1,5829.2 3554.3,5647.9 "/>
<polygon class="st4" points="2879.1,5260 2930.4,5341.5 3108.8,5235.4 3054.7,5150.4 "/>
<rect x="2730.1" y="4570" class="st4" width="411.1" height="97.7"/>
<polygon class="st4" points="2875.6,3983.9 3049.8,4080.2 3108.1,3998.7 2931.8,3902.4 "/>
<polygon class="st4" points="3357.6,3470.3 3459.5,3636.1 3541.7,3590.4 3439.8,3419.7 "/>
<circle class="st4" cx="4078.2" cy="4622.8" r="209.7"/>
<polygon class="st4" points="4913,5437.1 4276.9,4690 4157.9,4816.8 "/>
</svg>
