<?xml version="1.0" encoding="utf-8"?>
<!-- Generator: Adobe Illustrator 25.4.1, SVG Export Plug-In . SVG Version: 6.00 Build 0)  -->
<svg version="1.1" id="V6" xmlns="http://www.w3.org/2000/svg" xmlns:xlink="http://www.w3.org/1999/xlink" x="0px" y="0px"
	 viewBox="0 0 4000 4000" style="enable-background:new 0 0 4000 4000;" xml:space="preserve">
<style type="text/css">
	.st0{opacity:0.2;stroke:#000000;stroke-width:100;stroke-miterlimit:10;}
	.st1{fill:#FFFFFF;stroke:#FFFFFF;stroke-width:100;stroke-miterlimit:10;}
	.st2{opacity:0.9;fill:#896F58;stroke:#896F58;stroke-width:100;stroke-miterlimit:10;}
	.st3{fill:#4D8B61;stroke:#4D8B61;stroke-width:100;stroke-miterlimit:10;}
	.st4{fill:#A2CAAB;stroke:#A2CAAB;stroke-width:100;stroke-miterlimit:10;}
	.st5{opacity:0.2;fill:#4D8B61;stroke:#4D8B61;stroke-width:100;stroke-miterlimit:10;}
	.st6{opacity:0.3;fill:#4D8B61;stroke:#4D8B61;stroke-width:100;stroke-miterlimit:10;}
	.st7{opacity:0.5;fill:#4D8B61;stroke:#4D8B61;stroke-width:100;stroke-miterlimit:10;}
</style>
<g id="Shadow">
	<path class="st0" d="M3061.69,2929.87c24.91,22.14-6.78,203.9-54.63,203.91c-40.77,0.01-163.18-172.06-124.56-192.42
		C2908.27,2927.78,3044.33,2914.44,3061.69,2929.87z"/>
	<path class="st0" d="M3278.3,1723.47c-22.67-48.46-173.51-173.97-239.31-183.34s-242.6-240.87-254.79-287.13
		c-12.19-46.27-276.29-471.97-276.29-471.97c-80.11-103.08-71.89,406.87-184.2,436.96c-112.31,30.09-191.25-209.37-191.95-274
		s-161.23-39.15-237.12-47.36c-75.89-8.2-150.39,173.37-201.09,203.91c-56.04,33.77-323,183.46-399.97,294.59
		c-83.63,120.76-250.77,160.07-446.19,307.92c-177.5,134.29,53.69,647.02,84.42,725.89c38.97,100,1.62,201.38,118.88,231.41
		c102.86,26.35,355.52-106.06,587.56-248.86c44.76-27.54,99.71-42.7,159.82-48.48c-9.39,74.02,37.43,546.13-111.53,823.78
		c-24.27,45.24-73.01,109.64-5.13,109.64c130.55,0,241.89,0.51,353.11-1.24c9.38-0.15,397.25,1.55,406.63,1.24
		c37.61-1.27,12.12-85.53,0.18-110.41c-156.74-326.72-127.32-658.93-131.21-718.23c70.95,32.97,124.47,68.17,146.4,97.18
		c80.5,106.44,110.51,130.2,218.21,148.33s300.27-24.7,332.7-38.69c32.43-13.99,121.45-68.62,150.76-109.5
		c29.31-40.88,142.39-357.17,174.43-520.98S3300.96,1771.92,3278.3,1723.47z"/>
</g>
<g id="Trunk">
	<path class="st1" d="M1975.78,3220.26c9.38-0.15,397.26,1.55,406.63,1.24c37.61-1.27,12.12-85.53,0.18-110.41
		c-171.4-357.28-120.5-711.71-133.66-718.05c-123.8-59.66-332.87-118.37-506.55-105.08c-22.64,1.73,47.12,522.51-114.59,823.91
		c-24.27,45.24-73.01,109.64-5.13,109.64C1753.22,3221.49,1864.56,3222,1975.78,3220.26z"/>
	<path class="st2" d="M1975.78,3220.26c9.38-0.15,397.26,1.55,406.63,1.24c37.61-1.27,12.12-85.53,0.18-110.41
		c-171.4-357.28-120.5-711.71-133.66-718.05c-123.8-59.66-332.87-118.37-506.55-105.08c-22.64,1.73,47.12,522.51-114.59,823.91
		c-24.27,45.24-73.01,109.64-5.13,109.64C1753.22,3221.49,1864.56,3222,1975.78,3220.26z"/>
	<path class="st2" d="M1975.78,3220.26c9.38-0.15,397.26,1.55,406.63,1.24c37.61-1.27,12.12-85.53,0.18-110.41
		c-171.4-357.28-120.5-711.71-133.66-718.05c-123.8-59.66-371.64,635.34-621.13,718.83c-48.69,16.29-73.01,109.64-5.13,109.64
		C1753.22,3221.49,1864.56,3222,1975.78,3220.26z"/>
</g>
<g id="Straya">
	<path class="st3" d="M3002.96,2854.93c24.91,22.14-6.78,203.9-54.63,203.91c-40.77,0.01-163.18-172.06-124.56-192.42
		C2849.54,2852.83,2985.6,2839.5,3002.96,2854.93z"/>
	<path class="st4" d="M2449.18,706.08c0,0,264.09,425.7,276.29,471.97s188.98,277.76,254.79,287.13
		c65.81,9.38,216.65,134.89,239.31,183.34c22.67,48.45,86.36,156.85,54.32,320.67s-145.12,480.1-174.43,520.98
		s-118.32,95.51-150.76,109.5c-32.43,13.99-225,56.82-332.7,38.69s-137.71-41.89-218.21-148.33
		c-80.5-106.44-586.24-296.27-818.28-153.48c-232.04,142.79-484.69,275.2-587.56,248.86C874.7,2555.38,912.05,2454,873.08,2354
		c-30.74-78.87-261.92-591.6-84.42-725.89c195.42-147.85,362.56-187.16,446.19-307.92c76.97-111.13,343.92-260.82,399.97-294.59
		c50.69-30.54,125.2-212.11,201.09-203.91s236.42-17.28,237.12,47.36s79.65,304.1,191.95,274
		C2377.29,1112.96,2369.07,603,2449.18,706.08z"/>
	<path class="st5" d="M2449.18,706.08c0,0,264.09,425.7,276.29,471.97s188.98,277.76,254.79,287.13
		c65.81,9.38,216.65,134.89,239.31,183.34c22.67,48.45,86.36,156.85,54.32,320.67s-145.12,480.1-174.43,520.98
		s-118.32,95.51-150.76,109.5c-32.43,13.99-225,56.82-332.7,38.69s-137.71-41.89-218.21-148.33
		c-80.5-106.44-586.24-296.27-818.28-153.48c-232.04,142.79-484.69,275.2-587.56,248.86C874.7,2555.38,912.05,2454,873.08,2354
		c-30.74-78.87-261.92-591.6-84.42-725.89c195.42-147.85,362.56-187.16,446.19-307.92c76.97-111.13,343.92-260.82,399.97-294.59
		c50.69-30.54,125.2-212.11,201.09-203.91s236.42-17.28,237.12,47.36s79.65,304.1,191.95,274
		C2377.29,1112.96,2369.07,603,2449.18,706.08z"/>
	<path class="st6" d="M2449.18,706.08c0,0,264.09,425.7,276.29,471.97s188.98,277.76,254.79,287.13
		c65.81,9.38,216.65,134.89,239.31,183.34c22.67,48.45,86.36,156.85,54.32,320.67s-145.12,480.1-174.43,520.98
		s-118.32,95.51-150.76,109.5c-32.43,13.99-225,56.82-332.7,38.69s-137.71-41.89-218.21-148.33
		c-80.5-106.44-586.24-296.27-818.28-153.48c-232.04,142.79-484.69,275.2-587.56,248.86C874.7,2555.38,912.05,2454,873.08,2354
		c-30.74-78.87-40.05-302.69,21.24-502.13c48.43-157.58,125.54-253.76,246.43-319.9c87.55-47.9,334.86-116.6,450.59-159.4
		c157.02-58.08,182.21-317.95,221.94-348.77c60.31-46.78,259.04-219.39,259.74-154.75s79.65,304.1,191.95,274
		C2377.29,1112.96,2369.07,603,2449.18,706.08z"/>
	<path class="st7" d="M2449.18,706.08c0,0,264.09,425.7,276.29,471.97s188.98,277.76,254.79,287.13
		c65.81,9.38,216.65,134.89,239.31,183.34c22.67,48.45,86.36,156.85,54.32,320.67s-145.12,480.1-174.43,520.98
		s-118.32,95.51-150.76,109.5c-32.43,13.99-225,56.82-332.7,38.69s-137.71-41.89-218.21-148.33
		c-80.5-106.44-586.24-296.27-818.28-153.48c-232.04,142.79-484.69,275.2-587.56,248.86C874.7,2555.38,912.05,2454,873.08,2354
		c-30.74-78.87,82.39-342.62,247.42-434.49c205.03-114.14,199.61-102.98,332.92-168.04c136.44-66.58,121.89-179.99,305.44-291.6
		c196.58-119.53,337.89-16.94,570.72-208.31C2483.88,1124.73,2369.07,603,2449.18,706.08z"/>
	<path class="st3" d="M2494.91,1220.38c156.42-0.9,419.54,235.43,485.35,244.81c65.81,9.38,216.65,134.89,239.31,183.34
		c22.67,48.45,86.36,156.85,54.32,320.67s-145.12,480.1-174.43,520.98s-118.32,95.51-150.76,109.5
		c-32.43,13.99-225,56.82-332.7,38.69s-137.71-41.89-218.21-148.33c-80.5-106.44-586.24-296.27-818.28-153.48
		c-232.04,142.79-484.69,275.2-587.56,248.86c-117.26-30.03,257.54-525.27,435.04-659.56c195.42-147.85,461.34-70.82,597.98-124.72
		C2185.73,1737.71,2350.31,1221.21,2494.91,1220.38z"/>
</g>
</svg>
